STARTFONT 2.1
COMMENT
COMMENT Converted from OpenType font "Q:\font stuff\winfont\Athletic.ttf" by "otf2bdf 3.0".
COMMENT
FONT -FreeType-Athletic-Medium-R-Normal--84-840-72-72-P-105-ISO10646-1
SIZE 84 72 72
FONTBOUNDINGBOX 86 93 -15 -8
STARTPROPERTIES 19
FOUNDRY "FreeType"
FAMILY_NAME "Athletic"
WEIGHT_NAME "Medium"
SLANT "R"
SETWIDTH_NAME "Normal"
ADD_STYLE_NAME ""
PIXEL_SIZE 84
POINT_SIZE 840
RESOLUTION_X 72
RESOLUTION_Y 72
SPACING "P"
AVERAGE_WIDTH 105
CHARSET_REGISTRY "ISO10646"
CHARSET_ENCODING "1"
FONT_ASCENT 84
FONT_DESCENT 8
COPYRIGHT " "
_OTF_FONTFILE "Q:\font stuff\winfont\Athletic.ttf"
_OTF_PSNAME "Athletic"
ENDPROPERTIES
CHARS 394
STARTCHAR 0020
ENCODING 32
SWIDTH 23 0
DWIDTH 2 0
BBX 0 0 0 0
BITMAP
ENDCHAR
STARTCHAR 0021
ENCODING 33
SWIDTH 226 0
DWIDTH 19 0
BBX 24 79 -2 4
BITMAP
FFFFC0
FFFFFF
FFFFFF
FFFFFF
FFFFFF
FFFFFE
FFFFFE
7FFFFE
7FFFFE
7FFFFE
7FFFFE
7FFFFE
7FFFFE
7FFFFE
7FFFFE
7FFFFE
7FFFFC
7FFFFC
7FFFFC
3FFFFC
3FFFFC
3FFFFC
3FFFFC
3FFFFC
3FFFFC
3FFFFC
3FFFFC
3FFFFC
3FFFF8
3FFFF8
3FFFF8
1FFFF8
1FFFF8
1FFFF8
1FFFF8
1FFFF8
1FFFF8
1FFFF8
1FFFF8
1FFFF0
1FFFF0
1FFFF0
0FFFF0
0FFFF0
0FFFF0
0FFFF0
0FFFF0
0FFFF0
0FFFF0
0FFFF0
0FFFF0
0FFFE0
0FFFE0
0FFFE0
000000
000000
000000
000000
000000
000000
3FFFF8
3FFFF8
3FFFF8
3FFFF8
3FFFF8
3FFFF8
3FFFF8
3FFFF8
3FFFF8
3FFFF8
3FFFF8
3FFFF8
3FFFF8
3FFFF8
3FFFF8
3FFFF8
3FFFF8
3FFFF8
3FFFF8
ENDCHAR
STARTCHAR 0022
ENCODING 34
SWIDTH 23 0
DWIDTH 2 0
BBX 24 17 -9 68
BITMAP
FFC1FF
FFC1FF
7FC1FF
7FC1FF
7F81FF
7F81FE
7F80FE
7F80FE
7F80FE
3F00FE
3F00FE
3F00FE
3F007C
3F007C
3F007C
3E007C
1E007C
ENDCHAR
STARTCHAR 0023
ENCODING 35
SWIDTH 297 0
DWIDTH 25 0
BBX 43 36 -7 48
BITMAP
0003F807F800
0003F807F000
0003F807F000
0003F807F000
0007F007F000
0007F00FF000
0007F00FE000
0FFFFFFFFFE0
0FFFFFFFFFE0
1FFFFFFFFFE0
1FFFFFFFFFE0
1FFFFFFFFFC0
1FFFFFFFFFC0
3FFFFFFFFFC0
001FC01FC000
001FC01FC000
001FC03FC000
001FC03F8000
003FC03F8000
003F803F8000
003F803F8000
003F807F0000
7FFFFFFFFF00
7FFFFFFFFF00
7FFFFFFFFF00
FFFFFFFFFF00
FFFFFFFFFF00
FFFFFFFFFE00
FFFFFFFFFE00
00FF00FE0000
00FE01FE0000
00FE01FE0000
00FE01FC0000
01FE01FC0000
01FE01FC0000
01FC01FC0000
ENDCHAR
STARTCHAR 0024
ENCODING 36
SWIDTH 476 0
DWIDTH 40 0
BBX 40 78 0 5
BITMAP
0003FF8000
0003FF8000
0003FF8000
0003FF8000
0003FF8000
0003FF8000
0003FF8000
007FFFFC00
00FFFFFE00
01FFFFFF00
03FFFFFF80
07FFFFFFC0
0FFFFFFFF0
1FFFFFFFF8
3FFFFFFFFC
3FFFFFFFFE
7FFFFFFFFF
FFFFFFFFFF
FFFFFFFFFF
FFFC007FFF
FFFC007FFF
FFFC007FFF
FFFC007FFF
FFFC000000
FFFC000000
FFFC000000
FFFC000000
FFFC000000
FFFC000000
FFFFFFFC00
FFFFFFFE00
FFFFFFFF00
FFFFFFFF80
FFFFFFFFC0
FFFFFFFFE0
FFFFFFFFF0
FFFFFFFFF8
FFFFFFFFFC
7FFFFFFFFE
3FFFFFFFFF
1FFFFFFFFF
0FFFFFFFFF
0FFFFFFFFF
07FFFFFFFF
03FFFFFFFF
000000FFFF
000000FFFF
000000FFFF
000000FFFF
000000FFFF
000000FFFF
000000FFFF
7FFC00FFFF
7FFC00FFFF
7FFC00FFFF
7FFC00FFFF
7FFC00FFFF
7FFFFFFFFF
7FFFFFFFFF
7FFFFFFFFF
7FFFFFFFFF
7FFFFFFFFE
3FFFFFFFFC
3FFFFFFFF8
1FFFFFFFF0
0FFFFFFFE0
07FFFFFFC0
03FFFFFF80
01FFFFFF00
00FFFFFE00
00FFFFFC00
007FFFF800
0003FF8000
0003FF8000
0003FF8000
0003FF8000
0003FF8000
0003FF8000
ENDCHAR
STARTCHAR 0025
ENCODING 37
SWIDTH 857 0
DWIDTH 72 0
BBX 70 79 1 4
BITMAP
01FFF800000007FFFC
03FFF80000000FFFFC
03FFFC0000001FFFF8
07FFFE0000001FFFF0
0FFFFF0000003FFFF0
1FFFFF8000007FFFE0
3FFFFF8000007FFFC0
3FFFFFC00000FFFFC0
7FFFFFE00001FFFF80
FFFFFFF00001FFFF00
FFFFFFF00003FFFF00
FFE07FF00007FFFE00
FFE03FF00007FFFC00
FFC03FF0000FFFFC00
FFC03FF0001FFFF800
FFC03FF0001FFFF000
FFC03FF0003FFFF000
FFC03FF0007FFFE000
FFC03FF0007FFFC000
FFC03FF000FFFFC000
FFC03FF001FFFF8000
FFE07FF001FFFF0000
FFFFFFF003FFFF0000
FFFFFFF007FFFE0000
FFFFFFF007FFFC0000
FFFFFFE00FFFFC0000
7FFFFFC01FFFF80000
3FFFFF801FFFF00000
1FFFFF803FFFF00000
0FFFFF007FFFE00000
07FFFE007FFFC00000
03FFFE00FFFFC00000
01FFFC01FFFF800000
01FFF801FFFF000000
00000003FFFE000000
00000007FFFE000000
00000007FFFC000000
0000000FFFF8000000
0000001FFFF8000000
0000001FFFF0000000
0000003FFFE0000000
0000007FFFE0000000
000000FFFFC0000000
000000FFFF80000000
000001FFFF80000000
000003FFFF00FFFE00
000003FFFE00FFFF00
000007FFFE01FFFF80
00000FFFFC03FFFFC0
00000FFFF803FFFFE0
00001FFFF807FFFFE0
00003FFFF00FFFFFF0
00003FFFE00FFFFFF8
00007FFFE01FFFFFFC
0000FFFFC01FFFFFFC
0000FFFF803FFFFFFC
0001FFFF803FFC1FFC
0003FFFF003FFC0FFC
0003FFFE003FF807FC
0007FFFE003FF807FC
000FFFFC003FF807FC
000FFFF8003FF807FC
001FFFF0003FF807FC
003FFFF0003FF807FC
003FFFE0003FF807FC
007FFFC0003FF807FC
00FFFFC0003FF80FFC
00FFFF80003FFC0FFC
01FFFF00003FFFFFFC
03FFFF00003FFFFFFC
03FFFE00001FFFFFF8
07FFFC00000FFFFFF8
0FFFFC000007FFFFF0
0FFFF8000007FFFFE0
1FFFF0000003FFFFE0
3FFFE0000001FFFFC0
3FFFE0000000FFFF80
7FFFC00000007FFF00
FFFF800000003FFF00
ENDCHAR
STARTCHAR 0026
ENCODING 38
SWIDTH 500 0
DWIDTH 42 0
BBX 0 0 0 0
BITMAP
ENDCHAR
STARTCHAR 0027
ENCODING 39
SWIDTH 500 0
DWIDTH 42 0
BBX 0 0 0 0
BITMAP
ENDCHAR
STARTCHAR 0028
ENCODING 40
SWIDTH 500 0
DWIDTH 42 0
BBX 0 0 0 0
BITMAP
ENDCHAR
STARTCHAR 0029
ENCODING 41
SWIDTH 500 0
DWIDTH 42 0
BBX 0 0 0 0
BITMAP
ENDCHAR
STARTCHAR 002A
ENCODING 42
SWIDTH 23 0
DWIDTH 2 0
BBX 25 24 -9 60
BITMAP
0380C000
0780F000
0FC1F800
07C1F000
07E3F000
03E7E000
03F7C000
01FFC000
00FF8000
00FF8000
FFFFFF80
FFFFFF80
FFFFFF80
FFFFFF80
00FF0000
00FF8000
01FFC000
01F7C000
03E7E000
07E3E000
07C1F000
0FC1F800
0780F000
0380E000
ENDCHAR
STARTCHAR 002B
ENCODING 43
SWIDTH 500 0
DWIDTH 42 0
BBX 0 0 0 0
BITMAP
ENDCHAR
STARTCHAR 002C
ENCODING 44
SWIDTH 190 0
DWIDTH 16 0
BBX 15 25 0 -8
BITMAP
FFFE
FFFC
FFFC
FFFC
FFFC
FFFC
FFF8
FFF8
FFF8
FFF8
FFF8
FFF0
FFF0
FFF0
FFF0
FFF0
FFE0
FFE0
FFE0
FFE0
FFC0
FFC0
FFC0
FFC0
FFC0
ENDCHAR
STARTCHAR 002D
ENCODING 45
SWIDTH 500 0
DWIDTH 42 0
BBX 0 0 0 0
BITMAP
ENDCHAR
STARTCHAR 002E
ENCODING 46
SWIDTH 214 0
DWIDTH 18 0
BBX 16 18 1 6
BITMAP
FFFF
FFFF
FFFF
FFFF
FFFF
FFFF
FFFF
FFFF
FFFF
FFFF
FFFF
FFFF
FFFF
FFFF
FFFF
FFFF
FFFF
FFFF
ENDCHAR
STARTCHAR 002F
ENCODING 47
SWIDTH 476 0
DWIDTH 40 0
BBX 55 80 0 5
BITMAP
0000000001FFFE
0000000003FFFC
0000000003FFFC
0000000007FFF8
0000000007FFF8
000000000FFFF0
000000000FFFF0
000000001FFFE0
000000001FFFE0
000000003FFFC0
000000003FFFC0
000000007FFF80
000000007FFF80
00000000FFFF00
00000000FFFF00
00000001FFFE00
00000001FFFE00
00000003FFFC00
00000003FFFC00
00000007FFF800
00000007FFF800
0000000FFFF000
0000000FFFF000
0000001FFFE000
0000001FFFE000
0000003FFFC000
0000003FFFC000
0000007FFFC000
0000007FFF8000
000000FFFF8000
000000FFFF0000
000001FFFF0000
000001FFFE0000
000003FFFE0000
000003FFFC0000
000007FFFC0000
000007FFF80000
00000FFFF80000
00000FFFF00000
00001FFFF00000
00001FFFE00000
00001FFFE00000
00003FFFC00000
00003FFFC00000
00007FFF800000
00007FFF800000
0000FFFF000000
0000FFFF000000
0001FFFE000000
0001FFFE000000
0003FFFC000000
0003FFFC000000
0007FFF8000000
0007FFF8000000
000FFFF0000000
000FFFF0000000
001FFFE0000000
001FFFE0000000
003FFFC0000000
003FFFC0000000
007FFFC0000000
007FFF80000000
00FFFF80000000
00FFFF00000000
01FFFF00000000
01FFFE00000000
03FFFE00000000
03FFFC00000000
03FFFC00000000
07FFF800000000
07FFF800000000
0FFFF000000000
0FFFF000000000
1FFFE000000000
1FFFE000000000
3FFFC000000000
3FFFC000000000
7FFF8000000000
7FFF8000000000
FFFF0000000000
ENDCHAR
STARTCHAR 0030
ENCODING 48
SWIDTH 571 0
DWIDTH 48 0
BBX 48 78 0 5
BITMAP
003FFFFFF800
007FFFFFFC00
00FFFFFFFE00
01FFFFFFFF00
01FFFFFFFF80
03FFFFFFFFC0
07FFFFFFFFC0
0FFFFFFFFFE0
1FFFFFFFFFF0
1FFFFFFFFFF8
3FFFFFFFFFFC
7FFFFFFFFFFE
FFFFFFFFFFFE
FFFFFFFFFFFF
FFFFFFFFFFFF
FFFFC007FFFF
FFFF8007FFFF
FFFF0003FFFF
FFFE0001FFFF
FFFE0000FFFF
FFFE0000FFFF
FFFE0000FFFF
FFFE0000FFFF
FFFE0000FFFF
FFFE0000FFFF
FFFE0000FFFF
FFFE0000FFFF
FFFE0000FFFF
FFFE0000FFFF
FFFE0000FFFF
FFFE0000FFFF
FFFE0000FFFF
FFFE0000FFFF
FFFE0000FFFF
FFFE0000FFFF
FFFE0000FFFF
FFFE0000FFFF
FFFE0000FFFF
FFFE0000FFFF
FFFE0000FFFF
FFFE0000FFFF
FFFE0000FFFF
FFFE0000FFFF
FFFE0000FFFF
FFFE0000FFFF
FFFE0000FFFF
FFFE0000FFFF
FFFE0000FFFF
FFFE0000FFFF
FFFE0000FFFF
FFFE0000FFFF
FFFE0000FFFF
FFFE0000FFFF
FFFE0000FFFF
FFFE0000FFFF
FFFE0000FFFF
FFFE0000FFFF
FFFE0000FFFF
FFFE0000FFFF
FFFE0000FFFF
FFFF0001FFFF
FFFF0003FFFF
FFFF8007FFFF
FFFFC007FFFF
FFFFFFFFFFFF
7FFFFFFFFFFE
7FFFFFFFFFFC
3FFFFFFFFFF8
1FFFFFFFFFF8
0FFFFFFFFFF0
0FFFFFFFFFE0
07FFFFFFFFC0
03FFFFFFFF80
01FFFFFFFF80
00FFFFFFFF00
00FFFFFFFE00
007FFFFFFC00
003FFFFFFC00
ENDCHAR
STARTCHAR 0031
ENCODING 49
SWIDTH 321 0
DWIDTH 27 0
BBX 27 80 -1 5
BITMAP
01FFFE00
03FFFE00
07FFFE00
0FFFFE00
0FFFFE00
1FFFFE00
3FFFFE00
7FFFFE00
7FFFFE00
FFFFFE00
FFFFFE00
FFFFFE00
FFFFFE00
FFFFFE00
FFFFFE00
FFFFFE00
FFFFFE00
FFFFFE00
FFFFFE00
FFFFFE00
03FFFE00
03FFFE00
03FFFE00
03FFFE00
03FFFE00
03FFFE00
03FFFE00
03FFFE00
03FFFE00
03FFFE00
03FFFE00
03FFFE00
03FFFE00
03FFFE00
03FFFE00
03FFFE00
03FFFE00
03FFFE00
03FFFE00
03FFFE00
03FFFE00
03FFFE00
03FFFE00
03FFFE00
03FFFE00
03FFFE00
03FFFE00
03FFFE00
03FFFE00
03FFFE00
03FFFE00
03FFFE00
03FFFE00
03FFFE00
03FFFE00
03FFFE00
03FFFE00
03FFFE00
03FFFE00
03FFFE00
03FFFE00
7FFFFFE0
7FFFFFE0
7FFFFFE0
7FFFFFE0
7FFFFFE0
7FFFFFE0
7FFFFFE0
7FFFFFE0
7FFFFFE0
7FFFFFE0
7FFFFFE0
7FFFFFE0
7FFFFFE0
7FFFFFE0
7FFFFFE0
7FFFFFE0
7FFFFFE0
7FFFFFE0
7FFFFFE0
ENDCHAR
STARTCHAR 0032
ENCODING 50
SWIDTH 571 0
DWIDTH 48 0
BBX 48 79 0 5
BITMAP
001FFFFFF000
003FFFFFF800
007FFFFFFC00
00FFFFFFFE00
01FFFFFFFF00
01FFFFFFFF00
03FFFFFFFF80
07FFFFFFFFC0
0FFFFFFFFFE0
1FFFFFFFFFF0
3FFFFFFFFFF0
7FFFFFFFFFF8
FFFFFFFFFFFC
FFFFFFFFFFFE
FFFFFFFFFFFE
FFFFFFFFFFFE
FFFFFFFFFFFE
FFFFFFFFFFFE
FFFFE01FFFFE
FFFF800FFFFE
FFFF0007FFFE
FFFF0007FFFE
FFFF0007FFFE
FFFF0007FFFE
FFFF0007FFFE
FFFF0007FFFE
FFFF0007FFFE
00000007FFFE
00000007FFFE
00000007FFFE
0000000FFFFE
0000001FFFFE
0000003FFFFE
0000007FFFFE
000000FFFFFE
000001FFFFFE
000003FFFFFC
000007FFFFF8
00000FFFFFF0
00001FFFFFE0
00003FFFFFC0
00007FFFFFC0
0000FFFFFF80
0001FFFFFF00
0001FFFFFE00
0003FFFFFC00
0007FFFFF800
000FFFFFF000
001FFFFFF000
003FFFFFE000
007FFFFFC000
00FFFFFF8000
01FFFFFF0000
03FFFFFE0000
07FFFFFC0000
0FFFFFF80000
1FFFFFF80000
3FFFFFF00000
7FFFFFE00000
FFFFFFC00000
FFFFFFFFFFFF
FFFFFFFFFFFF
FFFFFFFFFFFF
FFFFFFFFFFFF
FFFFFFFFFFFF
FFFFFFFFFFFF
FFFFFFFFFFFF
FFFFFFFFFFFF
FFFFFFFFFFFF
FFFFFFFFFFFF
FFFFFFFFFFFF
FFFFFFFFFFFF
FFFFFFFFFFFF
FFFFFFFFFFFF
FFFFFFFFFFFF
FFFFFFFFFFFF
FFFFFFFFFFFF
FFFFFFFFFFFF
FFFFFFFFFFFF
ENDCHAR
STARTCHAR 0033
ENCODING 51
SWIDTH 571 0
DWIDTH 48 0
BBX 46 79 1 5
BITMAP
001FFFFFF000
003FFFFFF800
007FFFFFFC00
00FFFFFFFE00
01FFFFFFFF00
03FFFFFFFF00
07FFFFFFFF80
0FFFFFFFFFC0
0FFFFFFFFFE0
1FFFFFFFFFF0
3FFFFFFFFFF8
7FFFFFFFFFF8
FFFFFFFFFFFC
FFFFFFFFFFFC
FFFFFFFFFFFC
FFFFFFFFFFFC
FFFFFFFFFFFC
FFFFFFFFFFFC
FFFFE03FFFFC
FFFFC00FFFFC
FFFF0007FFFC
FFFF0007FFFC
FFFF0007FFFC
FFFF0007FFFC
FFFF0007FFFC
FFFF0007FFFC
FFFF0007FFFC
00000007FFFC
00000007FFFC
00000007FFFC
0000000FFFFC
0000003FFFFC
00001FFFFFFC
00001FFFFFF8
00001FFFFFF0
00001FFFFFC0
00001FFFFF80
00001FFFFFE0
00001FFFFFF8
00001FFFFFFC
00001FFFFFFC
00001FFFFFFC
00001FFFFFFC
00001FFFFFFC
0000003FFFFC
0000001FFFFC
0000000FFFFC
00000007FFFC
00000007FFFC
00000007FFFC
00000007FFFC
00000007FFFC
FFFF0007FFFC
FFFF0007FFFC
FFFF0007FFFC
FFFF0007FFFC
FFFF0007FFFC
FFFF0007FFFC
FFFF0007FFFC
FFFFC01FFFFC
FFFFE03FFFFC
FFFFFFFFFFFC
FFFFFFFFFFFC
FFFFFFFFFFFC
FFFFFFFFFFFC
FFFFFFFFFFFC
7FFFFFFFFFFC
3FFFFFFFFFF8
1FFFFFFFFFF0
1FFFFFFFFFE0
0FFFFFFFFFC0
07FFFFFFFFC0
03FFFFFFFF80
01FFFFFFFF00
00FFFFFFFE00
007FFFFFFC00
003FFFFFFC00
003FFFFFF800
001FFFFFF000
ENDCHAR
STARTCHAR 0034
ENCODING 52
SWIDTH 678 0
DWIDTH 57 0
BBX 57 79 0 5
BITMAP
0000000FFFFFC000
0000001FFFFFC000
0000001FFFFFC000
0000003FFFFFC000
0000007FFFFFC000
0000007FFFFFC000
000000FFFFFFC000
000001FFFFFFC000
000001FFFFFFC000
000003FFFFFFC000
000007FFFFFFC000
00000FFFFFFFC000
00000FFFFFFFC000
00001FFFFFFFC000
00003FFFFFFFC000
00003FFFFFFFC000
00007FFFFFFFC000
0000FFFFFFFFC000
0001FFFF7FFFC000
0001FFFE7FFFC000
0003FFFE7FFFC000
0007FFFC7FFFC000
0007FFF87FFFC000
000FFFF07FFFC000
001FFFF07FFFC000
001FFFE07FFFC000
003FFFC07FFFC000
007FFFC07FFFC000
00FFFF807FFFC000
00FFFF007FFFC000
01FFFF007FFFC000
03FFFE007FFFC000
03FFFC007FFFC000
07FFF8007FFFC000
0FFFF8007FFFC000
1FFFF0007FFFC000
1FFFE0007FFFC000
3FFFE0007FFFC000
7FFFC0007FFFC000
7FFF80007FFFC000
FFFFFFFFFFFFFF80
FFFFFFFFFFFFFF80
FFFFFFFFFFFFFF80
FFFFFFFFFFFFFF80
FFFFFFFFFFFFFF80
FFFFFFFFFFFFFF80
FFFFFFFFFFFFFF80
FFFFFFFFFFFFFF80
FFFFFFFFFFFFFF80
FFFFFFFFFFFFFF80
FFFFFFFFFFFFFF80
FFFFFFFFFFFFFF80
FFFFFFFFFFFFFF80
FFFFFFFFFFFFFF80
000000007FFFC000
000000007FFFC000
000000007FFFC000
000000007FFFC000
000000007FFFC000
000000007FFFC000
00000007FFFFFE00
00000007FFFFFE00
00000007FFFFFE00
00000007FFFFFE00
00000007FFFFFE00
00000007FFFFFE00
00000007FFFFFE00
00000007FFFFFE00
00000007FFFFFE00
00000007FFFFFE00
00000007FFFFFE00
00000007FFFFFE00
00000007FFFFFE00
00000007FFFFFE00
00000007FFFFFE00
00000007FFFFFE00
00000007FFFFFE00
00000007FFFFFE00
00000007FFFFFE00
ENDCHAR
STARTCHAR 0035
ENCODING 53
SWIDTH 571 0
DWIDTH 48 0
BBX 46 79 1 5
BITMAP
FFFFFFFFFFE0
FFFFFFFFFFE0
FFFFFFFFFFE0
FFFFFFFFFFE0
FFFFFFFFFFE0
FFFFFFFFFFE0
FFFFFFFFFFE0
FFFFFFFFFFE0
FFFFFFFFFFE0
FFFFFFFFFFE0
FFFFFFFFFFE0
FFFFFFFFFFE0
FFFFFFFFFFE0
FFFFFFFFFFE0
FFFFFFFFFFE0
FFFFFFFFFFE0
FFFF80000000
FFFF80000000
FFFF80000000
FFFF80000000
FFFF80000000
FFFF80000000
FFFF80000000
FFFF80000000
FFFF80000000
FFFF80000000
FFFF80000000
FFFFFFFFFC00
FFFFFFFFFE00
FFFFFFFFFE00
FFFFFFFFFF00
FFFFFFFFFF80
FFFFFFFFFFC0
FFFFFFFFFFE0
FFFFFFFFFFF0
FFFFFFFFFFF8
FFFFFFFFFFFC
FFFFFFFFFFFC
FFFFFFFFFFFC
FFFFFFFFFFFC
FFFFFFFFFFFC
0000003FFFFC
0000001FFFFC
0000000FFFFC
00000007FFFC
00000007FFFC
00000007FFFC
00000007FFFC
00000007FFFC
00000007FFFC
00000007FFFC
00000007FFFC
FFFF0007FFFC
FFFF0007FFFC
FFFF0007FFFC
FFFF0007FFFC
FFFF0007FFFC
FFFF0007FFFC
FFFF800FFFFC
FFFFC01FFFFC
FFFFE03FFFFC
FFFFFFFFFFFC
FFFFFFFFFFFC
FFFFFFFFFFFC
FFFFFFFFFFFC
FFFFFFFFFFFC
7FFFFFFFFFF8
3FFFFFFFFFF0
1FFFFFFFFFF0
0FFFFFFFFFE0
07FFFFFFFFC0
07FFFFFFFF80
03FFFFFFFF80
01FFFFFFFF00
00FFFFFFFE00
007FFFFFFC00
003FFFFFFC00
001FFFFFF800
001FFFFFF000
ENDCHAR
STARTCHAR 0036
ENCODING 54
SWIDTH 571 0
DWIDTH 48 0
BBX 47 78 0 5
BITMAP
000FFFFFF800
001FFFFFFC00
003FFFFFFE00
007FFFFFFF00
00FFFFFFFF80
01FFFFFFFF80
03FFFFFFFFC0
07FFFFFFFFE0
0FFFFFFFFFF0
1FFFFFFFFFF8
3FFFFFFFFFFC
7FFFFFFFFFFC
7FFFFFFFFFFE
FFFFFFFFFFFE
FFFFFFFFFFFE
FFFFFFFFFFFE
FFFFF00FFFFE
FFFFE007FFFE
FFFFC003FFFE
FFFF8001FFFE
FFFF8000FFFE
FFFF8000FFFE
FFFF80000000
FFFF80000000
FFFF80000000
FFFF80000000
FFFF80000000
FFFF80000000
FFFF80000000
FFFF80000000
FFFF80000000
FFFF80000000
FFFFFFFFFF80
FFFFFFFFFF80
FFFFFFFFFFC0
FFFFFFFFFFE0
FFFFFFFFFFF0
FFFFFFFFFFF8
FFFFFFFFFFF8
FFFFFFFFFFFC
FFFFFFFFFFFE
FFFFFFFFFFFE
FFFFFFFFFFFE
FFFFFFFFFFFE
FFFFFFFFFFFE
FFFFFFFFFFFE
FFFFFFFFFFFE
FFFF8007FFFE
FFFF8003FFFE
FFFF8003FFFE
FFFF8003FFFE
FFFF8003FFFE
FFFF8003FFFE
FFFF8003FFFE
FFFF8003FFFE
FFFF8003FFFE
FFFF8003FFFE
FFFF8003FFFE
FFFF8003FFFE
FFFFC007FFFE
FFFFC00FFFFE
FFFFE01FFFFE
FFFFFFFFFFFE
FFFFFFFFFFFE
FFFFFFFFFFFE
7FFFFFFFFFFE
3FFFFFFFFFFC
1FFFFFFFFFF8
0FFFFFFFFFF8
07FFFFFFFFF0
07FFFFFFFFE0
03FFFFFFFFC0
01FFFFFFFF80
00FFFFFFFF80
007FFFFFFF00
003FFFFFFE00
001FFFFFFC00
000FFFFFF800
ENDCHAR
STARTCHAR 0037
ENCODING 55
SWIDTH 452 0
DWIDTH 38 0
BBX 49 80 -6 5
BITMAP
FFFFFFFFFFFF80
FFFFFFFFFFFF80
FFFFFFFFFFFF80
FFFFFFFFFFFF80
FFFFFFFFFFFF80
FFFFFFFFFFFF80
FFFFFFFFFFFF80
FFFFFFFFFFFF80
FFFFFFFFFFFF80
FFFFFFFFFFFF80
FFFFFFFFFFFF80
FFFFFFFFFFFF80
FFFFFFFFFFFF80
FFFFFFFFFFFF80
FFFFFFFFFFFF80
FFFFFFFFFFFF80
FFFFFFFFFFFF80
FFFF0001FFFF80
FFFF0001FFFF80
FFFF0003FFFF00
FFFF0003FFFF00
FFFF0007FFFF00
FFFF0007FFFE00
00000007FFFE00
0000000FFFFE00
0000000FFFFC00
0000001FFFFC00
0000001FFFF800
0000001FFFF800
0000003FFFF800
0000003FFFF000
0000007FFFF000
0000007FFFE000
0000007FFFE000
000000FFFFE000
000000FFFFC000
000000FFFFC000
000001FFFFC000
000001FFFF8000
000003FFFF8000
000003FFFF0000
000003FFFF0000
000007FFFF0000
000007FFFE0000
00000FFFFE0000
00000FFFFE0000
00000FFFFC0000
00001FFFFC0000
00001FFFF80000
00003FFFF80000
00003FFFF80000
00003FFFF00000
00007FFFF00000
00007FFFE00000
00007FFFE00000
0000FFFFE00000
0000FFFFC00000
0001FFFFC00000
0001FFFFC00000
0001FFFF800000
0003FFFF800000
0003FFFF000000
0007FFFF000000
0007FFFF000000
0007FFFE000000
000FFFFE000000
000FFFFC000000
000FFFFC000000
001FFFFC000000
001FFFF8000000
003FFFF8000000
003FFFF8000000
003FFFF0000000
007FFFF0000000
007FFFE0000000
00FFFFE0000000
00FFFFE0000000
00FFFFC0000000
01FFFFC0000000
01FFFFC0000000
ENDCHAR
STARTCHAR 0038
ENCODING 56
SWIDTH 559 0
DWIDTH 47 0
BBX 46 78 1 5
BITMAP
003FFFFFF000
007FFFFFF000
00FFFFFFF800
01FFFFFFFC00
01FFFFFFFE00
03FFFFFFFF00
07FFFFFFFF80
0FFFFFFFFF80
1FFFFFFFFFC0
1FFFFFFFFFE0
3FFFFFFFFFF0
7FFFFFFFFFF8
FFFFFFFFFFFC
FFFFFFFFFFFC
FFFFFFFFFFFC
FFFFFFFFFFFC
FFFFC03FFFFC
FFFF000FFFFC
FFFE0007FFFC
FFFE0007FFFC
FFFE0007FFFC
FFFE0007FFFC
FFFE0007FFFC
FFFE0007FFFC
FFFE0007FFFC
FFFE0007FFFC
FFFE0007FFFC
FFFE0007FFFC
FFFE0007FFFC
FFFF800FFFFC
FFFFC01FFFFC
FFFFFFFFFFFC
FFFFFFFFFFFC
3FFFFFFFFFF0
1FFFFFFFFFC0
07FFFFFFFF80
07FFFFFFFF80
1FFFFFFFFFE0
7FFFFFFFFFF0
FFFFFFFFFFFC
FFFFFFFFFFFC
FFFFFFFFFFFC
FFFFFFFFFFFC
FFFFFFFFFFFC
FFFFC01FFFFC
FFFF000FFFFC
FFFE0007FFFC
FFFE0007FFFC
FFFE0007FFFC
FFFE0007FFFC
FFFE0007FFFC
FFFE0007FFFC
FFFE0007FFFC
FFFE0007FFFC
FFFE0007FFFC
FFFE0007FFFC
FFFE0007FFFC
FFFE0007FFFC
FFFE0007FFFC
FFFE0007FFFC
FFFF800FFFFC
FFFFC03FFFFC
FFFFFFFFFFFC
FFFFFFFFFFFC
FFFFFFFFFFFC
7FFFFFFFFFF8
7FFFFFFFFFF0
3FFFFFFFFFF0
1FFFFFFFFFE0
0FFFFFFFFFC0
0FFFFFFFFF80
07FFFFFFFF00
03FFFFFFFF00
01FFFFFFFE00
00FFFFFFFC00
00FFFFFFF800
007FFFFFF000
003FFFFFF000
ENDCHAR
STARTCHAR 0039
ENCODING 57
SWIDTH 559 0
DWIDTH 47 0
BBX 45 78 1 5
BITMAP
007FFFFFE000
007FFFFFF000
00FFFFFFF800
01FFFFFFFC00
03FFFFFFFE00
07FFFFFFFE00
07FFFFFFFF00
0FFFFFFFFF80
1FFFFFFFFFC0
3FFFFFFFFFE0
7FFFFFFFFFE0
7FFFFFFFFFF0
FFFFFFFFFFF8
FFFFFFFFFFF8
FFFFFFFFFFF8
FFFFFFFFFFF8
FFFFC03FFFF8
FFFF001FFFF8
FFFE0007FFF8
FFFE0007FFF8
FFFE0007FFF8
FFFE0007FFF8
FFFE0007FFF8
FFFE0007FFF8
FFFE0007FFF8
FFFE0007FFF8
FFFE0007FFF8
FFFE0007FFF8
FFFE0007FFF8
FFFE0007FFF8
FFFF000FFFF8
FFFF801FFFF8
FFFFE03FFFF8
FFFFFFFFFFF8
FFFFFFFFFFF8
FFFFFFFFFFF8
7FFFFFFFFFF8
7FFFFFFFFFF8
3FFFFFFFFFF8
1FFFFFFFFFF8
1FFFFFFFFFF8
0FFFFFFFFFF8
07FFFFFFFFF8
03FFFFFFFFF8
03FFFFFFFFF8
01FFFFFFFFF8
00000007FFF8
00000007FFF8
00000007FFF8
00000007FFF8
00000007FFF8
00000007FFF8
00000007FFF8
00000007FFF8
00000007FFF8
00000007FFF8
FFFE0007FFF8
FFFE0007FFF8
FFFE0007FFF8
FFFE0007FFF8
FFFF800FFFF8
FFFFC03FFFF8
FFFFFFFFFFF8
FFFFFFFFFFF8
FFFFFFFFFFF8
FFFFFFFFFFF8
7FFFFFFFFFF0
3FFFFFFFFFE0
3FFFFFFFFFC0
1FFFFFFFFFC0
0FFFFFFFFF80
07FFFFFFFF00
03FFFFFFFE00
03FFFFFFFC00
01FFFFFFFC00
00FFFFFFF800
007FFFFFF000
007FFFFFE000
ENDCHAR
STARTCHAR 003A
ENCODING 58
SWIDTH 119 0
DWIDTH 10 0
BBX 10 28 0 13
BITMAP
FFC0
FFC0
FFC0
FFC0
FFC0
FFC0
FFC0
FFC0
FFC0
FFC0
FFC0
0000
0000
0000
0000
0000
0000
FFC0
FFC0
FFC0
FFC0
FFC0
FFC0
FFC0
FFC0
FFC0
FFC0
FFC0
ENDCHAR
STARTCHAR 003B
ENCODING 59
SWIDTH 154 0
DWIDTH 13 0
BBX 12 36 0 6
BITMAP
7FE0
7FE0
7FE0
7FE0
7FE0
7FE0
7FE0
7FE0
7FE0
7FE0
7FE0
0000
0000
0000
0000
0000
0000
FFF0
FFF0
FFF0
FFE0
FFE0
FFE0
FFE0
FFE0
FFC0
FFC0
FFC0
FFC0
FF80
FF80
FF80
FF80
FF80
FF00
FF00
ENDCHAR
STARTCHAR 003C
ENCODING 60
SWIDTH 369 0
DWIDTH 31 0
BBX 30 47 0 20
BITMAP
00000300
00000780
00000FC0
00001FE0
00003FF0
00007FF8
0000FFFC
0001FFF8
0003FFF0
0007FFE0
000FFFC0
001FFF80
003FFF00
003FFE00
007FFC00
00FFF800
01FFF000
03FFF000
07FFE000
0FFFC000
1FFF8000
3FFF0000
7FFE0000
FFFC0000
7FFC0000
3FFE0000
1FFF0000
1FFF8000
0FFFC000
07FFE000
03FFF000
01FFF800
00FFFC00
007FFE00
003FFF00
001FFF80
000FFFC0
0007FFE0
0003FFF0
0001FFF8
0000FFFC
00007FFC
00003FF8
00001FE0
00000FC0
00000780
00000300
ENDCHAR
STARTCHAR 003D
ENCODING 61
SWIDTH 500 0
DWIDTH 42 0
BBX 0 0 0 0
BITMAP
ENDCHAR
STARTCHAR 003E
ENCODING 62
SWIDTH 357 0
DWIDTH 30 0
BBX 27 44 1 23
BITMAP
06000000
0F000000
1F800000
3FC00000
7FE00000
FFF00000
FFF80000
7FFC0000
3FFE0000
1FFF0000
0FFF8000
07FFC000
03FFE000
01FFF000
00FFF800
007FFC00
003FFC00
001FFE00
000FFF00
0007FF80
0003FFC0
0001FFE0
0003FFE0
0007FFC0
000FFF80
001FFF00
003FFE00
007FFC00
00FFF800
01FFF000
01FFE000
03FFC000
07FF8000
0FFF0000
1FFE0000
3FFC0000
7FF80000
FFF00000
7FE00000
3FE00000
1FC00000
0F800000
07000000
02000000
ENDCHAR
STARTCHAR 003F
ENCODING 63
SWIDTH 404 0
DWIDTH 34 0
BBX 41 79 -7 5
BITMAP
007FFFFC0000
00FFFFFC0000
00FFFFFE0000
01FFFFFF0000
03FFFFFF8000
07FFFFFFC000
0FFFFFFFE000
1FFFFFFFE000
3FFFFFFFF000
3FFFFFFFF800
7FFFFFFFFC00
FFFFFFFFFE00
FFFFFFFFFE00
FFFFFFFFFF00
FFFFFFFFFF80
FFFFFFFFFF80
FFFFFFFFFF80
FFFFFFFFFF80
FFFFFFFFFF80
FFFFFFFFFF80
FFFF01FFFF80
FFFF01FFFF80
FFFF01FFFF80
FFFF01FFFF80
FFFF01FFFF80
FFFF01FFFF80
000001FFFF80
000001FFFF80
000001FFFF80
000001FFFF80
0003FFFFFF80
0007FFFFFF80
000FFFFFFF80
001FFFFFFF80
003FFFFFFF80
003FFFFFFF00
007FFFFFFE00
007FFFFFFE00
007FFFFFFC00
007FFFFFF800
007FFFFFF000
007FFFFFE000
007FFFFFE000
007FFFFFC000
007FFFFF8000
007FFFFF0000
007FFFFE0000
007FFFFE0000
007FFF800000
007FFF800000
007FFF800000
007FFF800000
007FFF800000
007FFF800000
000000000000
000000000000
000000000000
000000000000
000000000000
000000000000
00FFFF800000
00FFFF800000
00FFFF800000
00FFFF800000
00FFFF800000
00FFFF800000
00FFFF800000
00FFFF800000
00FFFF800000
00FFFF800000
00FFFF800000
00FFFF800000
00FFFF800000
00FFFF800000
00FFFF800000
00FFFF800000
00FFFF800000
00FFFF800000
00FFFF800000
ENDCHAR
STARTCHAR 0040
ENCODING 64
SWIDTH 559 0
DWIDTH 47 0
BBX 46 79 1 4
BITMAP
003FFFF80000
007FFFF80000
00FFFFF80000
01FFFFF80000
03FFFFF80000
07FFFFF80000
0FFFFFF80000
1FFFFFF80000
3FFFFFF80000
3FFFFFF80000
7FFFFFF80000
FFFFFFF80000
FFFFFFF80000
FFFFFFF80000
FFFFFFF80000
FFFFFFF80000
FFFFFFF80000
FFFFFFF80000
FFFFF8000000
FFFFF0000000
FFFFE0000000
FFFFC0000000
FFFFC0000000
FFFFC0000000
FFFFC03FFF80
FFFFC03FFF80
FFFFC03FFF80
FFFFF03FFF80
FFFFF83FFF80
FFFFFFFFFF80
FFFFFFFFFFFC
FFFFFFFFFFFC
FFFFFFFFFFFC
FFFFFFFFFFFC
FFFFFFFFFFFC
FFFFFFFFFFFC
7FFFFFFFFFFC
3FFFFFFFFFFC
1FFFFFFFFFFC
1FFFFFFFFFFC
3FFFFFFFFFFC
7FFFFFFFFFFC
FFFFFFFFFFFC
FFFFFFFFFFFC
FFFFFFFFFFFC
FFFFC01FFFFC
FFFF801FFF80
FFFF001FFF80
FFFE001FFF80
FFFE001FFF80
FFFE001FFF80
FFFE001FFF80
FFFE001FFF80
FFFE001FFF80
FFFE001FFF80
FFFE001FFF80
FFFE001FFF80
FFFE001FFF80
FFFE001FFF80
FFFF001FFF80
FFFFC01FFF80
FFFFFFFFFF80
FFFFFFFFFF80
FFFFFFFFFF80
FFFFFFFFFF80
FFFFFFFFFF80
FFFFFFFFFF80
7FFFFFFFFF80
3FFFFFFFFF80
3FFFFFFFFF80
1FFFFFFFFF80
0FFFFFFFFF80
07FFFFFFFF80
07FFFFFFFF80
03FFFFFFFF80
01FFFFFFFF80
00FFFFFFFF80
00FFFFFFFF80
007FFFFFFF80
ENDCHAR
STARTCHAR 0041
ENCODING 65
SWIDTH 773 0
DWIDTH 65 0
BBX 64 79 1 5
BITMAP
000001FFFF800000
000001FFFF800000
000003FFFF800000
000003FFFFC00000
000003FFFFC00000
000007FFFFC00000
000007FFFFE00000
000007FFFFE00000
000007FFFFE00000
00000FFFFFE00000
00000FFFFFF00000
00000FFFFFF00000
00000FFFFFF00000
00001FFFFFF00000
00001FFFFFF80000
00001FFFFFF80000
00003FFFFFF80000
00003FFFFFF80000
00003FFFFFFC0000
00003FFFFFFC0000
00007FFFFFFC0000
00007FFFFFFE0000
00007FFFFFFE0000
00007FFFFFFE0000
0000FFFFFFFE0000
0000FFFFFFFF0000
0000FFFFFFFF0000
0001FFFEFFFF0000
0001FFFEFFFF0000
0001FFFEFFFF8000
0001FFFC7FFF8000
0003FFFC7FFF8000
0003FFFC7FFF8000
0003FFFC7FFFC000
0007FFF83FFFC000
0007FFF83FFFC000
0007FFF83FFFE000
0007FFF01FFFE000
000FFFFFFFFFE000
000FFFFFFFFFE000
000FFFFFFFFFF000
000FFFFFFFFFF000
001FFFFFFFFFF000
001FFFFFFFFFF000
001FFFFFFFFFF800
003FFFFFFFFFF800
003FFFFFFFFFF800
003FFFFFFFFFFC00
003FFFFFFFFFFC00
007FFFFFFFFFFC00
007FFFFFFFFFFC00
007FFFFFFFFFFE00
007FFFFFFFFFFE00
00FFFFFFFFFFFE00
00FFFFFFFFFFFE00
00FFFF8003FFFF00
01FFFF8001FFFF00
01FFFF8001FFFF00
01FFFF0001FFFF80
01FFFF0000FFFF80
FFFFFFF00FFFFFFF
FFFFFFF00FFFFFFF
FFFFFFF00FFFFFFF
FFFFFFF00FFFFFFF
FFFFFFF00FFFFFFF
FFFFFFF00FFFFFFF
FFFFFFF00FFFFFFF
FFFFFFF00FFFFFFF
FFFFFFF00FFFFFFF
FFFFFFF00FFFFFFF
FFFFFFF00FFFFFFF
FFFFFFF00FFFFFFF
FFFFFFF00FFFFFFF
FFFFFFF00FFFFFFF
FFFFFFF00FFFFFFF
FFFFFFF00FFFFFFF
FFFFFFF00FFFFFFF
FFFFFFF00FFFFFFF
FFFFFFF00FFFFFFF
ENDCHAR
STARTCHAR 0042
ENCODING 66
SWIDTH 642 0
DWIDTH 54 0
BBX 52 78 0 5
BITMAP
FFFFFFFFFF8000
FFFFFFFFFFC000
FFFFFFFFFFE000
FFFFFFFFFFF000
FFFFFFFFFFF800
FFFFFFFFFFFC00
FFFFFFFFFFFE00
FFFFFFFFFFFF00
FFFFFFFFFFFF80
FFFFFFFFFFFFC0
FFFFFFFFFFFFE0
FFFFFFFFFFFFF0
FFFFFFFFFFFFF0
FFFFFFFFFFFFF0
FFFFFFFFFFFFF0
FFFFFFFFFFFFF0
FFFFFFFFFFFFF0
FFFFFFFFFFFFF0
07FFF8007FFFF0
07FFF8003FFFF0
07FFF8001FFFF0
07FFF8000FFFF0
07FFF8000FFFF0
07FFF8000FFFF0
07FFF8000FFFF0
07FFF8000FFFF0
07FFF8000FFFF0
07FFF8000FFFF0
07FFF8001FFFF0
07FFF8001FFFF0
07FFF8003FFFF0
07FFFFFFFFFFF0
07FFFFFFFFFFE0
07FFFFFFFFFFC0
07FFFFFFFFFF80
07FFFFFFFFFF00
07FFFFFFFFFE00
07FFFFFFFFFC00
07FFFFFFFFFC00
07FFFFFFFFFC00
07FFFFFFFFFE00
07FFFFFFFFFF00
07FFFFFFFFFF80
07FFFFFFFFFFC0
07FFFFFFFFFFE0
07FFFFFFFFFFE0
07FFFFFFFFFFF0
07FFF8007FFFF0
07FFF8003FFFF0
07FFF8001FFFF0
07FFF8000FFFF0
07FFF8000FFFF0
07FFF8000FFFF0
07FFF8000FFFF0
07FFF8000FFFF0
07FFF8000FFFF0
07FFF8000FFFF0
07FFF8000FFFF0
07FFF8001FFFF0
FFFFF8003FFFF0
FFFFF8003FFFF0
FFFFFFFFFFFFF0
FFFFFFFFFFFFF0
FFFFFFFFFFFFF0
FFFFFFFFFFFFF0
FFFFFFFFFFFFF0
FFFFFFFFFFFFE0
FFFFFFFFFFFFC0
FFFFFFFFFFFF80
FFFFFFFFFFFF00
FFFFFFFFFFFE00
FFFFFFFFFFFC00
FFFFFFFFFFFC00
FFFFFFFFFFF800
FFFFFFFFFFF000
FFFFFFFFFFE000
FFFFFFFFFFC000
FFFFFFFFFF8000
ENDCHAR
STARTCHAR 0043
ENCODING 67
SWIDTH 666 0
DWIDTH 56 0
BBX 55 79 0 5
BITMAP
001FFFFFFFF000
003FFFFFFFF800
007FFFFFFFFC00
00FFFFFFFFFE00
01FFFFFFFFFE00
03FFFFFFFFFF00
07FFFFFFFFFF80
0FFFFFFFFFFFC0
1FFFFFFFFFFFE0
3FFFFFFFFFFFF0
7FFFFFFFFFFFF8
FFFFFFFFFFFFFC
FFFFFFFFFFFFFE
FFFFFFFFFFFFFE
FFFFFFFFFFFFFE
FFFFFFFFFFFFFE
FFFFC00003FFFE
FFFF800003FFFE
FFFF000001FFFE
FFFF000000FFFE
FFFF000000FFFE
FFFF000000FFFE
FFFF000000FFFE
FFFF000000FFFE
FFFF000000FFFE
FFFF000000FFFE
FFFF000000FFFE
FFFF000000FFFE
FFFF0000000000
FFFF0000000000
FFFF0000000000
FFFF0000000000
FFFF0000000000
FFFF0000000000
FFFF0000000000
FFFF0000000000
FFFF0000000000
FFFF0000000000
FFFF0000000000
FFFF0000000000
FFFF0000000000
FFFF0000000000
FFFF0000000000
FFFF0000000000
FFFF0000000000
FFFF0000000000
FFFF0000000000
FFFF0000000000
FFFF0000000000
FFFF0000000000
FFFF000000FFFE
FFFF000000FFFE
FFFF000000FFFE
FFFF000000FFFE
FFFF000000FFFE
FFFF000000FFFE
FFFF000000FFFE
FFFF000000FFFE
FFFF000000FFFE
FFFF000000FFFE
FFFF800001FFFE
FFFF800003FFFE
FFFFFFFFFFFFFE
FFFFFFFFFFFFFE
FFFFFFFFFFFFFE
FFFFFFFFFFFFFE
FFFFFFFFFFFFFC
7FFFFFFFFFFFF8
3FFFFFFFFFFFF0
1FFFFFFFFFFFE0
0FFFFFFFFFFFC0
0FFFFFFFFFFF80
07FFFFFFFFFF80
03FFFFFFFFFF00
01FFFFFFFFFE00
00FFFFFFFFFC00
007FFFFFFFF800
003FFFFFFFF000
003FFFFFFFE000
ENDCHAR
STARTCHAR 0044
ENCODING 68
SWIDTH 666 0
DWIDTH 56 0
BBX 55 79 0 5
BITMAP
FFFFFFFFFFF800
FFFFFFFFFFFC00
FFFFFFFFFFFE00
FFFFFFFFFFFE00
FFFFFFFFFFFF00
FFFFFFFFFFFF80
FFFFFFFFFFFFC0
FFFFFFFFFFFFE0
FFFFFFFFFFFFF0
FFFFFFFFFFFFF8
FFFFFFFFFFFFF8
FFFFFFFFFFFFFC
FFFFFFFFFFFFFE
FFFFFFFFFFFFFE
FFFFFFFFFFFFFE
FFFFFFFFFFFFFE
FFFFFFFFFFFFFE
FFFFFFFFFFFFFE
FFFFF80007FFFE
0FFFF80003FFFE
0FFFF80003FFFE
0FFFF80001FFFE
0FFFF80001FFFE
0FFFF80001FFFE
0FFFF80001FFFE
0FFFF80001FFFE
0FFFF80001FFFE
0FFFF80001FFFE
0FFFF80001FFFE
0FFFF80001FFFE
0FFFF80001FFFE
0FFFF80001FFFE
0FFFF80001FFFE
0FFFF80001FFFE
0FFFF80001FFFE
0FFFF80001FFFE
0FFFF80001FFFE
0FFFF80001FFFE
0FFFF80001FFFE
0FFFF80001FFFE
0FFFF80001FFFE
0FFFF80001FFFE
0FFFF80001FFFE
0FFFF80001FFFE
0FFFF80001FFFE
0FFFF80001FFFE
0FFFF80001FFFE
0FFFF80001FFFE
0FFFF80001FFFE
0FFFF80001FFFE
0FFFF80001FFFE
0FFFF80001FFFE
0FFFF80001FFFE
0FFFF80001FFFE
0FFFF80001FFFE
0FFFF80001FFFE
0FFFF80001FFFE
0FFFF80003FFFE
0FFFF80007FFFE
0FFFF80007FFFE
FFFFF8000FFFFE
FFFFFFFFFFFFFE
FFFFFFFFFFFFFE
FFFFFFFFFFFFFE
FFFFFFFFFFFFFE
FFFFFFFFFFFFFE
FFFFFFFFFFFFFE
FFFFFFFFFFFFFC
FFFFFFFFFFFFF8
FFFFFFFFFFFFF0
FFFFFFFFFFFFE0
FFFFFFFFFFFFC0
FFFFFFFFFFFFC0
FFFFFFFFFFFF80
FFFFFFFFFFFF00
FFFFFFFFFFFE00
FFFFFFFFFFFC00
FFFFFFFFFFF800
FFFFFFFFFFF000
ENDCHAR
STARTCHAR 0045
ENCODING 69
SWIDTH 654 0
DWIDTH 55 0
BBX 54 79 0 5
BITMAP
FFFFFFFFFFFFFC
FFFFFFFFFFFFFC
FFFFFFFFFFFFFC
FFFFFFFFFFFFFC
FFFFFFFFFFFFFC
FFFFFFFFFFFFFC
FFFFFFFFFFFFFC
FFFFFFFFFFFFFC
FFFFFFFFFFFFFC
FFFFFFFFFFFFFC
FFFFFFFFFFFFFC
FFFFFFFFFFFFFC
FFFFFFFFFFFFFC
FFFFFFFFFFFFFC
FFFFFFFFFFFFFC
FFFFFFFFFFFFFC
FFFFFFFFFFFFFC
FFFFFFFFFFFFFC
FFFFFFFFFFFFFC
0FFFF80007FFFC
0FFFF80007FFFC
0FFFF80007FFFC
0FFFF80007FFFC
0FFFF80007FFFC
0FFFF800000000
0FFFF800000000
0FFFF800000000
0FFFF800000000
0FFFF800000000
0FFFF800000000
0FFFFFFFFC0000
0FFFFFFFFC0000
0FFFFFFFFC0000
0FFFFFFFFC0000
0FFFFFFFFC0000
0FFFFFFFFC0000
0FFFFFFFFC0000
0FFFFFFFFC0000
0FFFFFFFFC0000
0FFFFFFFFC0000
0FFFFFFFFC0000
0FFFFFFFFC0000
0FFFFFFFFC0000
0FFFFFFFFC0000
0FFFFFFFFC0000
0FFFFFFFFC0000
0FFFFFFFFC0000
0FFFFFFFFC0000
0FFFF800000000
0FFFF800000000
0FFFF800000000
0FFFF800000000
0FFFF800000000
0FFFF800000000
0FFFF800000000
0FFFF80007FFFC
0FFFF80007FFFC
0FFFF80007FFFC
0FFFF80007FFFC
0FFFF80007FFFC
FFFFFFFFFFFFFC
FFFFFFFFFFFFFC
FFFFFFFFFFFFFC
FFFFFFFFFFFFFC
FFFFFFFFFFFFFC
FFFFFFFFFFFFFC
FFFFFFFFFFFFFC
FFFFFFFFFFFFFC
FFFFFFFFFFFFFC
FFFFFFFFFFFFFC
FFFFFFFFFFFFFC
FFFFFFFFFFFFFC
FFFFFFFFFFFFFC
FFFFFFFFFFFFFC
FFFFFFFFFFFFFC
FFFFFFFFFFFFFC
FFFFFFFFFFFFFC
FFFFFFFFFFFFFC
FFFFFFFFFFFFFC
ENDCHAR
STARTCHAR 0046
ENCODING 70
SWIDTH 464 0
DWIDTH 39 0
BBX 55 79 0 5
BITMAP
FFFFFFFFFFFFFE
FFFFFFFFFFFFFE
FFFFFFFFFFFFFE
FFFFFFFFFFFFFE
FFFFFFFFFFFFFE
FFFFFFFFFFFFFE
FFFFFFFFFFFFFE
FFFFFFFFFFFFFE
FFFFFFFFFFFFFE
FFFFFFFFFFFFFE
FFFFFFFFFFFFFE
FFFFFFFFFFFFFE
FFFFFFFFFFFFFE
FFFFFFFFFFFFFE
FFFFFFFFFFFFFE
FFFFFFFFFFFFFE
FFFFFFFFFFFFFE
FFFFFFFFFFFFFE
FFFFFFFFFFFFFE
0FFFF80003FFFE
0FFFF80003FFFE
0FFFF80003FFFE
0FFFF80003FFFE
0FFFF80003FFFE
0FFFF800000000
0FFFF800000000
0FFFF800000000
0FFFF800000000
0FFFF800000000
0FFFF800000000
0FFFFFFFFC0000
0FFFFFFFFC0000
0FFFFFFFFC0000
0FFFFFFFFC0000
0FFFFFFFFC0000
0FFFFFFFFC0000
0FFFFFFFFC0000
0FFFFFFFFC0000
0FFFFFFFFC0000
0FFFFFFFFC0000
0FFFFFFFFC0000
0FFFFFFFFC0000
0FFFFFFFFC0000
0FFFFFFFFC0000
0FFFFFFFFC0000
0FFFFFFFFC0000
0FFFFFFFFC0000
0FFFFFFFFC0000
0FFFF800000000
0FFFF800000000
0FFFF800000000
0FFFF800000000
0FFFF800000000
0FFFF800000000
0FFFF800000000
0FFFF800000000
0FFFF800000000
0FFFF800000000
0FFFF800000000
0FFFF800000000
FFFFFFC0000000
FFFFFFC0000000
FFFFFFC0000000
FFFFFFC0000000
FFFFFFC0000000
FFFFFFC0000000
FFFFFFC0000000
FFFFFFC0000000
FFFFFFC0000000
FFFFFFC0000000
FFFFFFC0000000
FFFFFFC0000000
FFFFFFC0000000
FFFFFFC0000000
FFFFFFC0000000
FFFFFFC0000000
FFFFFFC0000000
FFFFFFC0000000
FFFFFFC0000000
ENDCHAR
STARTCHAR 0047
ENCODING 71
SWIDTH 654 0
DWIDTH 55 0
BBX 54 78 1 5
BITMAP
001FFFFFFFE000
003FFFFFFFF000
007FFFFFFFF800
00FFFFFFFFFC00
01FFFFFFFFFE00
03FFFFFFFFFF00
07FFFFFFFFFF80
0FFFFFFFFFFFC0
1FFFFFFFFFFFE0
3FFFFFFFFFFFF0
7FFFFFFFFFFFF8
FFFFFFFFFFFFFC
FFFFFFFFFFFFFC
FFFFFFFFFFFFFC
FFFFFFFFFFFFFC
FFFFFFFFFFFFFC
FFFFFFFFFFFFFC
FFFFFFFFFFFFFC
FFFFC00007FFFC
FFFF800007FFFC
FFFF800007FFFC
FFFF000007FFFC
FFFF000007FFFC
FFFF0000000000
FFFF0000000000
FFFF0000000000
FFFF0000000000
FFFF0000000000
FFFF0000000000
FFFF0000000000
FFFF0000000000
FFFF0000000000
FFFF0000000000
FFFF0000FFFFFC
FFFF0000FFFFFC
FFFF0000FFFFFC
FFFF0000FFFFFC
FFFF0000FFFFFC
FFFF0000FFFFFC
FFFF0000FFFFFC
FFFF0000FFFFFC
FFFF0000FFFFFC
FFFF0000FFFFFC
FFFF0000FFFFFC
FFFF0000FFFFFC
FFFF0000FFFFFC
FFFF0000FFFFFC
FFFF0000FFFFFC
FFFF000007FFFC
FFFF000007FFFC
FFFF000007FFFC
FFFF000007FFFC
FFFF000007FFFC
FFFF000007FFFC
FFFF000007FFFC
FFFF000007FFFC
FFFF000007FFFC
FFFF000007FFFC
FFFF800007FFFC
FFFFC00007FFFC
FFFFFFFFFFFFFC
FFFFFFFFFFFFFC
FFFFFFFFFFFFFC
FFFFFFFFFFFFFC
FFFFFFFFFFFFFC
FFFFFFFFFFFFFC
7FFFFFFFFFFFFC
3FFFFFFFFFFFFC
1FFFFFFFFFFFFC
0FFFFFFFFFFFFC
0FFFFFFFFFFFFC
07FFFFFFFFFFFC
03FFFFFFFFFFFC
01FFFFFFFFFFFC
00FFFFFFFFFFFC
007FFFFFFFFFFC
003FFFFFFFFFFC
001FFFFFFFFFFC
ENDCHAR
STARTCHAR 0048
ENCODING 72
SWIDTH 797 0
DWIDTH 67 0
BBX 66 79 1 5
BITMAP
FFFFFFF00FFFFFFFC0
FFFFFFF00FFFFFFFC0
FFFFFFF00FFFFFFFC0
FFFFFFF00FFFFFFFC0
FFFFFFF00FFFFFFFC0
FFFFFFF00FFFFFFFC0
FFFFFFF00FFFFFFFC0
FFFFFFF00FFFFFFFC0
FFFFFFF00FFFFFFFC0
FFFFFFF00FFFFFFFC0
FFFFFFF00FFFFFFFC0
FFFFFFF00FFFFFFFC0
FFFFFFF00FFFFFFFC0
FFFFFFF00FFFFFFFC0
FFFFFFF00FFFFFFFC0
FFFFFFF00FFFFFFFC0
FFFFFFF00FFFFFFFC0
FFFFFFF00FFFFFFFC0
FFFFFFF00FFFFFFFC0
03FFFE00003FFFE000
03FFFE00003FFFE000
03FFFE00003FFFE000
03FFFE00003FFFE000
03FFFE00003FFFE000
03FFFE00003FFFE000
03FFFE00003FFFE000
03FFFE00003FFFE000
03FFFE00003FFFE000
03FFFE00003FFFE000
03FFFE00003FFFE000
03FFFE00003FFFE000
03FFFFFFFFFFFFE000
03FFFFFFFFFFFFE000
03FFFFFFFFFFFFE000
03FFFFFFFFFFFFE000
03FFFFFFFFFFFFE000
03FFFFFFFFFFFFE000
03FFFFFFFFFFFFE000
03FFFFFFFFFFFFE000
03FFFFFFFFFFFFE000
03FFFFFFFFFFFFE000
03FFFFFFFFFFFFE000
03FFFFFFFFFFFFE000
03FFFFFFFFFFFFE000
03FFFFFFFFFFFFE000
03FFFFFFFFFFFFE000
03FFFFFFFFFFFFE000
03FFFFFFFFFFFFE000
03FFFE00003FFFE000
03FFFE00003FFFE000
03FFFE00003FFFE000
03FFFE00003FFFE000
03FFFE00003FFFE000
03FFFE00003FFFE000
03FFFE00003FFFE000
03FFFE00003FFFE000
03FFFE00003FFFE000
03FFFE00003FFFE000
03FFFE00003FFFE000
03FFFE00003FFFE000
FFFFFFF00FFFFFFF80
FFFFFFF00FFFFFFF80
FFFFFFF00FFFFFFF80
FFFFFFF00FFFFFFF80
FFFFFFF00FFFFFFF80
FFFFFFF00FFFFFFF80
FFFFFFF00FFFFFFF80
FFFFFFF00FFFFFFF80
FFFFFFF00FFFFFFF80
FFFFFFF00FFFFFFF80
FFFFFFF00FFFFFFF80
FFFFFFF00FFFFFFF80
FFFFFFF00FFFFFFF80
FFFFFFF00FFFFFFF80
FFFFFFF00FFFFFFF80
FFFFFFF00FFFFFFF80
FFFFFFF00FFFFFFF80
FFFFFFF00FFFFFFF80
FFFFFFF00FFFFFFF80
ENDCHAR
STARTCHAR 0049
ENCODING 73
SWIDTH 321 0
DWIDTH 27 0
BBX 26 80 1 5
BITMAP
FFFFFFC0
FFFFFFC0
FFFFFFC0
FFFFFFC0
FFFFFFC0
FFFFFFC0
FFFFFFC0
FFFFFFC0
FFFFFFC0
FFFFFFC0
FFFFFFC0
FFFFFFC0
FFFFFFC0
FFFFFFC0
FFFFFFC0
FFFFFFC0
FFFFFFC0
FFFFFFC0
FFFFFFC0
FFFFFFC0
0FFFF800
0FFFF800
0FFFF800
0FFFF800
0FFFF800
0FFFF800
0FFFF800
0FFFF800
0FFFF800
0FFFF800
0FFFF800
0FFFF800
0FFFF800
0FFFF800
0FFFF800
0FFFF800
0FFFF800
0FFFF800
0FFFF800
0FFFF800
0FFFF800
0FFFF800
0FFFF800
0FFFF800
0FFFF800
0FFFF800
0FFFF800
0FFFF800
0FFFF800
0FFFF800
0FFFF800
0FFFF800
0FFFF800
0FFFF800
0FFFF800
0FFFF800
0FFFF800
0FFFF800
0FFFF800
0FFFF800
0FFFF800
FFFFFFC0
FFFFFFC0
FFFFFFC0
FFFFFFC0
FFFFFFC0
FFFFFFC0
FFFFFFC0
FFFFFFC0
FFFFFFC0
FFFFFFC0
FFFFFFC0
FFFFFFC0
FFFFFFC0
FFFFFFC0
FFFFFFC0
FFFFFFC0
FFFFFFC0
FFFFFFC0
FFFFFFC0
ENDCHAR
STARTCHAR 004A
ENCODING 74
SWIDTH 500 0
DWIDTH 42 0
BBX 48 79 0 4
BITMAP
00007FFFFFFF
00007FFFFFFF
00007FFFFFFF
00007FFFFFFF
00007FFFFFFF
00007FFFFFFF
00007FFFFFFF
00007FFFFFFF
00007FFFFFFF
00007FFFFFFF
00007FFFFFFF
00007FFFFFFF
00007FFFFFFF
00007FFFFFFF
00007FFFFFFF
00007FFFFFFF
00007FFFFFFF
00007FFFFFFF
00007FFFFFFF
000000FFFF80
000000FFFF80
000000FFFF80
000000FFFF80
000000FFFF80
000000FFFF80
000000FFFF80
000000FFFF80
000000FFFF80
000000FFFF80
000000FFFF80
000000FFFF80
000000FFFF80
000000FFFF80
000000FFFF80
000000FFFF80
000000FFFF80
000000FFFF80
000000FFFF80
000000FFFF80
000000FFFF80
000000FFFF80
000000FFFF80
000000FFFF80
000000FFFF80
000000FFFF80
000000FFFF80
000000FFFF80
000000FFFF80
000000FFFF80
FFFF80FFFF80
FFFF80FFFF80
FFFF80FFFF80
FFFF80FFFF80
FFFF80FFFF80
FFFF80FFFF80
FFFF80FFFF80
FFFF80FFFF80
FFFF80FFFF80
FFFF80FFFF80
FFFFC1FFFF80
FFFFFFFFFF80
FFFFFFFFFF80
FFFFFFFFFF80
FFFFFFFFFF80
FFFFFFFFFF80
FFFFFFFFFF80
FFFFFFFFFF80
FFFFFFFFFF00
7FFFFFFFFF00
3FFFFFFFFE00
1FFFFFFFFC00
0FFFFFFFF800
07FFFFFFF000
03FFFFFFF000
01FFFFFFE000
01FFFFFFC000
00FFFFFF8000
007FFFFF0000
003FFFFF0000
ENDCHAR
STARTCHAR 004B
ENCODING 75
SWIDTH 773 0
DWIDTH 65 0
BBX 65 79 0 4
BITMAP
FFFFFFE001FFFFFF80
FFFFFFE001FFFFFF80
FFFFFFE001FFFFFF80
FFFFFFE001FFFFFF80
FFFFFFE001FFFFFF80
FFFFFFE001FFFFFF80
FFFFFFE001FFFFFF80
FFFFFFE001FFFFFF80
FFFFFFE001FFFFFF80
FFFFFFE001FFFFFF80
FFFFFFE001FFFFFF80
FFFFFFE001FFFFFF80
FFFFFFE001FFFFFF80
FFFFFFE001FFFFFF80
FFFFFFE001FFFFFF80
FFFFFFE001FFFFFF80
FFFFFFE001FFFFFF80
FFFFFFE001FFFFFF80
FFFFFFE001FFFFFF80
07FFFE00001FFFF800
07FFFE00003FFFF000
07FFFE00007FFFE000
07FFFE0000FFFFC000
07FFFE0001FFFF8000
07FFFE0003FFFF0000
07FFFE0007FFFE0000
07FFFE000FFFFC0000
07FFFE001FFFF80000
07FFFE003FFFF00000
07FFFE007FFFE00000
07FFFE00FFFFC00000
07FFFE01FFFF800000
07FFFE03FFFF000000
07FFFE07FFFE000000
07FFFE0FFFFC000000
07FFFE1FFFF8000000
07FFFE3FFFF8000000
07FFFE7FFFF0000000
07FFFEFFFFF8000000
07FFFEFFFFFC000000
07FFFFFFFFFC000000
07FFFFFFFFFE000000
07FFFFFFFFFF000000
07FFFFFFFFFF800000
07FFFFFFFFFF800000
07FFFFFFFFFFC00000
07FFFFFFFFFFE00000
07FFFFFFFFFFE00000
07FFFFFF9FFFF00000
07FFFFFF0FFFF80000
07FFFFFE0FFFF80000
07FFFFFC07FFFC0000
07FFFFF803FFFE0000
07FFFFF001FFFE0000
07FFFFE001FFFF0000
07FFFFC000FFFF8000
07FFFF80007FFF8000
07FFFF00007FFFC000
07FFFE00003FFFE000
07FFFC00001FFFE000
FFFFFFE001FFFFFF80
FFFFFFE001FFFFFF80
FFFFFFE001FFFFFF80
FFFFFFE001FFFFFF80
FFFFFFE001FFFFFF80
FFFFFFE001FFFFFF80
FFFFFFE001FFFFFF80
FFFFFFE001FFFFFF80
FFFFFFE001FFFFFF80
FFFFFFE001FFFFFF80
FFFFFFE001FFFFFF80
FFFFFFE001FFFFFF80
FFFFFFE001FFFFFF80
FFFFFFE001FFFFFF80
FFFFFFE001FFFFFF80
FFFFFFE001FFFFFF80
FFFFFFE001FFFFFF80
FFFFFFE001FFFFFF80
FFFFFFE001FFFFFF80
ENDCHAR
STARTCHAR 004C
ENCODING 76
SWIDTH 607 0
DWIDTH 51 0
BBX 50 79 0 4
BITMAP
FFFFFFC0000000
FFFFFFC0000000
FFFFFFC0000000
FFFFFFC0000000
FFFFFFC0000000
FFFFFFC0000000
FFFFFFC0000000
FFFFFFC0000000
FFFFFFC0000000
FFFFFFC0000000
FFFFFFC0000000
FFFFFFC0000000
FFFFFFC0000000
FFFFFFC0000000
FFFFFFC0000000
FFFFFFC0000000
FFFFFFC0000000
FFFFFFC0000000
FFFFFFC0000000
0FFFF800000000
0FFFF800000000
0FFFF800000000
0FFFF800000000
0FFFF800000000
0FFFF800000000
0FFFF800000000
0FFFF800000000
0FFFF800000000
0FFFF800000000
0FFFF800000000
0FFFF800000000
0FFFF800000000
0FFFF800000000
0FFFF800000000
0FFFF800000000
0FFFF800000000
0FFFF800000000
0FFFF800000000
0FFFF800000000
0FFFF800000000
0FFFF800000000
0FFFF800000000
0FFFF800000000
0FFFF800000000
0FFFF800000000
0FFFF800000000
0FFFF800000000
0FFFF800000000
0FFFF800000000
0FFFF800000000
0FFFF800000000
0FFFF800000000
0FFFF800000000
0FFFF800000000
0FFFF800000000
0FFFF8007FFFC0
0FFFF8007FFFC0
0FFFF8007FFFC0
0FFFF8007FFFC0
0FFFF8007FFFC0
FFFFFFFFFFFFC0
FFFFFFFFFFFFC0
FFFFFFFFFFFFC0
FFFFFFFFFFFFC0
FFFFFFFFFFFFC0
FFFFFFFFFFFFC0
FFFFFFFFFFFFC0
FFFFFFFFFFFFC0
FFFFFFFFFFFFC0
FFFFFFFFFFFFC0
FFFFFFFFFFFFC0
FFFFFFFFFFFFC0
FFFFFFFFFFFFC0
FFFFFFFFFFFFC0
FFFFFFFFFFFFC0
FFFFFFFFFFFFC0
FFFFFFFFFFFFC0
FFFFFFFFFFFFC0
FFFFFFFFFFFFC0
ENDCHAR
STARTCHAR 004D
ENCODING 77
SWIDTH 845 0
DWIDTH 71 0
BBX 69 79 0 4
BITMAP
FFFFFC0000007FFFF8
FFFFFC000000FFFFF8
FFFFFE000000FFFFF8
FFFFFE000001FFFFF8
FFFFFF000001FFFFF8
FFFFFF000003FFFFF8
FFFFFF800003FFFFF8
FFFFFF800007FFFFF8
FFFFFFC00007FFFFF8
FFFFFFC0000FFFFFF8
FFFFFFE0001FFFFFF8
FFFFFFE0001FFFFFF8
FFFFFFF0003FFFFFF8
FFFFFFF0003FFFFFF8
FFFFFFF8007FFFFFF8
FFFFFFF8007FFFFFF8
FFFFFFFC00FFFFFFF8
FFFFFFFC00FFFFFFF8
FFFFFFFE01FFFFFFF8
FFFFFFFE03FFFFFFF8
0FFFFFFF03FFFFFF80
0FFFFFFF07FFFFFF80
0FFFFFFF87FFFFFF80
0FFFFFFF8FFFFFFF80
0FFFFFFFCFFFFFFF80
0FFFFFFFDFFFFFFF80
0FFFFFFFFFFFFFFF80
0FFFFFFFFFFFFFFF80
0FFFFFFFFFFFFFFF80
0FFFFFFFFFFFFFFF80
0FFFFFFFFFFFFFFF80
0FFFFFFFFFFFFFFF80
0FFFFFFFFFFFFFFF80
0FFFFFFFFFFFFFFF80
0FFFFFFFFFFFFFFF80
0FFFFFFFFFFFFFFF80
0FFFFFFFFFFFFFFF80
0FFFF7FFFFFFFFFF80
0FFFF7FFFFFF7FFF80
0FFFF3FFFFFF7FFF80
0FFFF3FFFFFE7FFF80
0FFFF1FFFFFE7FFF80
0FFFF1FFFFFC7FFF80
0FFFF0FFFFF87FFF80
0FFFF07FFFF87FFF80
0FFFF07FFFF07FFF80
0FFFF03FFFE07FFF80
0FFFF03FFFE07FFF80
0FFFF01FFFC07FFF80
0FFFF01FFFC07FFF80
0FFFF00FFF807FFF80
0FFFF00FFF007FFF80
0FFFF007FF007FFF80
0FFFF003FE007FFF80
0FFFF00000007FFF80
0FFFF00000007FFF80
0FFFF00000007FFF80
0FFFF00000007FFF80
0FFFF00000007FFF80
0FFFF00000007FFF80
FFFFFF000007FFFFF8
FFFFFF000007FFFFF8
FFFFFF000007FFFFF8
FFFFFF000007FFFFF8
FFFFFF000007FFFFF8
FFFFFF000007FFFFF8
FFFFFF000007FFFFF8
FFFFFF000007FFFFF8
FFFFFF000007FFFFF8
FFFFFF000007FFFFF8
FFFFFF000007FFFFF8
FFFFFF000007FFFFF8
FFFFFF000007FFFFF8
FFFFFF000007FFFFF8
FFFFFF000007FFFFF8
FFFFFF000007FFFFF8
FFFFFF000007FFFFF8
FFFFFF000007FFFFF8
FFFFFF000007FFFFF8
ENDCHAR
STARTCHAR 004E
ENCODING 78
SWIDTH 702 0
DWIDTH 59 0
BBX 62 80 0 5
BITMAP
FFFFF80007FFFFFC
FFFFFC0007FFFFFC
FFFFFC0007FFFFFC
FFFFFE0007FFFFFC
FFFFFE0007FFFFFC
FFFFFF0007FFFFFC
FFFFFF0007FFFFFC
FFFFFF8007FFFFFC
FFFFFF8007FFFFFC
FFFFFFC007FFFFFC
FFFFFFC007FFFFFC
FFFFFFE007FFFFFC
FFFFFFE007FFFFFC
FFFFFFF007FFFFFC
FFFFFFF007FFFFFC
FFFFFFF807FFFFFC
FFFFFFF807FFFFFC
FFFFFFFC07FFFFFC
FFFFFFFC07FFFFFC
FFFFFFFE07FFFFFC
0FFFFFFE007FFFC0
0FFFFFFF007FFFC0
0FFFFFFF007FFFC0
0FFFFFFF807FFFC0
0FFFFFFF807FFFC0
0FFFFFFFC07FFFC0
0FFFFFFFC07FFFC0
0FFFFFFFE07FFFC0
0FFFFFFFE07FFFC0
0FFFFFFFF07FFFC0
0FFFFFFFF07FFFC0
0FFFFFFFF87FFFC0
0FFFFFFFF87FFFC0
0FFFFFFFFC7FFFC0
0FFFFFFFFC7FFFC0
0FFFFFFFFE7FFFC0
0FFFFFFFFE7FFFC0
0FFFFFFFFF7FFFC0
0FFFFFFFFF7FFFC0
0FFFFFFFFFFFFFC0
0FFFFFFFFFFFFFC0
0FFFFBFFFFFFFFC0
0FFFFBFFFFFFFFC0
0FFFF9FFFFFFFFC0
0FFFF9FFFFFFFFC0
0FFFF8FFFFFFFFC0
0FFFF8FFFFFFFFC0
0FFFF87FFFFFFFC0
0FFFF87FFFFFFFC0
0FFFF83FFFFFFFC0
0FFFF83FFFFFFFC0
0FFFF81FFFFFFFC0
0FFFF81FFFFFFFC0
0FFFF80FFFFFFFC0
0FFFF80FFFFFFFC0
0FFFF807FFFFFFC0
0FFFF807FFFFFFC0
0FFFF803FFFFFFC0
0FFFF803FFFFFFC0
0FFFF801FFFFFFC0
3FFFF801FFFFFFC0
FFFFFF80FFFFFFC0
FFFFFF80FFFFFFC0
FFFFFF807FFFFFC0
FFFFFF807FFFFFC0
FFFFFF803FFFFFC0
FFFFFF803FFFFFC0
FFFFFF801FFFFFC0
FFFFFF801FFFFFC0
FFFFFF800FFFFFC0
FFFFFF800FFFFFC0
FFFFFF8007FFFFC0
FFFFFF8007FFFFC0
FFFFFF8003FFFFC0
FFFFFF8003FFFFC0
FFFFFF8001FFFFC0
FFFFFF8001FFFFC0
FFFFFF8000FFFFC0
FFFFFF8000FFFFC0
FFFFFF80007FFFC0
ENDCHAR
STARTCHAR 004F
ENCODING 79
SWIDTH 678 0
DWIDTH 57 0
BBX 57 78 0 5
BITMAP
000FFFFFFFFC0000
001FFFFFFFFE0000
003FFFFFFFFF0000
007FFFFFFFFF8000
00FFFFFFFFFFC000
01FFFFFFFFFFE000
03FFFFFFFFFFF000
03FFFFFFFFFFF800
07FFFFFFFFFFFC00
0FFFFFFFFFFFFC00
1FFFFFFFFFFFFE00
3FFFFFFFFFFFFF00
7FFFFFFFFFFFFF80
7FFFFFFFFFFFFF80
FFFFFFFFFFFFFF80
FFFFFFFFFFFFFF80
FFFFF80007FFFF80
FFFFF00003FFFF80
FFFFE00001FFFF80
FFFFC00000FFFF80
FFFF800000FFFF80
FFFF800000FFFF80
FFFF800000FFFF80
FFFF800000FFFF80
FFFF800000FFFF80
FFFF800000FFFF80
FFFF800000FFFF80
FFFF800000FFFF80
FFFF800000FFFF80
FFFF800000FFFF80
FFFF800000FFFF80
FFFF800000FFFF80
FFFF800000FFFF80
FFFF800000FFFF80
FFFF800000FFFF80
FFFF800000FFFF80
FFFF800000FFFF80
FFFF800000FFFF80
FFFF800000FFFF80
FFFF800000FFFF80
FFFF800000FFFF80
FFFF800000FFFF80
FFFF800000FFFF80
FFFF800000FFFF80
FFFF800000FFFF80
FFFF800000FFFF80
FFFF800000FFFF80
FFFF800000FFFF80
FFFF800000FFFF80
FFFF800000FFFF80
FFFF800000FFFF80
FFFF800000FFFF80
FFFF800000FFFF80
FFFF800000FFFF80
FFFF800000FFFF80
FFFF800000FFFF80
FFFF800000FFFF80
FFFF800000FFFF80
FFFFC00001FFFF80
FFFFE00003FFFF80
FFFFF00007FFFF80
FFFFF80007FFFF80
FFFFFFFFFFFFFF80
FFFFFFFFFFFFFF80
FFFFFFFFFFFFFF80
7FFFFFFFFFFFFF80
3FFFFFFFFFFFFF00
3FFFFFFFFFFFFE00
1FFFFFFFFFFFFC00
0FFFFFFFFFFFF800
07FFFFFFFFFFF800
03FFFFFFFFFFF000
01FFFFFFFFFFE000
00FFFFFFFFFFC000
007FFFFFFFFF8000
003FFFFFFFFF0000
001FFFFFFFFE0000
001FFFFFFFFE0000
ENDCHAR
STARTCHAR 0050
ENCODING 80
SWIDTH 678 0
DWIDTH 57 0
BBX 56 79 1 5
BITMAP
FFFFFFFFFFF000
FFFFFFFFFFF800
FFFFFFFFFFFC00
FFFFFFFFFFFE00
FFFFFFFFFFFE00
FFFFFFFFFFFF00
FFFFFFFFFFFF80
FFFFFFFFFFFF80
FFFFFFFFFFFFC0
FFFFFFFFFFFFE0
FFFFFFFFFFFFF0
FFFFFFFFFFFFF0
FFFFFFFFFFFFF8
FFFFFFFFFFFFFC
FFFFFFFFFFFFFE
FFFFF80003FFFE
FFFFF80001FFFF
FFFFF80000FFFF
FFFFF800007FFF
FFFFF800007FFF
FFFFF800007FFF
07FFF800007FFF
07FFF800007FFF
07FFF800007FFF
07FFF800007FFF
07FFF800007FFF
07FFF800007FFF
07FFF800007FFF
07FFF800007FFF
07FFF800007FFF
07FFF800007FFF
07FFF800007FFF
07FFF80000FFFF
07FFF80001FFFF
07FFF80003FFFF
07FFF80003FFFF
07FFFFFFFFFFFF
07FFFFFFFFFFFF
07FFFFFFFFFFFE
07FFFFFFFFFFFC
07FFFFFFFFFFF8
07FFFFFFFFFFF8
07FFFFFFFFFFF0
07FFFFFFFFFFE0
07FFFFFFFFFFC0
07FFFFFFFFFF80
07FFFFFFFFFF00
07FFFFFFFFFF00
07FFFFFFFFFE00
07FFFFFFFFFC00
07FFFFFFFFF800
07FFF800000000
07FFF800000000
07FFF800000000
07FFF800000000
07FFF800000000
07FFF800000000
07FFF800000000
07FFF800000000
07FFF800000000
FFFFFFC0000000
FFFFFFC0000000
FFFFFFC0000000
FFFFFFC0000000
FFFFFFC0000000
FFFFFFC0000000
FFFFFFC0000000
FFFFFFC0000000
FFFFFFC0000000
FFFFFFC0000000
FFFFFFC0000000
FFFFFFC0000000
FFFFFFC0000000
FFFFFFC0000000
FFFFFFC0000000
FFFFFFC0000000
FFFFFFC0000000
FFFFFFC0000000
FFFFFFC0000000
ENDCHAR
STARTCHAR 0051
ENCODING 81
SWIDTH 750 0
DWIDTH 63 0
BBX 60 82 1 2
BITMAP
001FFFFFFFFC0000
003FFFFFFFFC0000
003FFFFFFFFE0000
007FFFFFFFFF0000
00FFFFFFFFFF8000
01FFFFFFFFFFC000
03FFFFFFFFFFE000
03FFFFFFFFFFF000
07FFFFFFFFFFF800
0FFFFFFFFFFFFC00
1FFFFFFFFFFFFE00
3FFFFFFFFFFFFF00
7FFFFFFFFFFFFF00
7FFFFFFFFFFFFF00
FFFFFFFFFFFFFF00
FFFFFFFFFFFFFF00
FFFFE0000FFFFF00
FFFFC00007FFFF00
FFFF800003FFFF00
FFFF000001FFFF00
FFFF000000FFFF00
FFFF000000FFFF00
FFFF000000FFFF00
FFFF000000FFFF00
FFFF000000FFFF00
FFFF000000FFFF00
FFFF000000FFFF00
FFFF000000FFFF00
FFFF000000FFFF00
FFFF000000FFFF00
FFFF000000FFFF00
FFFF000000FFFF00
FFFF000000FFFF00
FFFF000000FFFF00
FFFF000000FFFF00
FFFF000000FFFF00
FFFF000000FFFF00
FFFF000000FFFF00
FFFF000000FFFF00
FFFF000000FFFF00
FFFF000000FFFF00
FFFF000000FFFF00
FFFF000000FFFF00
FFFF000000FFFF00
FFFF000000FFFF00
FFFF000000FFFF00
FFFF000000FFFF00
FFFF000000FFFF00
FFFF000000FFFF00
FFFF000000FFFF00
FFFF000000FFFF00
FFFF000000FFFF00
FFFF000000FFFF00
FFFF000000FFFF00
FFFF000000FFFF00
FFFF000000FFFF00
FFFF000000FFFF00
FFFF800001FFFF00
FFFFC00003FFFF00
FFFFE00007FFFF00
FFFFF0000FFFFF00
FFFFFFFFFFFFFF00
FFFFFFFFFFFFFF00
FFFFFFFFFFFFFF00
FFFFFFFFFFFFFF00
FFFFFFFFFFFFFF00
FFFFFFFFFFFFFF00
7FFFFFFFFFFFFE00
3FFFFFFFFFFFFC00
1FFFFFFFFFFFFE00
0FFFFFFFFFFFFF00
07FFFFFFFFFFFF80
07FFFFFFFFFFFFC0
03FFFFFFFFFFFFE0
01FFFFFFFFFFFFF0
00FFFFFFFFFFFFF0
007FFFFFFFFE7FF0
003FFFFFFFFE3FE0
003FFFFFFFFC1FC0
0000000000000F80
0000000000000700
0000000000000200
ENDCHAR
STARTCHAR 0052
ENCODING 82
SWIDTH 666 0
DWIDTH 56 0
BBX 55 79 0 5
BITMAP
FFFFFFFFFFC000
FFFFFFFFFFE000
FFFFFFFFFFF000
FFFFFFFFFFF800
FFFFFFFFFFFC00
FFFFFFFFFFFE00
FFFFFFFFFFFF00
FFFFFFFFFFFF80
FFFFFFFFFFFFC0
FFFFFFFFFFFFE0
FFFFFFFFFFFFF0
FFFFFFFFFFFFF8
FFFFFFFFFFFFF8
FFFFFFFFFFFFF8
FFFFFFFFFFFFF8
FFFFFFFFFFFFF8
FFFFF801FFFFF8
FFFFF800FFFFF8
FFFFF8007FFFF8
0FFFF8001FFFF8
0FFFF8001FFFF8
0FFFF8001FFFF8
0FFFF8001FFFF8
0FFFF8001FFFF8
0FFFF8001FFFF8
0FFFF8001FFFF8
0FFFF8003FFFF8
0FFFF8007FFFF8
0FFFF800FFFFF8
0FFFF801FFFFF8
0FFFFFFFFFFFF8
0FFFFFFFFFFFF8
0FFFFFFFFFFFF8
0FFFFFFFFFFFF8
0FFFFFFFFFFFF8
0FFFFFFFFFFFF8
0FFFFFFFFFFFF0
0FFFFFFFFFFFE0
0FFFFFFFFFFFC0
0FFFFFFFFFFF00
0FFFFFFFFFFE00
0FFFFFFFFFFC00
0FFFFFFFFFF800
0FFFFFFFFFF000
0FFFFFFFFFF000
0FFFFFFFFFF800
0FFFFFFFFFF800
0FFFFFFFFFFC00
0FFFF807FFFC00
0FFFF803FFFC00
0FFFF803FFFE00
0FFFF801FFFE00
0FFFF801FFFF00
0FFFF800FFFF00
0FFFF800FFFF80
0FFFF800FFFF80
0FFFF8007FFF80
0FFFF8007FFFC0
0FFFF8003FFFC0
0FFFF8003FFFE0
FFFFFF81FFFFFE
FFFFFF81FFFFFE
FFFFFF81FFFFFE
FFFFFF81FFFFFE
FFFFFF81FFFFFE
FFFFFF81FFFFFE
FFFFFF81FFFFFE
FFFFFF81FFFFFE
FFFFFF81FFFFFE
FFFFFF81FFFFFE
FFFFFF81FFFFFE
FFFFFF81FFFFFE
FFFFFF81FFFFFE
FFFFFF81FFFFFE
FFFFFF81FFFFFE
FFFFFF81FFFFFE
FFFFFF81FFFFFE
FFFFFF81FFFFFE
FFFFFF81FFFFFE
ENDCHAR
STARTCHAR 0053
ENCODING 83
SWIDTH 642 0
DWIDTH 54 0
BBX 52 79 0 5
BITMAP
001FFFFFFF8000
003FFFFFFFC000
003FFFFFFFE000
007FFFFFFFF000
00FFFFFFFFF800
01FFFFFFFFFC00
03FFFFFFFFFE00
07FFFFFFFFFF00
0FFFFFFFFFFF80
0FFFFFFFFFFFC0
1FFFFFFFFFFFE0
3FFFFFFFFFFFF0
7FFFFFFFFFFFF0
FFFFFFFFFFFFF0
FFFFE0003FFFF0
FFFFC0001FFFF0
FFFF80000FFFF0
FFFF80000FFFF0
FFFF80000FFFF0
FFFF80000FFFF0
FFFF80000FFFF0
FFFF80000FFFF0
FFFF80000FFFF0
FFFF80000FFFF0
FFFF80000FFFF0
FFFF8000000000
FFFF8000000000
FFFF8000000000
FFFF8000000000
FFFF8000000000
FFFFC000000000
FFFFC000000000
FFFFFFFFFFF000
FFFFFFFFFFF800
FFFFFFFFFFFC00
7FFFFFFFFFFE00
3FFFFFFFFFFF00
1FFFFFFFFFFF80
0FFFFFFFFFFF80
07FFFFFFFFFFC0
07FFFFFFFFFFE0
03FFFFFFFFFFF0
01FFFFFFFFFFF0
00FFFFFFFFFFF0
007FFFFFFFFFF0
003FFFFFFFFFF0
000000003FFFF0
000000001FFFF0
000000000FFFF0
000000000FFFF0
000000000FFFF0
000000000FFFF0
FFFF00000FFFF0
FFFF00000FFFF0
FFFF00000FFFF0
FFFF00000FFFF0
FFFF00000FFFF0
FFFF00000FFFF0
FFFF00000FFFF0
FFFF00000FFFF0
FFFF00000FFFF0
FFFF80001FFFF0
FFFFC0001FFFF0
FFFFE0003FFFF0
FFFFFFFFFFFFF0
FFFFFFFFFFFFF0
FFFFFFFFFFFFF0
FFFFFFFFFFFFE0
7FFFFFFFFFFFC0
3FFFFFFFFFFF80
1FFFFFFFFFFF00
0FFFFFFFFFFE00
07FFFFFFFFFC00
03FFFFFFFFF800
01FFFFFFFFF000
00FFFFFFFFE000
007FFFFFFFC000
003FFFFFFF8000
001FFFFFFF0000
ENDCHAR
STARTCHAR 0054
ENCODING 84
SWIDTH 321 0
DWIDTH 27 0
BBX 56 79 -15 4
BITMAP
FFFFFFFFFFFFFF
FFFFFFFFFFFFFF
FFFFFFFFFFFFFF
FFFFFFFFFFFFFF
FFFFFFFFFFFFFF
FFFFFFFFFFFFFF
FFFFFFFFFFFFFF
FFFFFFFFFFFFFF
FFFFFFFFFFFFFF
FFFFFFFFFFFFFF
FFFFFFFFFFFFFF
FFFFFFFFFFFFFF
FFFFFFFFFFFFFF
FFFFFFFFFFFFFF
FFFFFFFFFFFFFF
FFFFFFFFFFFFFF
FFFFFFFFFFFFFF
FFFFFFFFFFFFFF
FFFFFFFFFFFFFF
FFFFFFFFFFFFFF
FFFF1FFFF1FFFF
FFFF1FFFF1FFFF
FFFF1FFFF1FFFF
FFFF1FFFF1FFFF
FFFF1FFFF00000
00001FFFF00000
00001FFFF00000
00001FFFF00000
00001FFFF00000
00001FFFF00000
00001FFFF00000
00001FFFF00000
00001FFFF00000
00001FFFF00000
00001FFFF00000
00001FFFF00000
00001FFFF00000
00001FFFF00000
00001FFFF00000
00001FFFF00000
00001FFFF00000
00001FFFF00000
00001FFFF00000
00001FFFF00000
00001FFFF00000
00001FFFF00000
00001FFFF00000
00001FFFF00000
00001FFFF00000
00001FFFF00000
00001FFFF00000
00001FFFF00000
00001FFFF00000
00001FFFF00000
00001FFFF00000
00001FFFF00000
00001FFFF00000
00001FFFF00000
00001FFFF00000
00001FFFF00000
0003FFFFFF8000
0003FFFFFF8000
0003FFFFFF8000
0003FFFFFF8000
0003FFFFFF8000
0003FFFFFF8000
0003FFFFFF8000
0003FFFFFF8000
0003FFFFFF8000
0003FFFFFF8000
0003FFFFFF8000
0003FFFFFF8000
0003FFFFFF8000
0003FFFFFF8000
0003FFFFFF8000
0003FFFFFF8000
0003FFFFFF8000
0003FFFFFF8000
0003FFFFFF8000
ENDCHAR
STARTCHAR 0055
ENCODING 85
SWIDTH 654 0
DWIDTH 55 0
BBX 63 79 -4 4
BITMAP
FFFFFFC007FFFFFE
FFFFFFC007FFFFFE
FFFFFFC007FFFFFE
FFFFFFC007FFFFFE
FFFFFFC007FFFFFE
FFFFFFC007FFFFFE
FFFFFFC007FFFFFE
FFFFFFC007FFFFFE
FFFFFFC007FFFFFE
FFFFFFC007FFFFFE
FFFFFFC007FFFFFE
FFFFFFC007FFFFFE
FFFFFFC007FFFFFE
FFFFFFC007FFFFFE
FFFFFFC007FFFFFE
FFFFFFC007FFFFFE
FFFFFFC007FFFFFE
FFFFFFC007FFFFFE
FFFFFFC007FFFFFE
0FFFFC00007FFFE0
0FFFFC00007FFFE0
0FFFFC00007FFFE0
0FFFFC00007FFFE0
0FFFFC00007FFFE0
0FFFFC00007FFFE0
0FFFFC00007FFFE0
0FFFFC00007FFFE0
0FFFFC00007FFFE0
0FFFFC00007FFFE0
0FFFFC00007FFFE0
0FFFFC00007FFFE0
0FFFFC00007FFFE0
0FFFFC00007FFFE0
0FFFFC00007FFFE0
0FFFFC00007FFFE0
0FFFFC00007FFFE0
0FFFFC00007FFFE0
0FFFFC00007FFFE0
0FFFFC00007FFFE0
0FFFFC00007FFFE0
0FFFFC00007FFFE0
0FFFFC00007FFFE0
0FFFFC00007FFFE0
0FFFFC00007FFFE0
0FFFFC00007FFFE0
0FFFFC00007FFFE0
0FFFFC00007FFFE0
0FFFFC00007FFFE0
0FFFFC00007FFFE0
0FFFFC00007FFFE0
0FFFFC00007FFFE0
0FFFFC00007FFFE0
0FFFFC00007FFFE0
0FFFFC00007FFFE0
0FFFFC00007FFFE0
0FFFFC00007FFFE0
0FFFFC00007FFFE0
0FFFFC00007FFFE0
0FFFFC00007FFFE0
0FFFFC00007FFFE0
0FFFFFFFFFFFFFE0
0FFFFFFFFFFFFFE0
0FFFFFFFFFFFFFE0
0FFFFFFFFFFFFFE0
07FFFFFFFFFFFFE0
03FFFFFFFFFFFFC0
03FFFFFFFFFFFF80
01FFFFFFFFFFFF00
00FFFFFFFFFFFE00
007FFFFFFFFFFC00
003FFFFFFFFFFC00
001FFFFFFFFFF800
000FFFFFFFFFF000
0007FFFFFFFFE000
0003FFFFFFFFC000
0001FFFFFFFF8000
0000FFFFFFFF8000
00007FFFFFFF0000
00003FFFFFFE0000
ENDCHAR
STARTCHAR 0056
ENCODING 86
SWIDTH 500 0
DWIDTH 42 0
BBX 60 79 -9 4
BITMAP
FFFFFFE0FFFFFFF0
FFFFFFE0FFFFFFF0
FFFFFFE0FFFFFFF0
FFFFFFE0FFFFFFF0
FFFFFFE0FFFFFFF0
FFFFFFE0FFFFFFF0
FFFFFFE0FFFFFFF0
FFFFFFE0FFFFFFF0
FFFFFFE0FFFFFFF0
FFFFFFE0FFFFFFF0
FFFFFFE0FFFFFFF0
FFFFFFE0FFFFFFF0
FFFFFFE0FFFFFFF0
FFFFFFE0FFFFFFF0
FFFFFFE0FFFFFFF0
FFFFFFE0FFFFFFF0
FFFFFFE0FFFFFFF0
FFFFFFE0FFFFFFF0
FFFFFFE0FFFFFFF0
01FFFE000FFFF800
01FFFF001FFFF800
01FFFF001FFFF000
00FFFF001FFFF000
00FFFF001FFFF000
00FFFF001FFFF000
00FFFF803FFFE000
007FFF803FFFE000
007FFF803FFFE000
007FFF803FFFE000
007FFF807FFFC000
003FFFC07FFFC000
003FFFC07FFFC000
003FFFC07FFF8000
003FFFC07FFF8000
003FFFC0FFFF8000
001FFFE0FFFF8000
001FFFE0FFFF0000
001FFFE0FFFF0000
001FFFE1FFFF0000
000FFFE1FFFF0000
000FFFF1FFFE0000
000FFFF1FFFE0000
000FFFF1FFFE0000
0007FFF3FFFE0000
0007FFFBFFFC0000
0007FFFBFFFC0000
0007FFFBFFFC0000
0003FFFFFFFC0000
0003FFFFFFF80000
0003FFFFFFF80000
0003FFFFFFF80000
0001FFFFFFF80000
0001FFFFFFF00000
0001FFFFFFF00000
0001FFFFFFF00000
0001FFFFFFF00000
0000FFFFFFE00000
0000FFFFFFE00000
0000FFFFFFE00000
0000FFFFFFE00000
00007FFFFFC00000
00007FFFFFC00000
00007FFFFFC00000
00007FFFFFC00000
00003FFFFF800000
00003FFFFF800000
00003FFFFF800000
00003FFFFF800000
00001FFFFF000000
00001FFFFF000000
00001FFFFF000000
00001FFFFF000000
00000FFFFE000000
00000FFFFE000000
00000FFFFE000000
00000FFFFE000000
000007FFFC000000
000007FFFC000000
000007FFFC000000
ENDCHAR
STARTCHAR 0057
ENCODING 87
SWIDTH 750 0
DWIDTH 63 0
BBX 78 80 -8 5
BITMAP
FFFFFFC07FE00FFFFFFC
FFFFFFC07FE00FFFFFFC
FFFFFFC07FE00FFFFFFC
FFFFFFC07FF00FFFFFFC
FFFFFFC0FFF00FFFFFFC
FFFFFFC0FFF00FFFFFFC
FFFFFFC0FFF00FFFFFFC
FFFFFFC0FFF00FFFFFFC
FFFFFFC0FFF80FFFFFFC
FFFFFFC0FFF80FFFFFFC
FFFFFFC1FFF80FFFFFFC
FFFFFFC1FFF80FFFFFFC
FFFFFFC1FFF80FFFFFFC
FFFFFFC1FFF80FFFFFFC
FFFFFFC1FFFC0FFFFFFC
FFFFFFC3FFFC0FFFFFFC
FFFFFFC3FFFC0FFFFFFC
FFFFFFC3FFFC0FFFFFFC
FFFFFFC3FFFC0FFFFFFC
FFFFFFC3FFFE0FFFFFFC
07FFF803FFFE00FFFF00
03FFF807FFFE01FFFF00
03FFFC07FFFE01FFFF00
03FFFC07FFFE01FFFE00
03FFFC07FFFF01FFFE00
03FFFC07FFFF01FFFE00
03FFFE07FFFF03FFFE00
01FFFE0FFFFF03FFFE00
01FFFE0FFFFF03FFFC00
01FFFE0FFFFF83FFFC00
01FFFF0FFFFF87FFFC00
01FFFF0FFFFF87FFFC00
00FFFF0FFFFF87FFFC00
00FFFF1FFFFF87FFF800
00FFFF1FFFFFC7FFF800
00FFFF9FFFFFCFFFF800
00FFFF9FFFFFCFFFF800
007FFF9FFFFFCFFFF800
007FFF9FFFFFCFFFF000
007FFFFFFFFFFFFFF000
007FFFFFFFFFFFFFF000
007FFFFFFFFFFFFFF000
003FFFFFFFFFFFFFF000
003FFFFFFFFFFFFFE000
003FFFFFFFFFFFFFE000
003FFFFFFFFFFFFFE000
003FFFFFFFFFFFFFE000
001FFFFFFFFFFFFFE000
001FFFFFFFFFFFFFC000
001FFFFFFFFFFFFFC000
001FFFFFFFFFFFFFC000
001FFFFFF9FFFFFFC000
000FFFFFF9FFFFFFC000
000FFFFFF9FFFFFF8000
000FFFFFF9FFFFFF8000
000FFFFFF9FFFFFF8000
000FFFFFF8FFFFFF8000
000FFFFFF0FFFFFF8000
0007FFFFF0FFFFFF8000
0007FFFFF0FFFFFF0000
0007FFFFF07FFFFF0000
0007FFFFF07FFFFF0000
0007FFFFE07FFFFF0000
0003FFFFE07FFFFF0000
0003FFFFE07FFFFE0000
0003FFFFE03FFFFE0000
0003FFFFE03FFFFE0000
0003FFFFE03FFFFE0000
0001FFFFC03FFFFE0000
0001FFFFC03FFFFC0000
0001FFFFC01FFFFC0000
0001FFFFC01FFFFC0000
0001FFFFC01FFFFC0000
0000FFFF801FFFFC0000
0000FFFF800FFFF80000
0000FFFF800FFFF80000
0000FFFF800FFFF80000
0000FFFF800FFFF80000
00007FFF800FFFF80000
00007FFF0007FFF80000
ENDCHAR
STARTCHAR 0058
ENCODING 88
SWIDTH 726 0
DWIDTH 61 0
BBX 61 79 0 4
BITMAP
FFFFFFE07FFFFFF8
FFFFFFE07FFFFFF8
FFFFFFE07FFFFFF8
FFFFFFE07FFFFFF8
FFFFFFE07FFFFFF8
FFFFFFE07FFFFFF8
FFFFFFE07FFFFFF8
FFFFFFE07FFFFFF8
FFFFFFE07FFFFFF8
FFFFFFE07FFFFFF8
FFFFFFE07FFFFFF8
FFFFFFE07FFFFFF8
FFFFFFE07FFFFFF8
FFFFFFE07FFFFFF8
FFFFFFE07FFFFFF8
FFFFFFE07FFFFFF8
FFFFFFE07FFFFFF8
FFFFFFE07FFFFFF8
FFFFFFE07FFFFFF8
03FFFC0003FFFE00
01FFFE0007FFFC00
01FFFF0007FFF800
00FFFF000FFFF800
00FFFF801FFFF000
007FFFC01FFFE000
003FFFC03FFFC000
003FFFE07FFFC000
001FFFE0FFFF8000
000FFFF0FFFF0000
000FFFF9FFFF0000
0007FFFBFFFE0000
0003FFFFFFFC0000
0003FFFFFFF80000
0001FFFFFFF80000
0000FFFFFFF00000
0000FFFFFFE00000
00007FFFFFE00000
00003FFFFFC00000
00003FFFFF800000
00003FFFFF800000
00003FFFFFC00000
00007FFFFFC00000
0000FFFFFFE00000
0000FFFFFFF00000
0001FFFFFFF00000
0001FFFFFFF80000
0003FFFFFFFC0000
0007FFFFFFFC0000
0007FFFFFFFE0000
000FFFF9FFFF0000
000FFFF1FFFF0000
001FFFF0FFFF8000
003FFFE07FFFC000
003FFFE03FFFC000
007FFFC03FFFE000
007FFF801FFFF000
00FFFF800FFFF000
01FFFF000FFFF800
01FFFE0007FFFC00
03FFFE0003FFFC00
FFFFFFE07FFFFFF8
FFFFFFE07FFFFFF8
FFFFFFE07FFFFFF8
FFFFFFE07FFFFFF8
FFFFFFE07FFFFFF8
FFFFFFE07FFFFFF8
FFFFFFE07FFFFFF8
FFFFFFE07FFFFFF8
FFFFFFE07FFFFFF8
FFFFFFE07FFFFFF8
FFFFFFE07FFFFFF8
FFFFFFE07FFFFFF8
FFFFFFE07FFFFFF8
FFFFFFE07FFFFFF8
FFFFFFE07FFFFFF8
FFFFFFE07FFFFFF8
FFFFFFE07FFFFFF8
FFFFFFE07FFFFFF8
FFFFFFE07FFFFFF8
ENDCHAR
STARTCHAR 0059
ENCODING 89
SWIDTH 404 0
DWIDTH 34 0
BBX 54 79 -10 6
BITMAP
FFFFFF07FFFFFC
FFFFFF07FFFFFC
FFFFFF07FFFFFC
FFFFFF07FFFFFC
FFFFFF07FFFFFC
FFFFFF07FFFFFC
FFFFFF07FFFFFC
FFFFFF07FFFFFC
FFFFFF07FFFFFC
FFFFFF07FFFFFC
FFFFFF07FFFFFC
FFFFFF07FFFFFC
FFFFFF07FFFFFC
FFFFFF07FFFFFC
FFFFFF07FFFFFC
FFFFFF07FFFFFC
FFFFFF07FFFFFC
FFFFFF07FFFFFC
FFFFFF07FFFFFC
07FFFC01FFFF80
07FFFC01FFFF00
03FFFC01FFFF00
03FFFE03FFFE00
03FFFE03FFFE00
01FFFF07FFFC00
01FFFF07FFFC00
00FFFF8FFFF800
00FFFF8FFFF800
007FFFDFFFF000
007FFFDFFFF000
003FFFFFFFF000
003FFFFFFFE000
001FFFFFFFE000
001FFFFFFFC000
000FFFFFFFC000
000FFFFFFF8000
0007FFFFFF8000
0007FFFFFF0000
0003FFFFFF0000
0003FFFFFE0000
0001FFFFFE0000
0001FFFFFC0000
0000FFFFFC0000
0000FFFFF80000
00007FFFF80000
00007FFFF00000
00003FFFF00000
00003FFFE00000
00003FFFE00000
00003FFFE00000
00003FFFE00000
00003FFFE00000
00003FFFE00000
00003FFFE00000
00003FFFE00000
00003FFFE00000
00003FFFE00000
00003FFFE00000
00003FFFE00000
00003FFFE00000
0007FFFFFF0000
0007FFFFFF0000
0007FFFFFF0000
0007FFFFFF0000
0007FFFFFF0000
0007FFFFFF0000
0007FFFFFF0000
0007FFFFFF0000
0007FFFFFF0000
0007FFFFFF0000
0007FFFFFF0000
0007FFFFFF0000
0007FFFFFF0000
0007FFFFFF0000
0007FFFFFF0000
0007FFFFFF0000
0007FFFFFF0000
0007FFFFFF0000
0007FFFFFF0000
ENDCHAR
STARTCHAR 005A
ENCODING 90
SWIDTH 678 0
DWIDTH 57 0
BBX 56 80 1 5
BITMAP
FFFFFFFFFFFFFE
FFFFFFFFFFFFFE
FFFFFFFFFFFFFE
FFFFFFFFFFFFFE
FFFFFFFFFFFFFE
FFFFFFFFFFFFFE
FFFFFFFFFFFFFE
FFFFFFFFFFFFFE
FFFFFFFFFFFFFE
FFFFFFFFFFFFFE
FFFFFFFFFFFFFE
FFFFFFFFFFFFFE
FFFFFFFFFFFFFE
FFFFFFFFFFFFFE
FFFFFFFFFFFFFE
FFFFFFFFFFFFFE
FFFFFFFFFFFFFE
FFFFFFFFFFFFFE
FFFFFFFFFFFFFE
FFFFFFFFFFFFFE
FFFC0000FFFFFC
FFFC0001FFFFF8
FFFC0001FFFFF8
FFFC0003FFFFF0
00000007FFFFE0
0000000FFFFFC0
0000001FFFFF80
0000001FFFFF80
0000003FFFFF00
0000007FFFFE00
000000FFFFFC00
000001FFFFF800
000001FFFFF000
000003FFFFF000
000007FFFFE000
00000FFFFFC000
00001FFFFF8000
00003FFFFF0000
00003FFFFF0000
00007FFFFE0000
0000FFFFFC0000
0001FFFFF80000
0003FFFFF00000
0003FFFFF00000
0007FFFFE00000
000FFFFFC00000
001FFFFF800000
003FFFFF000000
003FFFFF000000
007FFFFE000000
00FFFFFC000000
01FFFFF8000000
03FFFFF0000000
03FFFFF0000000
07FFFFE0000000
0FFFFFC0000000
1FFFFF8001FFFF
3FFFFF0001FFFF
7FFFFF0001FFFF
7FFFFE0001FFFF
FFFFFC0001FFFF
FFFFFFFFFFFFFF
FFFFFFFFFFFFFF
FFFFFFFFFFFFFF
FFFFFFFFFFFFFF
FFFFFFFFFFFFFF
FFFFFFFFFFFFFF
FFFFFFFFFFFFFF
FFFFFFFFFFFFFF
FFFFFFFFFFFFFF
FFFFFFFFFFFFFF
FFFFFFFFFFFFFF
FFFFFFFFFFFFFF
FFFFFFFFFFFFFF
FFFFFFFFFFFFFF
FFFFFFFFFFFFFF
FFFFFFFFFFFFFF
FFFFFFFFFFFFFF
FFFFFFFFFFFFFF
FFFFFFFFFFFFFF
ENDCHAR
STARTCHAR 005B
ENCODING 91
SWIDTH 226 0
DWIDTH 19 0
BBX 19 80 0 5
BITMAP
FFFFE0
FFFFE0
FFFFE0
FFFFE0
FFFFE0
FFFFE0
FFFFE0
FFFFE0
FFFFE0
FFFFE0
FFFFE0
FFFFE0
FFFFE0
FFFFE0
FFFFE0
FFFFE0
FFF800
FFF800
FFF800
FFF800
FFF800
FFF800
FFF800
FFF800
FFF800
FFF800
FFF800
FFF800
FFF800
FFF800
FFF800
FFF800
FFF800
FFF800
FFF800
FFF800
FFF800
FFF800
FFF800
FFF800
FFF800
FFF800
FFF800
FFF800
FFF800
FFF800
FFF800
FFF800
FFF800
FFF800
FFF800
FFF800
FFF800
FFF800
FFF800
FFF800
FFF800
FFF800
FFF800
FFF800
FFF800
FFF800
FFF800
FFF800
FFF800
FFFFE0
FFFFE0
FFFFE0
FFFFE0
FFFFE0
FFFFE0
FFFFE0
FFFFE0
FFFFE0
FFFFE0
FFFFE0
FFFFE0
FFFFE0
FFFFE0
FFFFE0
ENDCHAR
STARTCHAR 005C
ENCODING 92
SWIDTH 500 0
DWIDTH 42 0
BBX 0 0 0 0
BITMAP
ENDCHAR
STARTCHAR 005D
ENCODING 93
SWIDTH 250 0
DWIDTH 21 0
BBX 19 80 0 5
BITMAP
FFFFE0
FFFFE0
FFFFE0
FFFFE0
FFFFE0
FFFFE0
FFFFE0
FFFFE0
FFFFE0
FFFFE0
FFFFE0
FFFFE0
FFFFE0
FFFFE0
FFFFE0
FFFFE0
01FFE0
01FFE0
01FFE0
01FFE0
01FFE0
01FFE0
01FFE0
01FFE0
01FFE0
01FFE0
01FFE0
01FFE0
01FFE0
01FFE0
01FFE0
01FFE0
01FFE0
01FFE0
01FFE0
01FFE0
01FFE0
01FFE0
01FFE0
01FFE0
01FFE0
01FFE0
01FFE0
01FFE0
01FFE0
01FFE0
01FFE0
01FFE0
01FFE0
01FFE0
01FFE0
01FFE0
01FFE0
01FFE0
01FFE0
01FFE0
01FFE0
01FFE0
01FFE0
01FFE0
01FFE0
01FFE0
01FFE0
01FFE0
01FFE0
7FFFE0
7FFFE0
7FFFE0
7FFFE0
7FFFE0
7FFFE0
7FFFE0
7FFFE0
7FFFE0
7FFFE0
7FFFE0
7FFFE0
7FFFE0
7FFFE0
7FFFE0
ENDCHAR
STARTCHAR 005E
ENCODING 94
SWIDTH 500 0
DWIDTH 42 0
BBX 0 0 0 0
BITMAP
ENDCHAR
STARTCHAR 005F
ENCODING 95
SWIDTH 500 0
DWIDTH 42 0
BBX 0 0 0 0
BITMAP
ENDCHAR
STARTCHAR 0060
ENCODING 96
SWIDTH 500 0
DWIDTH 42 0
BBX 0 0 0 0
BITMAP
ENDCHAR
STARTCHAR 0061
ENCODING 97
SWIDTH 773 0
DWIDTH 65 0
BBX 64 79 1 5
BITMAP
000001FFFF800000
000001FFFF800000
000003FFFF800000
000003FFFFC00000
000003FFFFC00000
000007FFFFC00000
000007FFFFE00000
000007FFFFE00000
000007FFFFE00000
00000FFFFFE00000
00000FFFFFF00000
00000FFFFFF00000
00000FFFFFF00000
00001FFFFFF00000
00001FFFFFF80000
00001FFFFFF80000
00003FFFFFF80000
00003FFFFFF80000
00003FFFFFFC0000
00003FFFFFFC0000
00007FFFFFFC0000
00007FFFFFFE0000
00007FFFFFFE0000
00007FFFFFFE0000
0000FFFFFFFE0000
0000FFFFFFFF0000
0000FFFFFFFF0000
0001FFFEFFFF0000
0001FFFEFFFF0000
0001FFFEFFFF8000
0001FFFC7FFF8000
0003FFFC7FFF8000
0003FFFC7FFF8000
0003FFFC7FFFC000
0007FFF83FFFC000
0007FFF83FFFC000
0007FFF83FFFE000
0007FFF01FFFE000
000FFFFFFFFFE000
000FFFFFFFFFE000
000FFFFFFFFFF000
000FFFFFFFFFF000
001FFFFFFFFFF000
001FFFFFFFFFF000
001FFFFFFFFFF800
003FFFFFFFFFF800
003FFFFFFFFFF800
003FFFFFFFFFFC00
003FFFFFFFFFFC00
007FFFFFFFFFFC00
007FFFFFFFFFFC00
007FFFFFFFFFFE00
007FFFFFFFFFFE00
00FFFFFFFFFFFE00
00FFFFFFFFFFFE00
00FFFF8003FFFF00
01FFFF8001FFFF00
01FFFF8001FFFF00
01FFFF0001FFFF80
01FFFF0000FFFF80
FFFFFFF00FFFFFFF
FFFFFFF00FFFFFFF
FFFFFFF00FFFFFFF
FFFFFFF00FFFFFFF
FFFFFFF00FFFFFFF
FFFFFFF00FFFFFFF
FFFFFFF00FFFFFFF
FFFFFFF00FFFFFFF
FFFFFFF00FFFFFFF
FFFFFFF00FFFFFFF
FFFFFFF00FFFFFFF
FFFFFFF00FFFFFFF
FFFFFFF00FFFFFFF
FFFFFFF00FFFFFFF
FFFFFFF00FFFFFFF
FFFFFFF00FFFFFFF
FFFFFFF00FFFFFFF
FFFFFFF00FFFFFFF
FFFFFFF00FFFFFFF
ENDCHAR
STARTCHAR 0062
ENCODING 98
SWIDTH 642 0
DWIDTH 54 0
BBX 52 78 0 5
BITMAP
FFFFFFFFFF8000
FFFFFFFFFFC000
FFFFFFFFFFE000
FFFFFFFFFFF000
FFFFFFFFFFF800
FFFFFFFFFFFC00
FFFFFFFFFFFE00
FFFFFFFFFFFF00
FFFFFFFFFFFF80
FFFFFFFFFFFFC0
FFFFFFFFFFFFE0
FFFFFFFFFFFFF0
FFFFFFFFFFFFF0
FFFFFFFFFFFFF0
FFFFFFFFFFFFF0
FFFFFFFFFFFFF0
FFFFFFFFFFFFF0
FFFFFFFFFFFFF0
07FFF8007FFFF0
07FFF8003FFFF0
07FFF8001FFFF0
07FFF8000FFFF0
07FFF8000FFFF0
07FFF8000FFFF0
07FFF8000FFFF0
07FFF8000FFFF0
07FFF8000FFFF0
07FFF8000FFFF0
07FFF8001FFFF0
07FFF8001FFFF0
07FFF8003FFFF0
07FFFFFFFFFFF0
07FFFFFFFFFFE0
07FFFFFFFFFFC0
07FFFFFFFFFF80
07FFFFFFFFFF00
07FFFFFFFFFE00
07FFFFFFFFFC00
07FFFFFFFFFC00
07FFFFFFFFFC00
07FFFFFFFFFE00
07FFFFFFFFFF00
07FFFFFFFFFF80
07FFFFFFFFFFC0
07FFFFFFFFFFE0
07FFFFFFFFFFE0
07FFFFFFFFFFF0
07FFF8007FFFF0
07FFF8003FFFF0
07FFF8001FFFF0
07FFF8000FFFF0
07FFF8000FFFF0
07FFF8000FFFF0
07FFF8000FFFF0
07FFF8000FFFF0
07FFF8000FFFF0
07FFF8000FFFF0
07FFF8000FFFF0
07FFF8001FFFF0
FFFFF8003FFFF0
FFFFF8003FFFF0
FFFFFFFFFFFFF0
FFFFFFFFFFFFF0
FFFFFFFFFFFFF0
FFFFFFFFFFFFF0
FFFFFFFFFFFFF0
FFFFFFFFFFFFE0
FFFFFFFFFFFFC0
FFFFFFFFFFFF80
FFFFFFFFFFFF00
FFFFFFFFFFFE00
FFFFFFFFFFFC00
FFFFFFFFFFFC00
FFFFFFFFFFF800
FFFFFFFFFFF000
FFFFFFFFFFE000
FFFFFFFFFFC000
FFFFFFFFFF8000
ENDCHAR
STARTCHAR 0063
ENCODING 99
SWIDTH 666 0
DWIDTH 56 0
BBX 55 79 0 5
BITMAP
001FFFFFFFF000
003FFFFFFFF800
007FFFFFFFFC00
00FFFFFFFFFE00
01FFFFFFFFFE00
03FFFFFFFFFF00
07FFFFFFFFFF80
0FFFFFFFFFFFC0
1FFFFFFFFFFFE0
3FFFFFFFFFFFF0
7FFFFFFFFFFFF8
FFFFFFFFFFFFFC
FFFFFFFFFFFFFE
FFFFFFFFFFFFFE
FFFFFFFFFFFFFE
FFFFFFFFFFFFFE
FFFFC00003FFFE
FFFF800003FFFE
FFFF000001FFFE
FFFF000000FFFE
FFFF000000FFFE
FFFF000000FFFE
FFFF000000FFFE
FFFF000000FFFE
FFFF000000FFFE
FFFF000000FFFE
FFFF000000FFFE
FFFF000000FFFE
FFFF0000000000
FFFF0000000000
FFFF0000000000
FFFF0000000000
FFFF0000000000
FFFF0000000000
FFFF0000000000
FFFF0000000000
FFFF0000000000
FFFF0000000000
FFFF0000000000
FFFF0000000000
FFFF0000000000
FFFF0000000000
FFFF0000000000
FFFF0000000000
FFFF0000000000
FFFF0000000000
FFFF0000000000
FFFF0000000000
FFFF0000000000
FFFF0000000000
FFFF000000FFFE
FFFF000000FFFE
FFFF000000FFFE
FFFF000000FFFE
FFFF000000FFFE
FFFF000000FFFE
FFFF000000FFFE
FFFF000000FFFE
FFFF000000FFFE
FFFF000000FFFE
FFFF800001FFFE
FFFF800003FFFE
FFFFFFFFFFFFFE
FFFFFFFFFFFFFE
FFFFFFFFFFFFFE
FFFFFFFFFFFFFE
FFFFFFFFFFFFFC
7FFFFFFFFFFFF8
3FFFFFFFFFFFF0
1FFFFFFFFFFFE0
0FFFFFFFFFFFC0
0FFFFFFFFFFF80
07FFFFFFFFFF80
03FFFFFFFFFF00
01FFFFFFFFFE00
00FFFFFFFFFC00
007FFFFFFFF800
003FFFFFFFF000
003FFFFFFFE000
ENDCHAR
STARTCHAR 0064
ENCODING 100
SWIDTH 666 0
DWIDTH 56 0
BBX 55 79 0 5
BITMAP
FFFFFFFFFFF800
FFFFFFFFFFFC00
FFFFFFFFFFFE00
FFFFFFFFFFFE00
FFFFFFFFFFFF00
FFFFFFFFFFFF80
FFFFFFFFFFFFC0
FFFFFFFFFFFFE0
FFFFFFFFFFFFF0
FFFFFFFFFFFFF8
FFFFFFFFFFFFF8
FFFFFFFFFFFFFC
FFFFFFFFFFFFFE
FFFFFFFFFFFFFE
FFFFFFFFFFFFFE
FFFFFFFFFFFFFE
FFFFFFFFFFFFFE
FFFFFFFFFFFFFE
FFFFF80007FFFE
0FFFF80003FFFE
0FFFF80003FFFE
0FFFF80001FFFE
0FFFF80001FFFE
0FFFF80001FFFE
0FFFF80001FFFE
0FFFF80001FFFE
0FFFF80001FFFE
0FFFF80001FFFE
0FFFF80001FFFE
0FFFF80001FFFE
0FFFF80001FFFE
0FFFF80001FFFE
0FFFF80001FFFE
0FFFF80001FFFE
0FFFF80001FFFE
0FFFF80001FFFE
0FFFF80001FFFE
0FFFF80001FFFE
0FFFF80001FFFE
0FFFF80001FFFE
0FFFF80001FFFE
0FFFF80001FFFE
0FFFF80001FFFE
0FFFF80001FFFE
0FFFF80001FFFE
0FFFF80001FFFE
0FFFF80001FFFE
0FFFF80001FFFE
0FFFF80001FFFE
0FFFF80001FFFE
0FFFF80001FFFE
0FFFF80001FFFE
0FFFF80001FFFE
0FFFF80001FFFE
0FFFF80001FFFE
0FFFF80001FFFE
0FFFF80001FFFE
0FFFF80003FFFE
0FFFF80007FFFE
0FFFF80007FFFE
FFFFF8000FFFFE
FFFFFFFFFFFFFE
FFFFFFFFFFFFFE
FFFFFFFFFFFFFE
FFFFFFFFFFFFFE
FFFFFFFFFFFFFE
FFFFFFFFFFFFFE
FFFFFFFFFFFFFC
FFFFFFFFFFFFF8
FFFFFFFFFFFFF0
FFFFFFFFFFFFE0
FFFFFFFFFFFFC0
FFFFFFFFFFFFC0
FFFFFFFFFFFF80
FFFFFFFFFFFF00
FFFFFFFFFFFE00
FFFFFFFFFFFC00
FFFFFFFFFFF800
FFFFFFFFFFF000
ENDCHAR
STARTCHAR 0065
ENCODING 101
SWIDTH 654 0
DWIDTH 55 0
BBX 54 79 0 5
BITMAP
FFFFFFFFFFFFFC
FFFFFFFFFFFFFC
FFFFFFFFFFFFFC
FFFFFFFFFFFFFC
FFFFFFFFFFFFFC
FFFFFFFFFFFFFC
FFFFFFFFFFFFFC
FFFFFFFFFFFFFC
FFFFFFFFFFFFFC
FFFFFFFFFFFFFC
FFFFFFFFFFFFFC
FFFFFFFFFFFFFC
FFFFFFFFFFFFFC
FFFFFFFFFFFFFC
FFFFFFFFFFFFFC
FFFFFFFFFFFFFC
FFFFFFFFFFFFFC
FFFFFFFFFFFFFC
FFFFFFFFFFFFFC
0FFFF80007FFFC
0FFFF80007FFFC
0FFFF80007FFFC
0FFFF80007FFFC
0FFFF80007FFFC
0FFFF800000000
0FFFF800000000
0FFFF800000000
0FFFF800000000
0FFFF800000000
0FFFF800000000
0FFFFFFFFC0000
0FFFFFFFFC0000
0FFFFFFFFC0000
0FFFFFFFFC0000
0FFFFFFFFC0000
0FFFFFFFFC0000
0FFFFFFFFC0000
0FFFFFFFFC0000
0FFFFFFFFC0000
0FFFFFFFFC0000
0FFFFFFFFC0000
0FFFFFFFFC0000
0FFFFFFFFC0000
0FFFFFFFFC0000
0FFFFFFFFC0000
0FFFFFFFFC0000
0FFFFFFFFC0000
0FFFFFFFFC0000
0FFFF800000000
0FFFF800000000
0FFFF800000000
0FFFF800000000
0FFFF800000000
0FFFF800000000
0FFFF800000000
0FFFF80007FFFC
0FFFF80007FFFC
0FFFF80007FFFC
0FFFF80007FFFC
0FFFF80007FFFC
FFFFFFFFFFFFFC
FFFFFFFFFFFFFC
FFFFFFFFFFFFFC
FFFFFFFFFFFFFC
FFFFFFFFFFFFFC
FFFFFFFFFFFFFC
FFFFFFFFFFFFFC
FFFFFFFFFFFFFC
FFFFFFFFFFFFFC
FFFFFFFFFFFFFC
FFFFFFFFFFFFFC
FFFFFFFFFFFFFC
FFFFFFFFFFFFFC
FFFFFFFFFFFFFC
FFFFFFFFFFFFFC
FFFFFFFFFFFFFC
FFFFFFFFFFFFFC
FFFFFFFFFFFFFC
FFFFFFFFFFFFFC
ENDCHAR
STARTCHAR 0066
ENCODING 102
SWIDTH 464 0
DWIDTH 39 0
BBX 55 79 0 5
BITMAP
FFFFFFFFFFFFFE
FFFFFFFFFFFFFE
FFFFFFFFFFFFFE
FFFFFFFFFFFFFE
FFFFFFFFFFFFFE
FFFFFFFFFFFFFE
FFFFFFFFFFFFFE
FFFFFFFFFFFFFE
FFFFFFFFFFFFFE
FFFFFFFFFFFFFE
FFFFFFFFFFFFFE
FFFFFFFFFFFFFE
FFFFFFFFFFFFFE
FFFFFFFFFFFFFE
FFFFFFFFFFFFFE
FFFFFFFFFFFFFE
FFFFFFFFFFFFFE
FFFFFFFFFFFFFE
FFFFFFFFFFFFFE
0FFFF80003FFFE
0FFFF80003FFFE
0FFFF80003FFFE
0FFFF80003FFFE
0FFFF80003FFFE
0FFFF800000000
0FFFF800000000
0FFFF800000000
0FFFF800000000
0FFFF800000000
0FFFF800000000
0FFFFFFFFC0000
0FFFFFFFFC0000
0FFFFFFFFC0000
0FFFFFFFFC0000
0FFFFFFFFC0000
0FFFFFFFFC0000
0FFFFFFFFC0000
0FFFFFFFFC0000
0FFFFFFFFC0000
0FFFFFFFFC0000
0FFFFFFFFC0000
0FFFFFFFFC0000
0FFFFFFFFC0000
0FFFFFFFFC0000
0FFFFFFFFC0000
0FFFFFFFFC0000
0FFFFFFFFC0000
0FFFFFFFFC0000
0FFFF800000000
0FFFF800000000
0FFFF800000000
0FFFF800000000
0FFFF800000000
0FFFF800000000
0FFFF800000000
0FFFF800000000
0FFFF800000000
0FFFF800000000
0FFFF800000000
0FFFF800000000
FFFFFFC0000000
FFFFFFC0000000
FFFFFFC0000000
FFFFFFC0000000
FFFFFFC0000000
FFFFFFC0000000
FFFFFFC0000000
FFFFFFC0000000
FFFFFFC0000000
FFFFFFC0000000
FFFFFFC0000000
FFFFFFC0000000
FFFFFFC0000000
FFFFFFC0000000
FFFFFFC0000000
FFFFFFC0000000
FFFFFFC0000000
FFFFFFC0000000
FFFFFFC0000000
ENDCHAR
STARTCHAR 0067
ENCODING 103
SWIDTH 654 0
DWIDTH 55 0
BBX 54 78 1 5
BITMAP
001FFFFFFFE000
003FFFFFFFF000
007FFFFFFFF800
00FFFFFFFFFC00
01FFFFFFFFFE00
03FFFFFFFFFF00
07FFFFFFFFFF80
0FFFFFFFFFFFC0
1FFFFFFFFFFFE0
3FFFFFFFFFFFF0
7FFFFFFFFFFFF8
FFFFFFFFFFFFFC
FFFFFFFFFFFFFC
FFFFFFFFFFFFFC
FFFFFFFFFFFFFC
FFFFFFFFFFFFFC
FFFFFFFFFFFFFC
FFFFFFFFFFFFFC
FFFFC00007FFFC
FFFF800007FFFC
FFFF800007FFFC
FFFF000007FFFC
FFFF000007FFFC
FFFF0000000000
FFFF0000000000
FFFF0000000000
FFFF0000000000
FFFF0000000000
FFFF0000000000
FFFF0000000000
FFFF0000000000
FFFF0000000000
FFFF0000000000
FFFF0000FFFFFC
FFFF0000FFFFFC
FFFF0000FFFFFC
FFFF0000FFFFFC
FFFF0000FFFFFC
FFFF0000FFFFFC
FFFF0000FFFFFC
FFFF0000FFFFFC
FFFF0000FFFFFC
FFFF0000FFFFFC
FFFF0000FFFFFC
FFFF0000FFFFFC
FFFF0000FFFFFC
FFFF0000FFFFFC
FFFF0000FFFFFC
FFFF000007FFFC
FFFF000007FFFC
FFFF000007FFFC
FFFF000007FFFC
FFFF000007FFFC
FFFF000007FFFC
FFFF000007FFFC
FFFF000007FFFC
FFFF000007FFFC
FFFF000007FFFC
FFFF800007FFFC
FFFFC00007FFFC
FFFFFFFFFFFFFC
FFFFFFFFFFFFFC
FFFFFFFFFFFFFC
FFFFFFFFFFFFFC
FFFFFFFFFFFFFC
FFFFFFFFFFFFFC
7FFFFFFFFFFFFC
3FFFFFFFFFFFFC
1FFFFFFFFFFFFC
0FFFFFFFFFFFFC
0FFFFFFFFFFFFC
07FFFFFFFFFFFC
03FFFFFFFFFFFC
01FFFFFFFFFFFC
00FFFFFFFFFFFC
007FFFFFFFFFFC
003FFFFFFFFFFC
001FFFFFFFFFFC
ENDCHAR
STARTCHAR 0068
ENCODING 104
SWIDTH 797 0
DWIDTH 67 0
BBX 66 79 1 5
BITMAP
FFFFFFF00FFFFFFFC0
FFFFFFF00FFFFFFFC0
FFFFFFF00FFFFFFFC0
FFFFFFF00FFFFFFFC0
FFFFFFF00FFFFFFFC0
FFFFFFF00FFFFFFFC0
FFFFFFF00FFFFFFFC0
FFFFFFF00FFFFFFFC0
FFFFFFF00FFFFFFFC0
FFFFFFF00FFFFFFFC0
FFFFFFF00FFFFFFFC0
FFFFFFF00FFFFFFFC0
FFFFFFF00FFFFFFFC0
FFFFFFF00FFFFFFFC0
FFFFFFF00FFFFFFFC0
FFFFFFF00FFFFFFFC0
FFFFFFF00FFFFFFFC0
FFFFFFF00FFFFFFFC0
FFFFFFF00FFFFFFFC0
03FFFE00003FFFE000
03FFFE00003FFFE000
03FFFE00003FFFE000
03FFFE00003FFFE000
03FFFE00003FFFE000
03FFFE00003FFFE000
03FFFE00003FFFE000
03FFFE00003FFFE000
03FFFE00003FFFE000
03FFFE00003FFFE000
03FFFE00003FFFE000
03FFFE00003FFFE000
03FFFFFFFFFFFFE000
03FFFFFFFFFFFFE000
03FFFFFFFFFFFFE000
03FFFFFFFFFFFFE000
03FFFFFFFFFFFFE000
03FFFFFFFFFFFFE000
03FFFFFFFFFFFFE000
03FFFFFFFFFFFFE000
03FFFFFFFFFFFFE000
03FFFFFFFFFFFFE000
03FFFFFFFFFFFFE000
03FFFFFFFFFFFFE000
03FFFFFFFFFFFFE000
03FFFFFFFFFFFFE000
03FFFFFFFFFFFFE000
03FFFFFFFFFFFFE000
03FFFFFFFFFFFFE000
03FFFE00003FFFE000
03FFFE00003FFFE000
03FFFE00003FFFE000
03FFFE00003FFFE000
03FFFE00003FFFE000
03FFFE00003FFFE000
03FFFE00003FFFE000
03FFFE00003FFFE000
03FFFE00003FFFE000
03FFFE00003FFFE000
03FFFE00003FFFE000
03FFFE00003FFFE000
FFFFFFF00FFFFFFF80
FFFFFFF00FFFFFFF80
FFFFFFF00FFFFFFF80
FFFFFFF00FFFFFFF80
FFFFFFF00FFFFFFF80
FFFFFFF00FFFFFFF80
FFFFFFF00FFFFFFF80
FFFFFFF00FFFFFFF80
FFFFFFF00FFFFFFF80
FFFFFFF00FFFFFFF80
FFFFFFF00FFFFFFF80
FFFFFFF00FFFFFFF80
FFFFFFF00FFFFFFF80
FFFFFFF00FFFFFFF80
FFFFFFF00FFFFFFF80
FFFFFFF00FFFFFFF80
FFFFFFF00FFFFFFF80
FFFFFFF00FFFFFFF80
FFFFFFF00FFFFFFF80
ENDCHAR
STARTCHAR 0069
ENCODING 105
SWIDTH 321 0
DWIDTH 27 0
BBX 26 80 1 5
BITMAP
FFFFFFC0
FFFFFFC0
FFFFFFC0
FFFFFFC0
FFFFFFC0
FFFFFFC0
FFFFFFC0
FFFFFFC0
FFFFFFC0
FFFFFFC0
FFFFFFC0
FFFFFFC0
FFFFFFC0
FFFFFFC0
FFFFFFC0
FFFFFFC0
FFFFFFC0
FFFFFFC0
FFFFFFC0
FFFFFFC0
0FFFF800
0FFFF800
0FFFF800
0FFFF800
0FFFF800
0FFFF800
0FFFF800
0FFFF800
0FFFF800
0FFFF800
0FFFF800
0FFFF800
0FFFF800
0FFFF800
0FFFF800
0FFFF800
0FFFF800
0FFFF800
0FFFF800
0FFFF800
0FFFF800
0FFFF800
0FFFF800
0FFFF800
0FFFF800
0FFFF800
0FFFF800
0FFFF800
0FFFF800
0FFFF800
0FFFF800
0FFFF800
0FFFF800
0FFFF800
0FFFF800
0FFFF800
0FFFF800
0FFFF800
0FFFF800
0FFFF800
0FFFF800
FFFFFFC0
FFFFFFC0
FFFFFFC0
FFFFFFC0
FFFFFFC0
FFFFFFC0
FFFFFFC0
FFFFFFC0
FFFFFFC0
FFFFFFC0
FFFFFFC0
FFFFFFC0
FFFFFFC0
FFFFFFC0
FFFFFFC0
FFFFFFC0
FFFFFFC0
FFFFFFC0
FFFFFFC0
ENDCHAR
STARTCHAR 006A
ENCODING 106
SWIDTH 500 0
DWIDTH 42 0
BBX 48 79 0 4
BITMAP
00007FFFFFFF
00007FFFFFFF
00007FFFFFFF
00007FFFFFFF
00007FFFFFFF
00007FFFFFFF
00007FFFFFFF
00007FFFFFFF
00007FFFFFFF
00007FFFFFFF
00007FFFFFFF
00007FFFFFFF
00007FFFFFFF
00007FFFFFFF
00007FFFFFFF
00007FFFFFFF
00007FFFFFFF
00007FFFFFFF
00007FFFFFFF
000000FFFF80
000000FFFF80
000000FFFF80
000000FFFF80
000000FFFF80
000000FFFF80
000000FFFF80
000000FFFF80
000000FFFF80
000000FFFF80
000000FFFF80
000000FFFF80
000000FFFF80
000000FFFF80
000000FFFF80
000000FFFF80
000000FFFF80
000000FFFF80
000000FFFF80
000000FFFF80
000000FFFF80
000000FFFF80
000000FFFF80
000000FFFF80
000000FFFF80
000000FFFF80
000000FFFF80
000000FFFF80
000000FFFF80
000000FFFF80
FFFF80FFFF80
FFFF80FFFF80
FFFF80FFFF80
FFFF80FFFF80
FFFF80FFFF80
FFFF80FFFF80
FFFF80FFFF80
FFFF80FFFF80
FFFF80FFFF80
FFFF80FFFF80
FFFFC1FFFF80
FFFFFFFFFF80
FFFFFFFFFF80
FFFFFFFFFF80
FFFFFFFFFF80
FFFFFFFFFF80
FFFFFFFFFF80
FFFFFFFFFF80
FFFFFFFFFF00
7FFFFFFFFF00
3FFFFFFFFE00
1FFFFFFFFC00
0FFFFFFFF800
07FFFFFFF000
03FFFFFFF000
01FFFFFFE000
01FFFFFFC000
00FFFFFF8000
007FFFFF0000
003FFFFF0000
ENDCHAR
STARTCHAR 006B
ENCODING 107
SWIDTH 773 0
DWIDTH 65 0
BBX 65 79 0 4
BITMAP
FFFFFFE001FFFFFF80
FFFFFFE001FFFFFF80
FFFFFFE001FFFFFF80
FFFFFFE001FFFFFF80
FFFFFFE001FFFFFF80
FFFFFFE001FFFFFF80
FFFFFFE001FFFFFF80
FFFFFFE001FFFFFF80
FFFFFFE001FFFFFF80
FFFFFFE001FFFFFF80
FFFFFFE001FFFFFF80
FFFFFFE001FFFFFF80
FFFFFFE001FFFFFF80
FFFFFFE001FFFFFF80
FFFFFFE001FFFFFF80
FFFFFFE001FFFFFF80
FFFFFFE001FFFFFF80
FFFFFFE001FFFFFF80
FFFFFFE001FFFFFF80
07FFFE00001FFFF800
07FFFE00003FFFF000
07FFFE00007FFFE000
07FFFE0000FFFFC000
07FFFE0001FFFF8000
07FFFE0003FFFF0000
07FFFE0007FFFE0000
07FFFE000FFFFC0000
07FFFE001FFFF80000
07FFFE003FFFF00000
07FFFE007FFFE00000
07FFFE00FFFFC00000
07FFFE01FFFF800000
07FFFE03FFFF000000
07FFFE07FFFE000000
07FFFE0FFFFC000000
07FFFE1FFFF8000000
07FFFE3FFFF8000000
07FFFE7FFFF0000000
07FFFEFFFFF8000000
07FFFEFFFFFC000000
07FFFFFFFFFC000000
07FFFFFFFFFE000000
07FFFFFFFFFF000000
07FFFFFFFFFF800000
07FFFFFFFFFF800000
07FFFFFFFFFFC00000
07FFFFFFFFFFE00000
07FFFFFFFFFFE00000
07FFFFFF9FFFF00000
07FFFFFF0FFFF80000
07FFFFFE0FFFF80000
07FFFFFC07FFFC0000
07FFFFF803FFFE0000
07FFFFF001FFFE0000
07FFFFE001FFFF0000
07FFFFC000FFFF8000
07FFFF80007FFF8000
07FFFF00007FFFC000
07FFFE00003FFFE000
07FFFC00001FFFE000
FFFFFFE001FFFFFF80
FFFFFFE001FFFFFF80
FFFFFFE001FFFFFF80
FFFFFFE001FFFFFF80
FFFFFFE001FFFFFF80
FFFFFFE001FFFFFF80
FFFFFFE001FFFFFF80
FFFFFFE001FFFFFF80
FFFFFFE001FFFFFF80
FFFFFFE001FFFFFF80
FFFFFFE001FFFFFF80
FFFFFFE001FFFFFF80
FFFFFFE001FFFFFF80
FFFFFFE001FFFFFF80
FFFFFFE001FFFFFF80
FFFFFFE001FFFFFF80
FFFFFFE001FFFFFF80
FFFFFFE001FFFFFF80
FFFFFFE001FFFFFF80
ENDCHAR
STARTCHAR 006C
ENCODING 108
SWIDTH 607 0
DWIDTH 51 0
BBX 50 79 0 4
BITMAP
FFFFFFC0000000
FFFFFFC0000000
FFFFFFC0000000
FFFFFFC0000000
FFFFFFC0000000
FFFFFFC0000000
FFFFFFC0000000
FFFFFFC0000000
FFFFFFC0000000
FFFFFFC0000000
FFFFFFC0000000
FFFFFFC0000000
FFFFFFC0000000
FFFFFFC0000000
FFFFFFC0000000
FFFFFFC0000000
FFFFFFC0000000
FFFFFFC0000000
FFFFFFC0000000
0FFFF800000000
0FFFF800000000
0FFFF800000000
0FFFF800000000
0FFFF800000000
0FFFF800000000
0FFFF800000000
0FFFF800000000
0FFFF800000000
0FFFF800000000
0FFFF800000000
0FFFF800000000
0FFFF800000000
0FFFF800000000
0FFFF800000000
0FFFF800000000
0FFFF800000000
0FFFF800000000
0FFFF800000000
0FFFF800000000
0FFFF800000000
0FFFF800000000
0FFFF800000000
0FFFF800000000
0FFFF800000000
0FFFF800000000
0FFFF800000000
0FFFF800000000
0FFFF800000000
0FFFF800000000
0FFFF800000000
0FFFF800000000
0FFFF800000000
0FFFF800000000
0FFFF800000000
0FFFF800000000
0FFFF8007FFFC0
0FFFF8007FFFC0
0FFFF8007FFFC0
0FFFF8007FFFC0
0FFFF8007FFFC0
FFFFFFFFFFFFC0
FFFFFFFFFFFFC0
FFFFFFFFFFFFC0
FFFFFFFFFFFFC0
FFFFFFFFFFFFC0
FFFFFFFFFFFFC0
FFFFFFFFFFFFC0
FFFFFFFFFFFFC0
FFFFFFFFFFFFC0
FFFFFFFFFFFFC0
FFFFFFFFFFFFC0
FFFFFFFFFFFFC0
FFFFFFFFFFFFC0
FFFFFFFFFFFFC0
FFFFFFFFFFFFC0
FFFFFFFFFFFFC0
FFFFFFFFFFFFC0
FFFFFFFFFFFFC0
FFFFFFFFFFFFC0
ENDCHAR
STARTCHAR 006D
ENCODING 109
SWIDTH 845 0
DWIDTH 71 0
BBX 69 79 0 4
BITMAP
FFFFFC0000007FFFF8
FFFFFC000000FFFFF8
FFFFFE000000FFFFF8
FFFFFE000001FFFFF8
FFFFFF000001FFFFF8
FFFFFF000003FFFFF8
FFFFFF800003FFFFF8
FFFFFF800007FFFFF8
FFFFFFC00007FFFFF8
FFFFFFC0000FFFFFF8
FFFFFFE0001FFFFFF8
FFFFFFE0001FFFFFF8
FFFFFFF0003FFFFFF8
FFFFFFF0003FFFFFF8
FFFFFFF8007FFFFFF8
FFFFFFF8007FFFFFF8
FFFFFFFC00FFFFFFF8
FFFFFFFC00FFFFFFF8
FFFFFFFE01FFFFFFF8
FFFFFFFE03FFFFFFF8
0FFFFFFF03FFFFFF80
0FFFFFFF07FFFFFF80
0FFFFFFF87FFFFFF80
0FFFFFFF8FFFFFFF80
0FFFFFFFCFFFFFFF80
0FFFFFFFDFFFFFFF80
0FFFFFFFFFFFFFFF80
0FFFFFFFFFFFFFFF80
0FFFFFFFFFFFFFFF80
0FFFFFFFFFFFFFFF80
0FFFFFFFFFFFFFFF80
0FFFFFFFFFFFFFFF80
0FFFFFFFFFFFFFFF80
0FFFFFFFFFFFFFFF80
0FFFFFFFFFFFFFFF80
0FFFFFFFFFFFFFFF80
0FFFFFFFFFFFFFFF80
0FFFF7FFFFFFFFFF80
0FFFF7FFFFFF7FFF80
0FFFF3FFFFFF7FFF80
0FFFF3FFFFFE7FFF80
0FFFF1FFFFFE7FFF80
0FFFF1FFFFFC7FFF80
0FFFF0FFFFF87FFF80
0FFFF07FFFF87FFF80
0FFFF07FFFF07FFF80
0FFFF03FFFE07FFF80
0FFFF03FFFE07FFF80
0FFFF01FFFC07FFF80
0FFFF01FFFC07FFF80
0FFFF00FFF807FFF80
0FFFF00FFF007FFF80
0FFFF007FF007FFF80
0FFFF003FE007FFF80
0FFFF00000007FFF80
0FFFF00000007FFF80
0FFFF00000007FFF80
0FFFF00000007FFF80
0FFFF00000007FFF80
0FFFF00000007FFF80
FFFFFF000007FFFFF8
FFFFFF000007FFFFF8
FFFFFF000007FFFFF8
FFFFFF000007FFFFF8
FFFFFF000007FFFFF8
FFFFFF000007FFFFF8
FFFFFF000007FFFFF8
FFFFFF000007FFFFF8
FFFFFF000007FFFFF8
FFFFFF000007FFFFF8
FFFFFF000007FFFFF8
FFFFFF000007FFFFF8
FFFFFF000007FFFFF8
FFFFFF000007FFFFF8
FFFFFF000007FFFFF8
FFFFFF000007FFFFF8
FFFFFF000007FFFFF8
FFFFFF000007FFFFF8
FFFFFF000007FFFFF8
ENDCHAR
STARTCHAR 006E
ENCODING 110
SWIDTH 702 0
DWIDTH 59 0
BBX 62 80 0 5
BITMAP
FFFFF80007FFFFFC
FFFFFC0007FFFFFC
FFFFFC0007FFFFFC
FFFFFE0007FFFFFC
FFFFFE0007FFFFFC
FFFFFF0007FFFFFC
FFFFFF0007FFFFFC
FFFFFF8007FFFFFC
FFFFFF8007FFFFFC
FFFFFFC007FFFFFC
FFFFFFC007FFFFFC
FFFFFFE007FFFFFC
FFFFFFE007FFFFFC
FFFFFFF007FFFFFC
FFFFFFF007FFFFFC
FFFFFFF807FFFFFC
FFFFFFF807FFFFFC
FFFFFFFC07FFFFFC
FFFFFFFC07FFFFFC
FFFFFFFE07FFFFFC
0FFFFFFE007FFFC0
0FFFFFFF007FFFC0
0FFFFFFF007FFFC0
0FFFFFFF807FFFC0
0FFFFFFF807FFFC0
0FFFFFFFC07FFFC0
0FFFFFFFC07FFFC0
0FFFFFFFE07FFFC0
0FFFFFFFE07FFFC0
0FFFFFFFF07FFFC0
0FFFFFFFF07FFFC0
0FFFFFFFF87FFFC0
0FFFFFFFF87FFFC0
0FFFFFFFFC7FFFC0
0FFFFFFFFC7FFFC0
0FFFFFFFFE7FFFC0
0FFFFFFFFE7FFFC0
0FFFFFFFFF7FFFC0
0FFFFFFFFF7FFFC0
0FFFFFFFFFFFFFC0
0FFFFFFFFFFFFFC0
0FFFFBFFFFFFFFC0
0FFFFBFFFFFFFFC0
0FFFF9FFFFFFFFC0
0FFFF9FFFFFFFFC0
0FFFF8FFFFFFFFC0
0FFFF8FFFFFFFFC0
0FFFF87FFFFFFFC0
0FFFF87FFFFFFFC0
0FFFF83FFFFFFFC0
0FFFF83FFFFFFFC0
0FFFF81FFFFFFFC0
0FFFF81FFFFFFFC0
0FFFF80FFFFFFFC0
0FFFF80FFFFFFFC0
0FFFF807FFFFFFC0
0FFFF807FFFFFFC0
0FFFF803FFFFFFC0
0FFFF803FFFFFFC0
0FFFF801FFFFFFC0
3FFFF801FFFFFFC0
FFFFFF80FFFFFFC0
FFFFFF80FFFFFFC0
FFFFFF807FFFFFC0
FFFFFF807FFFFFC0
FFFFFF803FFFFFC0
FFFFFF803FFFFFC0
FFFFFF801FFFFFC0
FFFFFF801FFFFFC0
FFFFFF800FFFFFC0
FFFFFF800FFFFFC0
FFFFFF8007FFFFC0
FFFFFF8007FFFFC0
FFFFFF8003FFFFC0
FFFFFF8003FFFFC0
FFFFFF8001FFFFC0
FFFFFF8001FFFFC0
FFFFFF8000FFFFC0
FFFFFF8000FFFFC0
FFFFFF80007FFFC0
ENDCHAR
STARTCHAR 006F
ENCODING 111
SWIDTH 678 0
DWIDTH 57 0
BBX 57 78 0 5
BITMAP
000FFFFFFFFC0000
001FFFFFFFFE0000
003FFFFFFFFF0000
007FFFFFFFFF8000
00FFFFFFFFFFC000
01FFFFFFFFFFE000
03FFFFFFFFFFF000
03FFFFFFFFFFF800
07FFFFFFFFFFFC00
0FFFFFFFFFFFFC00
1FFFFFFFFFFFFE00
3FFFFFFFFFFFFF00
7FFFFFFFFFFFFF80
7FFFFFFFFFFFFF80
FFFFFFFFFFFFFF80
FFFFFFFFFFFFFF80
FFFFF80007FFFF80
FFFFF00003FFFF80
FFFFE00001FFFF80
FFFFC00000FFFF80
FFFF800000FFFF80
FFFF800000FFFF80
FFFF800000FFFF80
FFFF800000FFFF80
FFFF800000FFFF80
FFFF800000FFFF80
FFFF800000FFFF80
FFFF800000FFFF80
FFFF800000FFFF80
FFFF800000FFFF80
FFFF800000FFFF80
FFFF800000FFFF80
FFFF800000FFFF80
FFFF800000FFFF80
FFFF800000FFFF80
FFFF800000FFFF80
FFFF800000FFFF80
FFFF800000FFFF80
FFFF800000FFFF80
FFFF800000FFFF80
FFFF800000FFFF80
FFFF800000FFFF80
FFFF800000FFFF80
FFFF800000FFFF80
FFFF800000FFFF80
FFFF800000FFFF80
FFFF800000FFFF80
FFFF800000FFFF80
FFFF800000FFFF80
FFFF800000FFFF80
FFFF800000FFFF80
FFFF800000FFFF80
FFFF800000FFFF80
FFFF800000FFFF80
FFFF800000FFFF80
FFFF800000FFFF80
FFFF800000FFFF80
FFFF800000FFFF80
FFFFC00001FFFF80
FFFFE00003FFFF80
FFFFF00007FFFF80
FFFFF80007FFFF80
FFFFFFFFFFFFFF80
FFFFFFFFFFFFFF80
FFFFFFFFFFFFFF80
7FFFFFFFFFFFFF80
3FFFFFFFFFFFFF00
3FFFFFFFFFFFFE00
1FFFFFFFFFFFFC00
0FFFFFFFFFFFF800
07FFFFFFFFFFF800
03FFFFFFFFFFF000
01FFFFFFFFFFE000
00FFFFFFFFFFC000
007FFFFFFFFF8000
003FFFFFFFFF0000
001FFFFFFFFE0000
001FFFFFFFFE0000
ENDCHAR
STARTCHAR 0070
ENCODING 112
SWIDTH 678 0
DWIDTH 57 0
BBX 56 79 1 5
BITMAP
FFFFFFFFFFF000
FFFFFFFFFFF800
FFFFFFFFFFFC00
FFFFFFFFFFFE00
FFFFFFFFFFFE00
FFFFFFFFFFFF00
FFFFFFFFFFFF80
FFFFFFFFFFFF80
FFFFFFFFFFFFC0
FFFFFFFFFFFFE0
FFFFFFFFFFFFF0
FFFFFFFFFFFFF0
FFFFFFFFFFFFF8
FFFFFFFFFFFFFC
FFFFFFFFFFFFFE
FFFFF80003FFFE
FFFFF80001FFFF
FFFFF80000FFFF
FFFFF800007FFF
FFFFF800007FFF
FFFFF800007FFF
07FFF800007FFF
07FFF800007FFF
07FFF800007FFF
07FFF800007FFF
07FFF800007FFF
07FFF800007FFF
07FFF800007FFF
07FFF800007FFF
07FFF800007FFF
07FFF800007FFF
07FFF800007FFF
07FFF80000FFFF
07FFF80001FFFF
07FFF80003FFFF
07FFF80003FFFF
07FFFFFFFFFFFF
07FFFFFFFFFFFF
07FFFFFFFFFFFE
07FFFFFFFFFFFC
07FFFFFFFFFFF8
07FFFFFFFFFFF8
07FFFFFFFFFFF0
07FFFFFFFFFFE0
07FFFFFFFFFFC0
07FFFFFFFFFF80
07FFFFFFFFFF00
07FFFFFFFFFF00
07FFFFFFFFFE00
07FFFFFFFFFC00
07FFFFFFFFF800
07FFF800000000
07FFF800000000
07FFF800000000
07FFF800000000
07FFF800000000
07FFF800000000
07FFF800000000
07FFF800000000
07FFF800000000
FFFFFFC0000000
FFFFFFC0000000
FFFFFFC0000000
FFFFFFC0000000
FFFFFFC0000000
FFFFFFC0000000
FFFFFFC0000000
FFFFFFC0000000
FFFFFFC0000000
FFFFFFC0000000
FFFFFFC0000000
FFFFFFC0000000
FFFFFFC0000000
FFFFFFC0000000
FFFFFFC0000000
FFFFFFC0000000
FFFFFFC0000000
FFFFFFC0000000
FFFFFFC0000000
ENDCHAR
STARTCHAR 0071
ENCODING 113
SWIDTH 750 0
DWIDTH 63 0
BBX 60 82 1 2
BITMAP
001FFFFFFFFC0000
003FFFFFFFFC0000
003FFFFFFFFE0000
007FFFFFFFFF0000
00FFFFFFFFFF8000
01FFFFFFFFFFC000
03FFFFFFFFFFE000
03FFFFFFFFFFF000
07FFFFFFFFFFF800
0FFFFFFFFFFFFC00
1FFFFFFFFFFFFE00
3FFFFFFFFFFFFF00
7FFFFFFFFFFFFF00
7FFFFFFFFFFFFF00
FFFFFFFFFFFFFF00
FFFFFFFFFFFFFF00
FFFFE0000FFFFF00
FFFFC00007FFFF00
FFFF800003FFFF00
FFFF000001FFFF00
FFFF000000FFFF00
FFFF000000FFFF00
FFFF000000FFFF00
FFFF000000FFFF00
FFFF000000FFFF00
FFFF000000FFFF00
FFFF000000FFFF00
FFFF000000FFFF00
FFFF000000FFFF00
FFFF000000FFFF00
FFFF000000FFFF00
FFFF000000FFFF00
FFFF000000FFFF00
FFFF000000FFFF00
FFFF000000FFFF00
FFFF000000FFFF00
FFFF000000FFFF00
FFFF000000FFFF00
FFFF000000FFFF00
FFFF000000FFFF00
FFFF000000FFFF00
FFFF000000FFFF00
FFFF000000FFFF00
FFFF000000FFFF00
FFFF000000FFFF00
FFFF000000FFFF00
FFFF000000FFFF00
FFFF000000FFFF00
FFFF000000FFFF00
FFFF000000FFFF00
FFFF000000FFFF00
FFFF000000FFFF00
FFFF000000FFFF00
FFFF000000FFFF00
FFFF000000FFFF00
FFFF000000FFFF00
FFFF000000FFFF00
FFFF800001FFFF00
FFFFC00003FFFF00
FFFFE00007FFFF00
FFFFF0000FFFFF00
FFFFFFFFFFFFFF00
FFFFFFFFFFFFFF00
FFFFFFFFFFFFFF00
FFFFFFFFFFFFFF00
FFFFFFFFFFFFFF00
FFFFFFFFFFFFFF00
7FFFFFFFFFFFFE00
3FFFFFFFFFFFFC00
1FFFFFFFFFFFFE00
0FFFFFFFFFFFFF00
07FFFFFFFFFFFF80
07FFFFFFFFFFFFC0
03FFFFFFFFFFFFE0
01FFFFFFFFFFFFF0
00FFFFFFFFFFFFF0
007FFFFFFFFE7FF0
003FFFFFFFFE3FE0
003FFFFFFFFC1FC0
0000000000000F80
0000000000000700
0000000000000200
ENDCHAR
STARTCHAR 0072
ENCODING 114
SWIDTH 666 0
DWIDTH 56 0
BBX 55 79 0 5
BITMAP
FFFFFFFFFFC000
FFFFFFFFFFE000
FFFFFFFFFFF000
FFFFFFFFFFF800
FFFFFFFFFFFC00
FFFFFFFFFFFE00
FFFFFFFFFFFF00
FFFFFFFFFFFF80
FFFFFFFFFFFFC0
FFFFFFFFFFFFE0
FFFFFFFFFFFFF0
FFFFFFFFFFFFF8
FFFFFFFFFFFFF8
FFFFFFFFFFFFF8
FFFFFFFFFFFFF8
FFFFFFFFFFFFF8
FFFFF801FFFFF8
FFFFF800FFFFF8
FFFFF8007FFFF8
0FFFF8001FFFF8
0FFFF8001FFFF8
0FFFF8001FFFF8
0FFFF8001FFFF8
0FFFF8001FFFF8
0FFFF8001FFFF8
0FFFF8001FFFF8
0FFFF8003FFFF8
0FFFF8007FFFF8
0FFFF800FFFFF8
0FFFF801FFFFF8
0FFFFFFFFFFFF8
0FFFFFFFFFFFF8
0FFFFFFFFFFFF8
0FFFFFFFFFFFF8
0FFFFFFFFFFFF8
0FFFFFFFFFFFF8
0FFFFFFFFFFFF0
0FFFFFFFFFFFE0
0FFFFFFFFFFFC0
0FFFFFFFFFFF00
0FFFFFFFFFFE00
0FFFFFFFFFFC00
0FFFFFFFFFF800
0FFFFFFFFFF000
0FFFFFFFFFF000
0FFFFFFFFFF800
0FFFFFFFFFF800
0FFFFFFFFFFC00
0FFFF807FFFC00
0FFFF803FFFC00
0FFFF803FFFE00
0FFFF801FFFE00
0FFFF801FFFF00
0FFFF800FFFF00
0FFFF800FFFF80
0FFFF800FFFF80
0FFFF8007FFF80
0FFFF8007FFFC0
0FFFF8003FFFC0
0FFFF8003FFFE0
FFFFFF81FFFFFE
FFFFFF81FFFFFE
FFFFFF81FFFFFE
FFFFFF81FFFFFE
FFFFFF81FFFFFE
FFFFFF81FFFFFE
FFFFFF81FFFFFE
FFFFFF81FFFFFE
FFFFFF81FFFFFE
FFFFFF81FFFFFE
FFFFFF81FFFFFE
FFFFFF81FFFFFE
FFFFFF81FFFFFE
FFFFFF81FFFFFE
FFFFFF81FFFFFE
FFFFFF81FFFFFE
FFFFFF81FFFFFE
FFFFFF81FFFFFE
FFFFFF81FFFFFE
ENDCHAR
STARTCHAR 0073
ENCODING 115
SWIDTH 642 0
DWIDTH 54 0
BBX 52 79 0 5
BITMAP
001FFFFFFF8000
003FFFFFFFC000
003FFFFFFFE000
007FFFFFFFF000
00FFFFFFFFF800
01FFFFFFFFFC00
03FFFFFFFFFE00
07FFFFFFFFFF00
0FFFFFFFFFFF80
0FFFFFFFFFFFC0
1FFFFFFFFFFFE0
3FFFFFFFFFFFF0
7FFFFFFFFFFFF0
FFFFFFFFFFFFF0
FFFFE0003FFFF0
FFFFC0001FFFF0
FFFF80000FFFF0
FFFF80000FFFF0
FFFF80000FFFF0
FFFF80000FFFF0
FFFF80000FFFF0
FFFF80000FFFF0
FFFF80000FFFF0
FFFF80000FFFF0
FFFF80000FFFF0
FFFF8000000000
FFFF8000000000
FFFF8000000000
FFFF8000000000
FFFF8000000000
FFFFC000000000
FFFFC000000000
FFFFFFFFFFF000
FFFFFFFFFFF800
FFFFFFFFFFFC00
7FFFFFFFFFFE00
3FFFFFFFFFFF00
1FFFFFFFFFFF80
0FFFFFFFFFFF80
07FFFFFFFFFFC0
07FFFFFFFFFFE0
03FFFFFFFFFFF0
01FFFFFFFFFFF0
00FFFFFFFFFFF0
007FFFFFFFFFF0
003FFFFFFFFFF0
000000003FFFF0
000000001FFFF0
000000000FFFF0
000000000FFFF0
000000000FFFF0
000000000FFFF0
FFFF00000FFFF0
FFFF00000FFFF0
FFFF00000FFFF0
FFFF00000FFFF0
FFFF00000FFFF0
FFFF00000FFFF0
FFFF00000FFFF0
FFFF00000FFFF0
FFFF00000FFFF0
FFFF80001FFFF0
FFFFC0001FFFF0
FFFFE0003FFFF0
FFFFFFFFFFFFF0
FFFFFFFFFFFFF0
FFFFFFFFFFFFF0
FFFFFFFFFFFFE0
7FFFFFFFFFFFC0
3FFFFFFFFFFF80
1FFFFFFFFFFF00
0FFFFFFFFFFE00
07FFFFFFFFFC00
03FFFFFFFFF800
01FFFFFFFFF000
00FFFFFFFFE000
007FFFFFFFC000
003FFFFFFF8000
001FFFFFFF0000
ENDCHAR
STARTCHAR 0074
ENCODING 116
SWIDTH 321 0
DWIDTH 27 0
BBX 56 79 -15 4
BITMAP
FFFFFFFFFFFFFF
FFFFFFFFFFFFFF
FFFFFFFFFFFFFF
FFFFFFFFFFFFFF
FFFFFFFFFFFFFF
FFFFFFFFFFFFFF
FFFFFFFFFFFFFF
FFFFFFFFFFFFFF
FFFFFFFFFFFFFF
FFFFFFFFFFFFFF
FFFFFFFFFFFFFF
FFFFFFFFFFFFFF
FFFFFFFFFFFFFF
FFFFFFFFFFFFFF
FFFFFFFFFFFFFF
FFFFFFFFFFFFFF
FFFFFFFFFFFFFF
FFFFFFFFFFFFFF
FFFFFFFFFFFFFF
FFFFFFFFFFFFFF
FFFF1FFFF1FFFF
FFFF1FFFF1FFFF
FFFF1FFFF1FFFF
FFFF1FFFF1FFFF
FFFF1FFFF00000
00001FFFF00000
00001FFFF00000
00001FFFF00000
00001FFFF00000
00001FFFF00000
00001FFFF00000
00001FFFF00000
00001FFFF00000
00001FFFF00000
00001FFFF00000
00001FFFF00000
00001FFFF00000
00001FFFF00000
00001FFFF00000
00001FFFF00000
00001FFFF00000
00001FFFF00000
00001FFFF00000
00001FFFF00000
00001FFFF00000
00001FFFF00000
00001FFFF00000
00001FFFF00000
00001FFFF00000
00001FFFF00000
00001FFFF00000
00001FFFF00000
00001FFFF00000
00001FFFF00000
00001FFFF00000
00001FFFF00000
00001FFFF00000
00001FFFF00000
00001FFFF00000
00001FFFF00000
0003FFFFFF8000
0003FFFFFF8000
0003FFFFFF8000
0003FFFFFF8000
0003FFFFFF8000
0003FFFFFF8000
0003FFFFFF8000
0003FFFFFF8000
0003FFFFFF8000
0003FFFFFF8000
0003FFFFFF8000
0003FFFFFF8000
0003FFFFFF8000
0003FFFFFF8000
0003FFFFFF8000
0003FFFFFF8000
0003FFFFFF8000
0003FFFFFF8000
0003FFFFFF8000
ENDCHAR
STARTCHAR 0075
ENCODING 117
SWIDTH 654 0
DWIDTH 55 0
BBX 63 79 -4 4
BITMAP
FFFFFFC007FFFFFE
FFFFFFC007FFFFFE
FFFFFFC007FFFFFE
FFFFFFC007FFFFFE
FFFFFFC007FFFFFE
FFFFFFC007FFFFFE
FFFFFFC007FFFFFE
FFFFFFC007FFFFFE
FFFFFFC007FFFFFE
FFFFFFC007FFFFFE
FFFFFFC007FFFFFE
FFFFFFC007FFFFFE
FFFFFFC007FFFFFE
FFFFFFC007FFFFFE
FFFFFFC007FFFFFE
FFFFFFC007FFFFFE
FFFFFFC007FFFFFE
FFFFFFC007FFFFFE
FFFFFFC007FFFFFE
0FFFFC00007FFFE0
0FFFFC00007FFFE0
0FFFFC00007FFFE0
0FFFFC00007FFFE0
0FFFFC00007FFFE0
0FFFFC00007FFFE0
0FFFFC00007FFFE0
0FFFFC00007FFFE0
0FFFFC00007FFFE0
0FFFFC00007FFFE0
0FFFFC00007FFFE0
0FFFFC00007FFFE0
0FFFFC00007FFFE0
0FFFFC00007FFFE0
0FFFFC00007FFFE0
0FFFFC00007FFFE0
0FFFFC00007FFFE0
0FFFFC00007FFFE0
0FFFFC00007FFFE0
0FFFFC00007FFFE0
0FFFFC00007FFFE0
0FFFFC00007FFFE0
0FFFFC00007FFFE0
0FFFFC00007FFFE0
0FFFFC00007FFFE0
0FFFFC00007FFFE0
0FFFFC00007FFFE0
0FFFFC00007FFFE0
0FFFFC00007FFFE0
0FFFFC00007FFFE0
0FFFFC00007FFFE0
0FFFFC00007FFFE0
0FFFFC00007FFFE0
0FFFFC00007FFFE0
0FFFFC00007FFFE0
0FFFFC00007FFFE0
0FFFFC00007FFFE0
0FFFFC00007FFFE0
0FFFFC00007FFFE0
0FFFFC00007FFFE0
0FFFFC00007FFFE0
0FFFFFFFFFFFFFE0
0FFFFFFFFFFFFFE0
0FFFFFFFFFFFFFE0
0FFFFFFFFFFFFFE0
07FFFFFFFFFFFFE0
03FFFFFFFFFFFFC0
03FFFFFFFFFFFF80
01FFFFFFFFFFFF00
00FFFFFFFFFFFE00
007FFFFFFFFFFC00
003FFFFFFFFFFC00
001FFFFFFFFFF800
000FFFFFFFFFF000
0007FFFFFFFFE000
0003FFFFFFFFC000
0001FFFFFFFF8000
0000FFFFFFFF8000
00007FFFFFFF0000
00003FFFFFFE0000
ENDCHAR
STARTCHAR 0076
ENCODING 118
SWIDTH 500 0
DWIDTH 42 0
BBX 60 79 -9 4
BITMAP
FFFFFFE0FFFFFFF0
FFFFFFE0FFFFFFF0
FFFFFFE0FFFFFFF0
FFFFFFE0FFFFFFF0
FFFFFFE0FFFFFFF0
FFFFFFE0FFFFFFF0
FFFFFFE0FFFFFFF0
FFFFFFE0FFFFFFF0
FFFFFFE0FFFFFFF0
FFFFFFE0FFFFFFF0
FFFFFFE0FFFFFFF0
FFFFFFE0FFFFFFF0
FFFFFFE0FFFFFFF0
FFFFFFE0FFFFFFF0
FFFFFFE0FFFFFFF0
FFFFFFE0FFFFFFF0
FFFFFFE0FFFFFFF0
FFFFFFE0FFFFFFF0
FFFFFFE0FFFFFFF0
01FFFE000FFFF800
01FFFF001FFFF800
01FFFF001FFFF000
00FFFF001FFFF000
00FFFF001FFFF000
00FFFF001FFFF000
00FFFF803FFFE000
007FFF803FFFE000
007FFF803FFFE000
007FFF803FFFE000
007FFF807FFFC000
003FFFC07FFFC000
003FFFC07FFFC000
003FFFC07FFF8000
003FFFC07FFF8000
003FFFC0FFFF8000
001FFFE0FFFF8000
001FFFE0FFFF0000
001FFFE0FFFF0000
001FFFE1FFFF0000
000FFFE1FFFF0000
000FFFF1FFFE0000
000FFFF1FFFE0000
000FFFF1FFFE0000
0007FFF3FFFE0000
0007FFFBFFFC0000
0007FFFBFFFC0000
0007FFFBFFFC0000
0003FFFFFFFC0000
0003FFFFFFF80000
0003FFFFFFF80000
0003FFFFFFF80000
0001FFFFFFF80000
0001FFFFFFF00000
0001FFFFFFF00000
0001FFFFFFF00000
0001FFFFFFF00000
0000FFFFFFE00000
0000FFFFFFE00000
0000FFFFFFE00000
0000FFFFFFE00000
00007FFFFFC00000
00007FFFFFC00000
00007FFFFFC00000
00007FFFFFC00000
00003FFFFF800000
00003FFFFF800000
00003FFFFF800000
00003FFFFF800000
00001FFFFF000000
00001FFFFF000000
00001FFFFF000000
00001FFFFF000000
00000FFFFE000000
00000FFFFE000000
00000FFFFE000000
00000FFFFE000000
000007FFFC000000
000007FFFC000000
000007FFFC000000
ENDCHAR
STARTCHAR 0077
ENCODING 119
SWIDTH 750 0
DWIDTH 63 0
BBX 78 80 -8 5
BITMAP
FFFFFFC07FE00FFFFFFC
FFFFFFC07FE00FFFFFFC
FFFFFFC07FE00FFFFFFC
FFFFFFC07FF00FFFFFFC
FFFFFFC0FFF00FFFFFFC
FFFFFFC0FFF00FFFFFFC
FFFFFFC0FFF00FFFFFFC
FFFFFFC0FFF00FFFFFFC
FFFFFFC0FFF80FFFFFFC
FFFFFFC0FFF80FFFFFFC
FFFFFFC1FFF80FFFFFFC
FFFFFFC1FFF80FFFFFFC
FFFFFFC1FFF80FFFFFFC
FFFFFFC1FFF80FFFFFFC
FFFFFFC1FFFC0FFFFFFC
FFFFFFC3FFFC0FFFFFFC
FFFFFFC3FFFC0FFFFFFC
FFFFFFC3FFFC0FFFFFFC
FFFFFFC3FFFC0FFFFFFC
FFFFFFC3FFFE0FFFFFFC
07FFF803FFFE00FFFF00
03FFF807FFFE01FFFF00
03FFFC07FFFE01FFFF00
03FFFC07FFFE01FFFE00
03FFFC07FFFF01FFFE00
03FFFC07FFFF01FFFE00
03FFFE07FFFF03FFFE00
01FFFE0FFFFF03FFFE00
01FFFE0FFFFF03FFFC00
01FFFE0FFFFF83FFFC00
01FFFF0FFFFF87FFFC00
01FFFF0FFFFF87FFFC00
00FFFF0FFFFF87FFFC00
00FFFF1FFFFF87FFF800
00FFFF1FFFFFC7FFF800
00FFFF9FFFFFCFFFF800
00FFFF9FFFFFCFFFF800
007FFF9FFFFFCFFFF800
007FFF9FFFFFCFFFF000
007FFFFFFFFFFFFFF000
007FFFFFFFFFFFFFF000
007FFFFFFFFFFFFFF000
003FFFFFFFFFFFFFF000
003FFFFFFFFFFFFFE000
003FFFFFFFFFFFFFE000
003FFFFFFFFFFFFFE000
003FFFFFFFFFFFFFE000
001FFFFFFFFFFFFFE000
001FFFFFFFFFFFFFC000
001FFFFFFFFFFFFFC000
001FFFFFFFFFFFFFC000
001FFFFFF9FFFFFFC000
000FFFFFF9FFFFFFC000
000FFFFFF9FFFFFF8000
000FFFFFF9FFFFFF8000
000FFFFFF9FFFFFF8000
000FFFFFF8FFFFFF8000
000FFFFFF0FFFFFF8000
0007FFFFF0FFFFFF8000
0007FFFFF0FFFFFF0000
0007FFFFF07FFFFF0000
0007FFFFF07FFFFF0000
0007FFFFE07FFFFF0000
0003FFFFE07FFFFF0000
0003FFFFE07FFFFE0000
0003FFFFE03FFFFE0000
0003FFFFE03FFFFE0000
0003FFFFE03FFFFE0000
0001FFFFC03FFFFE0000
0001FFFFC03FFFFC0000
0001FFFFC01FFFFC0000
0001FFFFC01FFFFC0000
0001FFFFC01FFFFC0000
0000FFFF801FFFFC0000
0000FFFF800FFFF80000
0000FFFF800FFFF80000
0000FFFF800FFFF80000
0000FFFF800FFFF80000
00007FFF800FFFF80000
00007FFF0007FFF80000
ENDCHAR
STARTCHAR 0078
ENCODING 120
SWIDTH 726 0
DWIDTH 61 0
BBX 61 79 0 4
BITMAP
FFFFFFE07FFFFFF8
FFFFFFE07FFFFFF8
FFFFFFE07FFFFFF8
FFFFFFE07FFFFFF8
FFFFFFE07FFFFFF8
FFFFFFE07FFFFFF8
FFFFFFE07FFFFFF8
FFFFFFE07FFFFFF8
FFFFFFE07FFFFFF8
FFFFFFE07FFFFFF8
FFFFFFE07FFFFFF8
FFFFFFE07FFFFFF8
FFFFFFE07FFFFFF8
FFFFFFE07FFFFFF8
FFFFFFE07FFFFFF8
FFFFFFE07FFFFFF8
FFFFFFE07FFFFFF8
FFFFFFE07FFFFFF8
FFFFFFE07FFFFFF8
03FFFC0003FFFE00
01FFFE0007FFFC00
01FFFF0007FFF800
00FFFF000FFFF800
00FFFF801FFFF000
007FFFC01FFFE000
003FFFC03FFFC000
003FFFE07FFFC000
001FFFE0FFFF8000
000FFFF0FFFF0000
000FFFF9FFFF0000
0007FFFBFFFE0000
0003FFFFFFFC0000
0003FFFFFFF80000
0001FFFFFFF80000
0000FFFFFFF00000
0000FFFFFFE00000
00007FFFFFE00000
00003FFFFFC00000
00003FFFFF800000
00003FFFFF800000
00003FFFFFC00000
00007FFFFFC00000
0000FFFFFFE00000
0000FFFFFFF00000
0001FFFFFFF00000
0001FFFFFFF80000
0003FFFFFFFC0000
0007FFFFFFFC0000
0007FFFFFFFE0000
000FFFF9FFFF0000
000FFFF1FFFF0000
001FFFF0FFFF8000
003FFFE07FFFC000
003FFFE03FFFC000
007FFFC03FFFE000
007FFF801FFFF000
00FFFF800FFFF000
01FFFF000FFFF800
01FFFE0007FFFC00
03FFFE0003FFFC00
FFFFFFE07FFFFFF8
FFFFFFE07FFFFFF8
FFFFFFE07FFFFFF8
FFFFFFE07FFFFFF8
FFFFFFE07FFFFFF8
FFFFFFE07FFFFFF8
FFFFFFE07FFFFFF8
FFFFFFE07FFFFFF8
FFFFFFE07FFFFFF8
FFFFFFE07FFFFFF8
FFFFFFE07FFFFFF8
FFFFFFE07FFFFFF8
FFFFFFE07FFFFFF8
FFFFFFE07FFFFFF8
FFFFFFE07FFFFFF8
FFFFFFE07FFFFFF8
FFFFFFE07FFFFFF8
FFFFFFE07FFFFFF8
FFFFFFE07FFFFFF8
ENDCHAR
STARTCHAR 0079
ENCODING 121
SWIDTH 404 0
DWIDTH 34 0
BBX 54 79 -10 6
BITMAP
FFFFFF07FFFFFC
FFFFFF07FFFFFC
FFFFFF07FFFFFC
FFFFFF07FFFFFC
FFFFFF07FFFFFC
FFFFFF07FFFFFC
FFFFFF07FFFFFC
FFFFFF07FFFFFC
FFFFFF07FFFFFC
FFFFFF07FFFFFC
FFFFFF07FFFFFC
FFFFFF07FFFFFC
FFFFFF07FFFFFC
FFFFFF07FFFFFC
FFFFFF07FFFFFC
FFFFFF07FFFFFC
FFFFFF07FFFFFC
FFFFFF07FFFFFC
FFFFFF07FFFFFC
07FFFC01FFFF80
07FFFC01FFFF00
03FFFC01FFFF00
03FFFE03FFFE00
03FFFE03FFFE00
01FFFF07FFFC00
01FFFF07FFFC00
00FFFF8FFFF800
00FFFF8FFFF800
007FFFDFFFF000
007FFFDFFFF000
003FFFFFFFF000
003FFFFFFFE000
001FFFFFFFE000
001FFFFFFFC000
000FFFFFFFC000
000FFFFFFF8000
0007FFFFFF8000
0007FFFFFF0000
0003FFFFFF0000
0003FFFFFE0000
0001FFFFFE0000
0001FFFFFC0000
0000FFFFFC0000
0000FFFFF80000
00007FFFF80000
00007FFFF00000
00003FFFF00000
00003FFFE00000
00003FFFE00000
00003FFFE00000
00003FFFE00000
00003FFFE00000
00003FFFE00000
00003FFFE00000
00003FFFE00000
00003FFFE00000
00003FFFE00000
00003FFFE00000
00003FFFE00000
00003FFFE00000
0007FFFFFF0000
0007FFFFFF0000
0007FFFFFF0000
0007FFFFFF0000
0007FFFFFF0000
0007FFFFFF0000
0007FFFFFF0000
0007FFFFFF0000
0007FFFFFF0000
0007FFFFFF0000
0007FFFFFF0000
0007FFFFFF0000
0007FFFFFF0000
0007FFFFFF0000
0007FFFFFF0000
0007FFFFFF0000
0007FFFFFF0000
0007FFFFFF0000
0007FFFFFF0000
ENDCHAR
STARTCHAR 007A
ENCODING 122
SWIDTH 678 0
DWIDTH 57 0
BBX 56 80 1 5
BITMAP
FFFFFFFFFFFFFE
FFFFFFFFFFFFFE
FFFFFFFFFFFFFE
FFFFFFFFFFFFFE
FFFFFFFFFFFFFE
FFFFFFFFFFFFFE
FFFFFFFFFFFFFE
FFFFFFFFFFFFFE
FFFFFFFFFFFFFE
FFFFFFFFFFFFFE
FFFFFFFFFFFFFE
FFFFFFFFFFFFFE
FFFFFFFFFFFFFE
FFFFFFFFFFFFFE
FFFFFFFFFFFFFE
FFFFFFFFFFFFFE
FFFFFFFFFFFFFE
FFFFFFFFFFFFFE
FFFFFFFFFFFFFE
FFFFFFFFFFFFFE
FFFC0000FFFFFC
FFFC0001FFFFF8
FFFC0001FFFFF8
FFFC0003FFFFF0
00000007FFFFE0
0000000FFFFFC0
0000001FFFFF80
0000001FFFFF80
0000003FFFFF00
0000007FFFFE00
000000FFFFFC00
000001FFFFF800
000001FFFFF000
000003FFFFF000
000007FFFFE000
00000FFFFFC000
00001FFFFF8000
00003FFFFF0000
00003FFFFF0000
00007FFFFE0000
0000FFFFFC0000
0001FFFFF80000
0003FFFFF00000
0003FFFFF00000
0007FFFFE00000
000FFFFFC00000
001FFFFF800000
003FFFFF000000
003FFFFF000000
007FFFFE000000
00FFFFFC000000
01FFFFF8000000
03FFFFF0000000
03FFFFF0000000
07FFFFE0000000
0FFFFFC0000000
1FFFFF8001FFFF
3FFFFF0001FFFF
7FFFFF0001FFFF
7FFFFE0001FFFF
FFFFFC0001FFFF
FFFFFFFFFFFFFF
FFFFFFFFFFFFFF
FFFFFFFFFFFFFF
FFFFFFFFFFFFFF
FFFFFFFFFFFFFF
FFFFFFFFFFFFFF
FFFFFFFFFFFFFF
FFFFFFFFFFFFFF
FFFFFFFFFFFFFF
FFFFFFFFFFFFFF
FFFFFFFFFFFFFF
FFFFFFFFFFFFFF
FFFFFFFFFFFFFF
FFFFFFFFFFFFFF
FFFFFFFFFFFFFF
FFFFFFFFFFFFFF
FFFFFFFFFFFFFF
FFFFFFFFFFFFFF
FFFFFFFFFFFFFF
ENDCHAR
STARTCHAR 007B
ENCODING 123
SWIDTH 500 0
DWIDTH 42 0
BBX 0 0 0 0
BITMAP
ENDCHAR
STARTCHAR 007C
ENCODING 124
SWIDTH 500 0
DWIDTH 42 0
BBX 0 0 0 0
BITMAP
ENDCHAR
STARTCHAR 007D
ENCODING 125
SWIDTH 500 0
DWIDTH 42 0
BBX 0 0 0 0
BITMAP
ENDCHAR
STARTCHAR 007E
ENCODING 126
SWIDTH 500 0
DWIDTH 42 0
BBX 0 0 0 0
BITMAP
ENDCHAR
STARTCHAR 00A0
ENCODING 160
SWIDTH 23 0
DWIDTH 2 0
BBX 0 0 0 0
BITMAP
ENDCHAR
STARTCHAR 00A1
ENCODING 161
SWIDTH 500 0
DWIDTH 42 0
BBX 0 0 0 0
BITMAP
ENDCHAR
STARTCHAR 00A2
ENCODING 162
SWIDTH 500 0
DWIDTH 42 0
BBX 0 0 0 0
BITMAP
ENDCHAR
STARTCHAR 00A3
ENCODING 163
SWIDTH 500 0
DWIDTH 42 0
BBX 0 0 0 0
BITMAP
ENDCHAR
STARTCHAR 00A4
ENCODING 164
SWIDTH 500 0
DWIDTH 42 0
BBX 0 0 0 0
BITMAP
ENDCHAR
STARTCHAR 00A5
ENCODING 165
SWIDTH 500 0
DWIDTH 42 0
BBX 0 0 0 0
BITMAP
ENDCHAR
STARTCHAR 00A6
ENCODING 166
SWIDTH 500 0
DWIDTH 42 0
BBX 0 0 0 0
BITMAP
ENDCHAR
STARTCHAR 00A7
ENCODING 167
SWIDTH 500 0
DWIDTH 42 0
BBX 0 0 0 0
BITMAP
ENDCHAR
STARTCHAR 00A8
ENCODING 168
SWIDTH 500 0
DWIDTH 42 0
BBX 0 0 0 0
BITMAP
ENDCHAR
STARTCHAR 00A9
ENCODING 169
SWIDTH 500 0
DWIDTH 42 0
BBX 0 0 0 0
BITMAP
ENDCHAR
STARTCHAR 00AA
ENCODING 170
SWIDTH 500 0
DWIDTH 42 0
BBX 0 0 0 0
BITMAP
ENDCHAR
STARTCHAR 00AB
ENCODING 171
SWIDTH 500 0
DWIDTH 42 0
BBX 0 0 0 0
BITMAP
ENDCHAR
STARTCHAR 00AC
ENCODING 172
SWIDTH 500 0
DWIDTH 42 0
BBX 0 0 0 0
BITMAP
ENDCHAR
STARTCHAR 00AD
ENCODING 173
SWIDTH 500 0
DWIDTH 42 0
BBX 0 0 0 0
BITMAP
ENDCHAR
STARTCHAR 00AE
ENCODING 174
SWIDTH 500 0
DWIDTH 42 0
BBX 0 0 0 0
BITMAP
ENDCHAR
STARTCHAR 00AF
ENCODING 175
SWIDTH 23 0
DWIDTH 2 0
BBX 0 0 0 0
BITMAP
ENDCHAR
STARTCHAR 00B0
ENCODING 176
SWIDTH 500 0
DWIDTH 42 0
BBX 0 0 0 0
BITMAP
ENDCHAR
STARTCHAR 00B1
ENCODING 177
SWIDTH 500 0
DWIDTH 42 0
BBX 0 0 0 0
BITMAP
ENDCHAR
STARTCHAR 00B2
ENCODING 178
SWIDTH 500 0
DWIDTH 42 0
BBX 0 0 0 0
BITMAP
ENDCHAR
STARTCHAR 00B3
ENCODING 179
SWIDTH 500 0
DWIDTH 42 0
BBX 0 0 0 0
BITMAP
ENDCHAR
STARTCHAR 00B4
ENCODING 180
SWIDTH 500 0
DWIDTH 42 0
BBX 0 0 0 0
BITMAP
ENDCHAR
STARTCHAR 00B5
ENCODING 181
SWIDTH 500 0
DWIDTH 42 0
BBX 0 0 0 0
BITMAP
ENDCHAR
STARTCHAR 00B6
ENCODING 182
SWIDTH 500 0
DWIDTH 42 0
BBX 0 0 0 0
BITMAP
ENDCHAR
STARTCHAR 00B7
ENCODING 183
SWIDTH 23 0
DWIDTH 2 0
BBX 0 0 0 0
BITMAP
ENDCHAR
STARTCHAR 00B8
ENCODING 184
SWIDTH 500 0
DWIDTH 42 0
BBX 0 0 0 0
BITMAP
ENDCHAR
STARTCHAR 00B9
ENCODING 185
SWIDTH 500 0
DWIDTH 42 0
BBX 0 0 0 0
BITMAP
ENDCHAR
STARTCHAR 00BA
ENCODING 186
SWIDTH 500 0
DWIDTH 42 0
BBX 0 0 0 0
BITMAP
ENDCHAR
STARTCHAR 00BB
ENCODING 187
SWIDTH 500 0
DWIDTH 42 0
BBX 0 0 0 0
BITMAP
ENDCHAR
STARTCHAR 00BC
ENCODING 188
SWIDTH 500 0
DWIDTH 42 0
BBX 0 0 0 0
BITMAP
ENDCHAR
STARTCHAR 00BD
ENCODING 189
SWIDTH 500 0
DWIDTH 42 0
BBX 0 0 0 0
BITMAP
ENDCHAR
STARTCHAR 00BE
ENCODING 190
SWIDTH 500 0
DWIDTH 42 0
BBX 0 0 0 0
BITMAP
ENDCHAR
STARTCHAR 00BF
ENCODING 191
SWIDTH 500 0
DWIDTH 42 0
BBX 0 0 0 0
BITMAP
ENDCHAR
STARTCHAR 00C0
ENCODING 192
SWIDTH 500 0
DWIDTH 42 0
BBX 0 0 0 0
BITMAP
ENDCHAR
STARTCHAR 00C1
ENCODING 193
SWIDTH 500 0
DWIDTH 42 0
BBX 0 0 0 0
BITMAP
ENDCHAR
STARTCHAR 00C2
ENCODING 194
SWIDTH 500 0
DWIDTH 42 0
BBX 0 0 0 0
BITMAP
ENDCHAR
STARTCHAR 00C3
ENCODING 195
SWIDTH 500 0
DWIDTH 42 0
BBX 0 0 0 0
BITMAP
ENDCHAR
STARTCHAR 00C4
ENCODING 196
SWIDTH 500 0
DWIDTH 42 0
BBX 0 0 0 0
BITMAP
ENDCHAR
STARTCHAR 00C5
ENCODING 197
SWIDTH 500 0
DWIDTH 42 0
BBX 0 0 0 0
BITMAP
ENDCHAR
STARTCHAR 00C6
ENCODING 198
SWIDTH 500 0
DWIDTH 42 0
BBX 0 0 0 0
BITMAP
ENDCHAR
STARTCHAR 00C7
ENCODING 199
SWIDTH 500 0
DWIDTH 42 0
BBX 0 0 0 0
BITMAP
ENDCHAR
STARTCHAR 00C8
ENCODING 200
SWIDTH 500 0
DWIDTH 42 0
BBX 0 0 0 0
BITMAP
ENDCHAR
STARTCHAR 00C9
ENCODING 201
SWIDTH 500 0
DWIDTH 42 0
BBX 0 0 0 0
BITMAP
ENDCHAR
STARTCHAR 00CA
ENCODING 202
SWIDTH 500 0
DWIDTH 42 0
BBX 0 0 0 0
BITMAP
ENDCHAR
STARTCHAR 00CB
ENCODING 203
SWIDTH 500 0
DWIDTH 42 0
BBX 0 0 0 0
BITMAP
ENDCHAR
STARTCHAR 00CC
ENCODING 204
SWIDTH 500 0
DWIDTH 42 0
BBX 0 0 0 0
BITMAP
ENDCHAR
STARTCHAR 00CD
ENCODING 205
SWIDTH 500 0
DWIDTH 42 0
BBX 0 0 0 0
BITMAP
ENDCHAR
STARTCHAR 00CE
ENCODING 206
SWIDTH 500 0
DWIDTH 42 0
BBX 0 0 0 0
BITMAP
ENDCHAR
STARTCHAR 00CF
ENCODING 207
SWIDTH 500 0
DWIDTH 42 0
BBX 0 0 0 0
BITMAP
ENDCHAR
STARTCHAR 00D0
ENCODING 208
SWIDTH 500 0
DWIDTH 42 0
BBX 0 0 0 0
BITMAP
ENDCHAR
STARTCHAR 00D1
ENCODING 209
SWIDTH 500 0
DWIDTH 42 0
BBX 0 0 0 0
BITMAP
ENDCHAR
STARTCHAR 00D2
ENCODING 210
SWIDTH 23 0
DWIDTH 2 0
BBX 0 0 0 0
BITMAP
ENDCHAR
STARTCHAR 00D3
ENCODING 211
SWIDTH 500 0
DWIDTH 42 0
BBX 0 0 0 0
BITMAP
ENDCHAR
STARTCHAR 00D4
ENCODING 212
SWIDTH 500 0
DWIDTH 42 0
BBX 0 0 0 0
BITMAP
ENDCHAR
STARTCHAR 00D5
ENCODING 213
SWIDTH 500 0
DWIDTH 42 0
BBX 0 0 0 0
BITMAP
ENDCHAR
STARTCHAR 00D6
ENCODING 214
SWIDTH 500 0
DWIDTH 42 0
BBX 0 0 0 0
BITMAP
ENDCHAR
STARTCHAR 00D7
ENCODING 215
SWIDTH 500 0
DWIDTH 42 0
BBX 0 0 0 0
BITMAP
ENDCHAR
STARTCHAR 00D8
ENCODING 216
SWIDTH 500 0
DWIDTH 42 0
BBX 0 0 0 0
BITMAP
ENDCHAR
STARTCHAR 00D9
ENCODING 217
SWIDTH 500 0
DWIDTH 42 0
BBX 0 0 0 0
BITMAP
ENDCHAR
STARTCHAR 00DA
ENCODING 218
SWIDTH 500 0
DWIDTH 42 0
BBX 0 0 0 0
BITMAP
ENDCHAR
STARTCHAR 00DB
ENCODING 219
SWIDTH 500 0
DWIDTH 42 0
BBX 0 0 0 0
BITMAP
ENDCHAR
STARTCHAR 00DC
ENCODING 220
SWIDTH 500 0
DWIDTH 42 0
BBX 0 0 0 0
BITMAP
ENDCHAR
STARTCHAR 00DD
ENCODING 221
SWIDTH 23 0
DWIDTH 2 0
BBX 0 0 0 0
BITMAP
ENDCHAR
STARTCHAR 00DE
ENCODING 222
SWIDTH 500 0
DWIDTH 42 0
BBX 0 0 0 0
BITMAP
ENDCHAR
STARTCHAR 00DF
ENCODING 223
SWIDTH 500 0
DWIDTH 42 0
BBX 0 0 0 0
BITMAP
ENDCHAR
STARTCHAR 00E0
ENCODING 224
SWIDTH 500 0
DWIDTH 42 0
BBX 0 0 0 0
BITMAP
ENDCHAR
STARTCHAR 00E1
ENCODING 225
SWIDTH 500 0
DWIDTH 42 0
BBX 0 0 0 0
BITMAP
ENDCHAR
STARTCHAR 00E2
ENCODING 226
SWIDTH 500 0
DWIDTH 42 0
BBX 0 0 0 0
BITMAP
ENDCHAR
STARTCHAR 00E3
ENCODING 227
SWIDTH 500 0
DWIDTH 42 0
BBX 0 0 0 0
BITMAP
ENDCHAR
STARTCHAR 00E4
ENCODING 228
SWIDTH 500 0
DWIDTH 42 0
BBX 0 0 0 0
BITMAP
ENDCHAR
STARTCHAR 00E5
ENCODING 229
SWIDTH 500 0
DWIDTH 42 0
BBX 0 0 0 0
BITMAP
ENDCHAR
STARTCHAR 00E6
ENCODING 230
SWIDTH 500 0
DWIDTH 42 0
BBX 0 0 0 0
BITMAP
ENDCHAR
STARTCHAR 00E7
ENCODING 231
SWIDTH 500 0
DWIDTH 42 0
BBX 0 0 0 0
BITMAP
ENDCHAR
STARTCHAR 00E8
ENCODING 232
SWIDTH 500 0
DWIDTH 42 0
BBX 0 0 0 0
BITMAP
ENDCHAR
STARTCHAR 00E9
ENCODING 233
SWIDTH 500 0
DWIDTH 42 0
BBX 0 0 0 0
BITMAP
ENDCHAR
STARTCHAR 00EA
ENCODING 234
SWIDTH 500 0
DWIDTH 42 0
BBX 0 0 0 0
BITMAP
ENDCHAR
STARTCHAR 00EB
ENCODING 235
SWIDTH 500 0
DWIDTH 42 0
BBX 0 0 0 0
BITMAP
ENDCHAR
STARTCHAR 00EC
ENCODING 236
SWIDTH 500 0
DWIDTH 42 0
BBX 0 0 0 0
BITMAP
ENDCHAR
STARTCHAR 00ED
ENCODING 237
SWIDTH 500 0
DWIDTH 42 0
BBX 0 0 0 0
BITMAP
ENDCHAR
STARTCHAR 00EE
ENCODING 238
SWIDTH 500 0
DWIDTH 42 0
BBX 0 0 0 0
BITMAP
ENDCHAR
STARTCHAR 00EF
ENCODING 239
SWIDTH 500 0
DWIDTH 42 0
BBX 0 0 0 0
BITMAP
ENDCHAR
STARTCHAR 00F0
ENCODING 240
SWIDTH 500 0
DWIDTH 42 0
BBX 0 0 0 0
BITMAP
ENDCHAR
STARTCHAR 00F1
ENCODING 241
SWIDTH 500 0
DWIDTH 42 0
BBX 0 0 0 0
BITMAP
ENDCHAR
STARTCHAR 00F2
ENCODING 242
SWIDTH 500 0
DWIDTH 42 0
BBX 0 0 0 0
BITMAP
ENDCHAR
STARTCHAR 00F3
ENCODING 243
SWIDTH 500 0
DWIDTH 42 0
BBX 0 0 0 0
BITMAP
ENDCHAR
STARTCHAR 00F4
ENCODING 244
SWIDTH 500 0
DWIDTH 42 0
BBX 0 0 0 0
BITMAP
ENDCHAR
STARTCHAR 00F5
ENCODING 245
SWIDTH 500 0
DWIDTH 42 0
BBX 0 0 0 0
BITMAP
ENDCHAR
STARTCHAR 00F6
ENCODING 246
SWIDTH 500 0
DWIDTH 42 0
BBX 0 0 0 0
BITMAP
ENDCHAR
STARTCHAR 00F7
ENCODING 247
SWIDTH 500 0
DWIDTH 42 0
BBX 0 0 0 0
BITMAP
ENDCHAR
STARTCHAR 00F8
ENCODING 248
SWIDTH 500 0
DWIDTH 42 0
BBX 0 0 0 0
BITMAP
ENDCHAR
STARTCHAR 00F9
ENCODING 249
SWIDTH 500 0
DWIDTH 42 0
BBX 0 0 0 0
BITMAP
ENDCHAR
STARTCHAR 00FA
ENCODING 250
SWIDTH 500 0
DWIDTH 42 0
BBX 0 0 0 0
BITMAP
ENDCHAR
STARTCHAR 00FB
ENCODING 251
SWIDTH 500 0
DWIDTH 42 0
BBX 0 0 0 0
BITMAP
ENDCHAR
STARTCHAR 00FC
ENCODING 252
SWIDTH 500 0
DWIDTH 42 0
BBX 0 0 0 0
BITMAP
ENDCHAR
STARTCHAR 00FD
ENCODING 253
SWIDTH 23 0
DWIDTH 2 0
BBX 0 0 0 0
BITMAP
ENDCHAR
STARTCHAR 00FE
ENCODING 254
SWIDTH 500 0
DWIDTH 42 0
BBX 0 0 0 0
BITMAP
ENDCHAR
STARTCHAR 00FF
ENCODING 255
SWIDTH 500 0
DWIDTH 42 0
BBX 0 0 0 0
BITMAP
ENDCHAR
STARTCHAR 0102
ENCODING 258
SWIDTH 23 0
DWIDTH 2 0
BBX 0 0 0 0
BITMAP
ENDCHAR
STARTCHAR 0103
ENCODING 259
SWIDTH 23 0
DWIDTH 2 0
BBX 0 0 0 0
BITMAP
ENDCHAR
STARTCHAR 0104
ENCODING 260
SWIDTH 23 0
DWIDTH 2 0
BBX 0 0 0 0
BITMAP
ENDCHAR
STARTCHAR 0105
ENCODING 261
SWIDTH 23 0
DWIDTH 2 0
BBX 0 0 0 0
BITMAP
ENDCHAR
STARTCHAR 0106
ENCODING 262
SWIDTH 23 0
DWIDTH 2 0
BBX 0 0 0 0
BITMAP
ENDCHAR
STARTCHAR 0107
ENCODING 263
SWIDTH 23 0
DWIDTH 2 0
BBX 0 0 0 0
BITMAP
ENDCHAR
STARTCHAR 010C
ENCODING 268
SWIDTH 23 0
DWIDTH 2 0
BBX 0 0 0 0
BITMAP
ENDCHAR
STARTCHAR 010D
ENCODING 269
SWIDTH 23 0
DWIDTH 2 0
BBX 0 0 0 0
BITMAP
ENDCHAR
STARTCHAR 010E
ENCODING 270
SWIDTH 23 0
DWIDTH 2 0
BBX 0 0 0 0
BITMAP
ENDCHAR
STARTCHAR 010F
ENCODING 271
SWIDTH 23 0
DWIDTH 2 0
BBX 0 0 0 0
BITMAP
ENDCHAR
STARTCHAR 0110
ENCODING 272
SWIDTH 23 0
DWIDTH 2 0
BBX 0 0 0 0
BITMAP
ENDCHAR
STARTCHAR 0111
ENCODING 273
SWIDTH 23 0
DWIDTH 2 0
BBX 0 0 0 0
BITMAP
ENDCHAR
STARTCHAR 0118
ENCODING 280
SWIDTH 23 0
DWIDTH 2 0
BBX 0 0 0 0
BITMAP
ENDCHAR
STARTCHAR 0119
ENCODING 281
SWIDTH 23 0
DWIDTH 2 0
BBX 0 0 0 0
BITMAP
ENDCHAR
STARTCHAR 011A
ENCODING 282
SWIDTH 23 0
DWIDTH 2 0
BBX 0 0 0 0
BITMAP
ENDCHAR
STARTCHAR 011B
ENCODING 283
SWIDTH 23 0
DWIDTH 2 0
BBX 0 0 0 0
BITMAP
ENDCHAR
STARTCHAR 011E
ENCODING 286
SWIDTH 23 0
DWIDTH 2 0
BBX 0 0 0 0
BITMAP
ENDCHAR
STARTCHAR 011F
ENCODING 287
SWIDTH 23 0
DWIDTH 2 0
BBX 0 0 0 0
BITMAP
ENDCHAR
STARTCHAR 0130
ENCODING 304
SWIDTH 23 0
DWIDTH 2 0
BBX 0 0 0 0
BITMAP
ENDCHAR
STARTCHAR 0131
ENCODING 305
SWIDTH 500 0
DWIDTH 42 0
BBX 0 0 0 0
BITMAP
ENDCHAR
STARTCHAR 0139
ENCODING 313
SWIDTH 23 0
DWIDTH 2 0
BBX 0 0 0 0
BITMAP
ENDCHAR
STARTCHAR 013A
ENCODING 314
SWIDTH 23 0
DWIDTH 2 0
BBX 0 0 0 0
BITMAP
ENDCHAR
STARTCHAR 013D
ENCODING 317
SWIDTH 23 0
DWIDTH 2 0
BBX 0 0 0 0
BITMAP
ENDCHAR
STARTCHAR 013E
ENCODING 318
SWIDTH 23 0
DWIDTH 2 0
BBX 0 0 0 0
BITMAP
ENDCHAR
STARTCHAR 013F
ENCODING 319
SWIDTH 23 0
DWIDTH 2 0
BBX 0 0 0 0
BITMAP
ENDCHAR
STARTCHAR 0140
ENCODING 320
SWIDTH 23 0
DWIDTH 2 0
BBX 0 0 0 0
BITMAP
ENDCHAR
STARTCHAR 0141
ENCODING 321
SWIDTH 500 0
DWIDTH 42 0
BBX 0 0 0 0
BITMAP
ENDCHAR
STARTCHAR 0142
ENCODING 322
SWIDTH 500 0
DWIDTH 42 0
BBX 0 0 0 0
BITMAP
ENDCHAR
STARTCHAR 0143
ENCODING 323
SWIDTH 23 0
DWIDTH 2 0
BBX 0 0 0 0
BITMAP
ENDCHAR
STARTCHAR 0144
ENCODING 324
SWIDTH 23 0
DWIDTH 2 0
BBX 0 0 0 0
BITMAP
ENDCHAR
STARTCHAR 0147
ENCODING 327
SWIDTH 23 0
DWIDTH 2 0
BBX 0 0 0 0
BITMAP
ENDCHAR
STARTCHAR 0148
ENCODING 328
SWIDTH 23 0
DWIDTH 2 0
BBX 0 0 0 0
BITMAP
ENDCHAR
STARTCHAR 0150
ENCODING 336
SWIDTH 23 0
DWIDTH 2 0
BBX 0 0 0 0
BITMAP
ENDCHAR
STARTCHAR 0151
ENCODING 337
SWIDTH 23 0
DWIDTH 2 0
BBX 0 0 0 0
BITMAP
ENDCHAR
STARTCHAR 0152
ENCODING 338
SWIDTH 500 0
DWIDTH 42 0
BBX 0 0 0 0
BITMAP
ENDCHAR
STARTCHAR 0153
ENCODING 339
SWIDTH 500 0
DWIDTH 42 0
BBX 0 0 0 0
BITMAP
ENDCHAR
STARTCHAR 0154
ENCODING 340
SWIDTH 23 0
DWIDTH 2 0
BBX 0 0 0 0
BITMAP
ENDCHAR
STARTCHAR 0155
ENCODING 341
SWIDTH 23 0
DWIDTH 2 0
BBX 0 0 0 0
BITMAP
ENDCHAR
STARTCHAR 0158
ENCODING 344
SWIDTH 23 0
DWIDTH 2 0
BBX 0 0 0 0
BITMAP
ENDCHAR
STARTCHAR 0159
ENCODING 345
SWIDTH 23 0
DWIDTH 2 0
BBX 0 0 0 0
BITMAP
ENDCHAR
STARTCHAR 015A
ENCODING 346
SWIDTH 23 0
DWIDTH 2 0
BBX 0 0 0 0
BITMAP
ENDCHAR
STARTCHAR 015B
ENCODING 347
SWIDTH 23 0
DWIDTH 2 0
BBX 0 0 0 0
BITMAP
ENDCHAR
STARTCHAR 015E
ENCODING 350
SWIDTH 23 0
DWIDTH 2 0
BBX 0 0 0 0
BITMAP
ENDCHAR
STARTCHAR 015F
ENCODING 351
SWIDTH 23 0
DWIDTH 2 0
BBX 0 0 0 0
BITMAP
ENDCHAR
STARTCHAR 0160
ENCODING 352
SWIDTH 500 0
DWIDTH 42 0
BBX 0 0 0 0
BITMAP
ENDCHAR
STARTCHAR 0161
ENCODING 353
SWIDTH 500 0
DWIDTH 42 0
BBX 0 0 0 0
BITMAP
ENDCHAR
STARTCHAR 0162
ENCODING 354
SWIDTH 23 0
DWIDTH 2 0
BBX 0 0 0 0
BITMAP
ENDCHAR
STARTCHAR 0163
ENCODING 355
SWIDTH 23 0
DWIDTH 2 0
BBX 0 0 0 0
BITMAP
ENDCHAR
STARTCHAR 0164
ENCODING 356
SWIDTH 23 0
DWIDTH 2 0
BBX 0 0 0 0
BITMAP
ENDCHAR
STARTCHAR 0165
ENCODING 357
SWIDTH 23 0
DWIDTH 2 0
BBX 0 0 0 0
BITMAP
ENDCHAR
STARTCHAR 016E
ENCODING 366
SWIDTH 23 0
DWIDTH 2 0
BBX 0 0 0 0
BITMAP
ENDCHAR
STARTCHAR 016F
ENCODING 367
SWIDTH 23 0
DWIDTH 2 0
BBX 0 0 0 0
BITMAP
ENDCHAR
STARTCHAR 0170
ENCODING 368
SWIDTH 23 0
DWIDTH 2 0
BBX 0 0 0 0
BITMAP
ENDCHAR
STARTCHAR 0171
ENCODING 369
SWIDTH 23 0
DWIDTH 2 0
BBX 0 0 0 0
BITMAP
ENDCHAR
STARTCHAR 0178
ENCODING 376
SWIDTH 500 0
DWIDTH 42 0
BBX 0 0 0 0
BITMAP
ENDCHAR
STARTCHAR 0179
ENCODING 377
SWIDTH 23 0
DWIDTH 2 0
BBX 0 0 0 0
BITMAP
ENDCHAR
STARTCHAR 017A
ENCODING 378
SWIDTH 23 0
DWIDTH 2 0
BBX 0 0 0 0
BITMAP
ENDCHAR
STARTCHAR 017B
ENCODING 379
SWIDTH 23 0
DWIDTH 2 0
BBX 0 0 0 0
BITMAP
ENDCHAR
STARTCHAR 017C
ENCODING 380
SWIDTH 23 0
DWIDTH 2 0
BBX 0 0 0 0
BITMAP
ENDCHAR
STARTCHAR 017D
ENCODING 381
SWIDTH 500 0
DWIDTH 42 0
BBX 0 0 0 0
BITMAP
ENDCHAR
STARTCHAR 017E
ENCODING 382
SWIDTH 500 0
DWIDTH 42 0
BBX 0 0 0 0
BITMAP
ENDCHAR
STARTCHAR 0192
ENCODING 402
SWIDTH 500 0
DWIDTH 42 0
BBX 0 0 0 0
BITMAP
ENDCHAR
STARTCHAR 02BA
ENCODING 698
SWIDTH 500 0
DWIDTH 42 0
BBX 0 0 0 0
BITMAP
ENDCHAR
STARTCHAR 02C6
ENCODING 710
SWIDTH 500 0
DWIDTH 42 0
BBX 0 0 0 0
BITMAP
ENDCHAR
STARTCHAR 02C7
ENCODING 711
SWIDTH 500 0
DWIDTH 42 0
BBX 0 0 0 0
BITMAP
ENDCHAR
STARTCHAR 02C9
ENCODING 713
SWIDTH 500 0
DWIDTH 42 0
BBX 0 0 0 0
BITMAP
ENDCHAR
STARTCHAR 02D8
ENCODING 728
SWIDTH 500 0
DWIDTH 42 0
BBX 0 0 0 0
BITMAP
ENDCHAR
STARTCHAR 02D9
ENCODING 729
SWIDTH 500 0
DWIDTH 42 0
BBX 0 0 0 0
BITMAP
ENDCHAR
STARTCHAR 02DA
ENCODING 730
SWIDTH 500 0
DWIDTH 42 0
BBX 0 0 0 0
BITMAP
ENDCHAR
STARTCHAR 02DB
ENCODING 731
SWIDTH 500 0
DWIDTH 42 0
BBX 0 0 0 0
BITMAP
ENDCHAR
STARTCHAR 02DC
ENCODING 732
SWIDTH 500 0
DWIDTH 42 0
BBX 0 0 0 0
BITMAP
ENDCHAR
STARTCHAR 0393
ENCODING 915
SWIDTH 500 0
DWIDTH 42 0
BBX 0 0 0 0
BITMAP
ENDCHAR
STARTCHAR 0398
ENCODING 920
SWIDTH 500 0
DWIDTH 42 0
BBX 0 0 0 0
BITMAP
ENDCHAR
STARTCHAR 03A3
ENCODING 931
SWIDTH 500 0
DWIDTH 42 0
BBX 0 0 0 0
BITMAP
ENDCHAR
STARTCHAR 03A6
ENCODING 934
SWIDTH 500 0
DWIDTH 42 0
BBX 0 0 0 0
BITMAP
ENDCHAR
STARTCHAR 03A9
ENCODING 937
SWIDTH 500 0
DWIDTH 42 0
BBX 0 0 0 0
BITMAP
ENDCHAR
STARTCHAR 03B1
ENCODING 945
SWIDTH 500 0
DWIDTH 42 0
BBX 0 0 0 0
BITMAP
ENDCHAR
STARTCHAR 03B4
ENCODING 948
SWIDTH 500 0
DWIDTH 42 0
BBX 0 0 0 0
BITMAP
ENDCHAR
STARTCHAR 03B5
ENCODING 949
SWIDTH 500 0
DWIDTH 42 0
BBX 0 0 0 0
BITMAP
ENDCHAR
STARTCHAR 03C0
ENCODING 960
SWIDTH 500 0
DWIDTH 42 0
BBX 0 0 0 0
BITMAP
ENDCHAR
STARTCHAR 03C3
ENCODING 963
SWIDTH 23 0
DWIDTH 2 0
BBX 0 0 0 0
BITMAP
ENDCHAR
STARTCHAR 03C4
ENCODING 964
SWIDTH 500 0
DWIDTH 42 0
BBX 0 0 0 0
BITMAP
ENDCHAR
STARTCHAR 03C6
ENCODING 966
SWIDTH 23 0
DWIDTH 2 0
BBX 0 0 0 0
BITMAP
ENDCHAR
STARTCHAR 2013
ENCODING 8211
SWIDTH 500 0
DWIDTH 42 0
BBX 0 0 0 0
BITMAP
ENDCHAR
STARTCHAR 2014
ENCODING 8212
SWIDTH 500 0
DWIDTH 42 0
BBX 0 0 0 0
BITMAP
ENDCHAR
STARTCHAR 2017
ENCODING 8215
SWIDTH 500 0
DWIDTH 42 0
BBX 0 0 0 0
BITMAP
ENDCHAR
STARTCHAR 2018
ENCODING 8216
SWIDTH 500 0
DWIDTH 42 0
BBX 0 0 0 0
BITMAP
ENDCHAR
STARTCHAR 2019
ENCODING 8217
SWIDTH 23 0
DWIDTH 2 0
BBX 11 20 -2 64
BITMAP
FFE0
FFE0
FFE0
FFE0
7FE0
7FE0
7FE0
7FE0
7FE0
3FE0
3FE0
3FE0
3FE0
3FE0
1FE0
1FE0
1FE0
1FE0
1FE0
0FE0
ENDCHAR
STARTCHAR 201A
ENCODING 8218
SWIDTH 500 0
DWIDTH 42 0
BBX 0 0 0 0
BITMAP
ENDCHAR
STARTCHAR 201C
ENCODING 8220
SWIDTH 500 0
DWIDTH 42 0
BBX 0 0 0 0
BITMAP
ENDCHAR
STARTCHAR 201D
ENCODING 8221
SWIDTH 500 0
DWIDTH 42 0
BBX 0 0 0 0
BITMAP
ENDCHAR
STARTCHAR 201E
ENCODING 8222
SWIDTH 500 0
DWIDTH 42 0
BBX 0 0 0 0
BITMAP
ENDCHAR
STARTCHAR 2020
ENCODING 8224
SWIDTH 500 0
DWIDTH 42 0
BBX 0 0 0 0
BITMAP
ENDCHAR
STARTCHAR 2021
ENCODING 8225
SWIDTH 500 0
DWIDTH 42 0
BBX 0 0 0 0
BITMAP
ENDCHAR
STARTCHAR 2022
ENCODING 8226
SWIDTH 500 0
DWIDTH 42 0
BBX 0 0 0 0
BITMAP
ENDCHAR
STARTCHAR 2026
ENCODING 8230
SWIDTH 500 0
DWIDTH 42 0
BBX 0 0 0 0
BITMAP
ENDCHAR
STARTCHAR 2030
ENCODING 8240
SWIDTH 500 0
DWIDTH 42 0
BBX 0 0 0 0
BITMAP
ENDCHAR
STARTCHAR 2039
ENCODING 8249
SWIDTH 500 0
DWIDTH 42 0
BBX 0 0 0 0
BITMAP
ENDCHAR
STARTCHAR 203A
ENCODING 8250
SWIDTH 500 0
DWIDTH 42 0
BBX 0 0 0 0
BITMAP
ENDCHAR
STARTCHAR 203C
ENCODING 8252
SWIDTH 500 0
DWIDTH 42 0
BBX 0 0 0 0
BITMAP
ENDCHAR
STARTCHAR 207F
ENCODING 8319
SWIDTH 500 0
DWIDTH 42 0
BBX 0 0 0 0
BITMAP
ENDCHAR
STARTCHAR 20A3
ENCODING 8355
SWIDTH 500 0
DWIDTH 42 0
BBX 0 0 0 0
BITMAP
ENDCHAR
STARTCHAR 20A7
ENCODING 8359
SWIDTH 500 0
DWIDTH 42 0
BBX 0 0 0 0
BITMAP
ENDCHAR
STARTCHAR 2122
ENCODING 8482
SWIDTH 500 0
DWIDTH 42 0
BBX 0 0 0 0
BITMAP
ENDCHAR
STARTCHAR 2190
ENCODING 8592
SWIDTH 23 0
DWIDTH 2 0
BBX 0 0 0 0
BITMAP
ENDCHAR
STARTCHAR 2191
ENCODING 8593
SWIDTH 23 0
DWIDTH 2 0
BBX 0 0 0 0
BITMAP
ENDCHAR
STARTCHAR 2192
ENCODING 8594
SWIDTH 500 0
DWIDTH 42 0
BBX 0 0 0 0
BITMAP
ENDCHAR
STARTCHAR 2193
ENCODING 8595
SWIDTH 23 0
DWIDTH 2 0
BBX 0 0 0 0
BITMAP
ENDCHAR
STARTCHAR 2194
ENCODING 8596
SWIDTH 23 0
DWIDTH 2 0
BBX 0 0 0 0
BITMAP
ENDCHAR
STARTCHAR 2195
ENCODING 8597
SWIDTH 23 0
DWIDTH 2 0
BBX 0 0 0 0
BITMAP
ENDCHAR
STARTCHAR 21A8
ENCODING 8616
SWIDTH 23 0
DWIDTH 2 0
BBX 0 0 0 0
BITMAP
ENDCHAR
STARTCHAR 2202
ENCODING 8706
SWIDTH 500 0
DWIDTH 42 0
BBX 0 0 0 0
BITMAP
ENDCHAR
STARTCHAR 2206
ENCODING 8710
SWIDTH 500 0
DWIDTH 42 0
BBX 0 0 0 0
BITMAP
ENDCHAR
STARTCHAR 220F
ENCODING 8719
SWIDTH 23 0
DWIDTH 2 0
BBX 0 0 0 0
BITMAP
ENDCHAR
STARTCHAR 2212
ENCODING 8722
SWIDTH 500 0
DWIDTH 42 0
BBX 0 0 0 0
BITMAP
ENDCHAR
STARTCHAR 2215
ENCODING 8725
SWIDTH 500 0
DWIDTH 42 0
BBX 0 0 0 0
BITMAP
ENDCHAR
STARTCHAR 2219
ENCODING 8729
SWIDTH 500 0
DWIDTH 42 0
BBX 0 0 0 0
BITMAP
ENDCHAR
STARTCHAR 221A
ENCODING 8730
SWIDTH 500 0
DWIDTH 42 0
BBX 0 0 0 0
BITMAP
ENDCHAR
STARTCHAR 221E
ENCODING 8734
SWIDTH 23 0
DWIDTH 2 0
BBX 0 0 0 0
BITMAP
ENDCHAR
STARTCHAR 221F
ENCODING 8735
SWIDTH 23 0
DWIDTH 2 0
BBX 0 0 0 0
BITMAP
ENDCHAR
STARTCHAR 2229
ENCODING 8745
SWIDTH 23 0
DWIDTH 2 0
BBX 0 0 0 0
BITMAP
ENDCHAR
STARTCHAR 222B
ENCODING 8747
SWIDTH 23 0
DWIDTH 2 0
BBX 0 0 0 0
BITMAP
ENDCHAR
STARTCHAR 2248
ENCODING 8776
SWIDTH 500 0
DWIDTH 42 0
BBX 0 0 0 0
BITMAP
ENDCHAR
STARTCHAR 2260
ENCODING 8800
SWIDTH 500 0
DWIDTH 42 0
BBX 0 0 0 0
BITMAP
ENDCHAR
STARTCHAR 2261
ENCODING 8801
SWIDTH 23 0
DWIDTH 2 0
BBX 0 0 0 0
BITMAP
ENDCHAR
STARTCHAR 2264
ENCODING 8804
SWIDTH 500 0
DWIDTH 42 0
BBX 0 0 0 0
BITMAP
ENDCHAR
STARTCHAR 2265
ENCODING 8805
SWIDTH 500 0
DWIDTH 42 0
BBX 0 0 0 0
BITMAP
ENDCHAR
STARTCHAR 2302
ENCODING 8962
SWIDTH 23 0
DWIDTH 2 0
BBX 0 0 0 0
BITMAP
ENDCHAR
STARTCHAR 2310
ENCODING 8976
SWIDTH 23 0
DWIDTH 2 0
BBX 0 0 0 0
BITMAP
ENDCHAR
STARTCHAR 2320
ENCODING 8992
SWIDTH 23 0
DWIDTH 2 0
BBX 0 0 0 0
BITMAP
ENDCHAR
STARTCHAR 2321
ENCODING 8993
SWIDTH 23 0
DWIDTH 2 0
BBX 0 0 0 0
BITMAP
ENDCHAR
STARTCHAR 2500
ENCODING 9472
SWIDTH 23 0
DWIDTH 2 0
BBX 0 0 0 0
BITMAP
ENDCHAR
STARTCHAR 2502
ENCODING 9474
SWIDTH 23 0
DWIDTH 2 0
BBX 0 0 0 0
BITMAP
ENDCHAR
STARTCHAR 250C
ENCODING 9484
SWIDTH 23 0
DWIDTH 2 0
BBX 0 0 0 0
BITMAP
ENDCHAR
STARTCHAR 2510
ENCODING 9488
SWIDTH 23 0
DWIDTH 2 0
BBX 0 0 0 0
BITMAP
ENDCHAR
STARTCHAR 2514
ENCODING 9492
SWIDTH 23 0
DWIDTH 2 0
BBX 0 0 0 0
BITMAP
ENDCHAR
STARTCHAR 2518
ENCODING 9496
SWIDTH 23 0
DWIDTH 2 0
BBX 0 0 0 0
BITMAP
ENDCHAR
STARTCHAR 251C
ENCODING 9500
SWIDTH 23 0
DWIDTH 2 0
BBX 0 0 0 0
BITMAP
ENDCHAR
STARTCHAR 2524
ENCODING 9508
SWIDTH 23 0
DWIDTH 2 0
BBX 0 0 0 0
BITMAP
ENDCHAR
STARTCHAR 252C
ENCODING 9516
SWIDTH 23 0
DWIDTH 2 0
BBX 0 0 0 0
BITMAP
ENDCHAR
STARTCHAR 2534
ENCODING 9524
SWIDTH 23 0
DWIDTH 2 0
BBX 0 0 0 0
BITMAP
ENDCHAR
STARTCHAR 253C
ENCODING 9532
SWIDTH 23 0
DWIDTH 2 0
BBX 0 0 0 0
BITMAP
ENDCHAR
STARTCHAR 2550
ENCODING 9552
SWIDTH 23 0
DWIDTH 2 0
BBX 0 0 0 0
BITMAP
ENDCHAR
STARTCHAR 2551
ENCODING 9553
SWIDTH 23 0
DWIDTH 2 0
BBX 0 0 0 0
BITMAP
ENDCHAR
STARTCHAR 2552
ENCODING 9554
SWIDTH 23 0
DWIDTH 2 0
BBX 0 0 0 0
BITMAP
ENDCHAR
STARTCHAR 2553
ENCODING 9555
SWIDTH 23 0
DWIDTH 2 0
BBX 0 0 0 0
BITMAP
ENDCHAR
STARTCHAR 2554
ENCODING 9556
SWIDTH 23 0
DWIDTH 2 0
BBX 0 0 0 0
BITMAP
ENDCHAR
STARTCHAR 2555
ENCODING 9557
SWIDTH 23 0
DWIDTH 2 0
BBX 0 0 0 0
BITMAP
ENDCHAR
STARTCHAR 2556
ENCODING 9558
SWIDTH 23 0
DWIDTH 2 0
BBX 0 0 0 0
BITMAP
ENDCHAR
STARTCHAR 2557
ENCODING 9559
SWIDTH 23 0
DWIDTH 2 0
BBX 0 0 0 0
BITMAP
ENDCHAR
STARTCHAR 2558
ENCODING 9560
SWIDTH 23 0
DWIDTH 2 0
BBX 0 0 0 0
BITMAP
ENDCHAR
STARTCHAR 2559
ENCODING 9561
SWIDTH 23 0
DWIDTH 2 0
BBX 0 0 0 0
BITMAP
ENDCHAR
STARTCHAR 255A
ENCODING 9562
SWIDTH 23 0
DWIDTH 2 0
BBX 0 0 0 0
BITMAP
ENDCHAR
STARTCHAR 255B
ENCODING 9563
SWIDTH 23 0
DWIDTH 2 0
BBX 0 0 0 0
BITMAP
ENDCHAR
STARTCHAR 255C
ENCODING 9564
SWIDTH 23 0
DWIDTH 2 0
BBX 0 0 0 0
BITMAP
ENDCHAR
STARTCHAR 255D
ENCODING 9565
SWIDTH 23 0
DWIDTH 2 0
BBX 0 0 0 0
BITMAP
ENDCHAR
STARTCHAR 255E
ENCODING 9566
SWIDTH 23 0
DWIDTH 2 0
BBX 0 0 0 0
BITMAP
ENDCHAR
STARTCHAR 255F
ENCODING 9567
SWIDTH 23 0
DWIDTH 2 0
BBX 0 0 0 0
BITMAP
ENDCHAR
STARTCHAR 2560
ENCODING 9568
SWIDTH 23 0
DWIDTH 2 0
BBX 0 0 0 0
BITMAP
ENDCHAR
STARTCHAR 2561
ENCODING 9569
SWIDTH 23 0
DWIDTH 2 0
BBX 0 0 0 0
BITMAP
ENDCHAR
STARTCHAR 2562
ENCODING 9570
SWIDTH 23 0
DWIDTH 2 0
BBX 0 0 0 0
BITMAP
ENDCHAR
STARTCHAR 2563
ENCODING 9571
SWIDTH 23 0
DWIDTH 2 0
BBX 0 0 0 0
BITMAP
ENDCHAR
STARTCHAR 2564
ENCODING 9572
SWIDTH 23 0
DWIDTH 2 0
BBX 0 0 0 0
BITMAP
ENDCHAR
STARTCHAR 2565
ENCODING 9573
SWIDTH 23 0
DWIDTH 2 0
BBX 0 0 0 0
BITMAP
ENDCHAR
STARTCHAR 2566
ENCODING 9574
SWIDTH 23 0
DWIDTH 2 0
BBX 0 0 0 0
BITMAP
ENDCHAR
STARTCHAR 2567
ENCODING 9575
SWIDTH 23 0
DWIDTH 2 0
BBX 0 0 0 0
BITMAP
ENDCHAR
STARTCHAR 2568
ENCODING 9576
SWIDTH 23 0
DWIDTH 2 0
BBX 0 0 0 0
BITMAP
ENDCHAR
STARTCHAR 2569
ENCODING 9577
SWIDTH 23 0
DWIDTH 2 0
BBX 0 0 0 0
BITMAP
ENDCHAR
STARTCHAR 256A
ENCODING 9578
SWIDTH 23 0
DWIDTH 2 0
BBX 0 0 0 0
BITMAP
ENDCHAR
STARTCHAR 256B
ENCODING 9579
SWIDTH 23 0
DWIDTH 2 0
BBX 0 0 0 0
BITMAP
ENDCHAR
STARTCHAR 256C
ENCODING 9580
SWIDTH 23 0
DWIDTH 2 0
BBX 0 0 0 0
BITMAP
ENDCHAR
STARTCHAR 2580
ENCODING 9600
SWIDTH 23 0
DWIDTH 2 0
BBX 0 0 0 0
BITMAP
ENDCHAR
STARTCHAR 2584
ENCODING 9604
SWIDTH 23 0
DWIDTH 2 0
BBX 0 0 0 0
BITMAP
ENDCHAR
STARTCHAR 2588
ENCODING 9608
SWIDTH 23 0
DWIDTH 2 0
BBX 0 0 0 0
BITMAP
ENDCHAR
STARTCHAR 258C
ENCODING 9612
SWIDTH 23 0
DWIDTH 2 0
BBX 0 0 0 0
BITMAP
ENDCHAR
STARTCHAR 2590
ENCODING 9616
SWIDTH 23 0
DWIDTH 2 0
BBX 0 0 0 0
BITMAP
ENDCHAR
STARTCHAR 2591
ENCODING 9617
SWIDTH 23 0
DWIDTH 2 0
BBX 0 0 0 0
BITMAP
ENDCHAR
STARTCHAR 2592
ENCODING 9618
SWIDTH 23 0
DWIDTH 2 0
BBX 0 0 0 0
BITMAP
ENDCHAR
STARTCHAR 2593
ENCODING 9619
SWIDTH 23 0
DWIDTH 2 0
BBX 0 0 0 0
BITMAP
ENDCHAR
STARTCHAR 25A0
ENCODING 9632
SWIDTH 500 0
DWIDTH 42 0
BBX 0 0 0 0
BITMAP
ENDCHAR
STARTCHAR 25AC
ENCODING 9644
SWIDTH 23 0
DWIDTH 2 0
BBX 0 0 0 0
BITMAP
ENDCHAR
STARTCHAR 25B2
ENCODING 9650
SWIDTH 23 0
DWIDTH 2 0
BBX 0 0 0 0
BITMAP
ENDCHAR
STARTCHAR 25BA
ENCODING 9658
SWIDTH 23 0
DWIDTH 2 0
BBX 0 0 0 0
BITMAP
ENDCHAR
STARTCHAR 25BC
ENCODING 9660
SWIDTH 23 0
DWIDTH 2 0
BBX 0 0 0 0
BITMAP
ENDCHAR
STARTCHAR 25C4
ENCODING 9668
SWIDTH 23 0
DWIDTH 2 0
BBX 0 0 0 0
BITMAP
ENDCHAR
STARTCHAR 25CA
ENCODING 9674
SWIDTH 500 0
DWIDTH 42 0
BBX 0 0 0 0
BITMAP
ENDCHAR
STARTCHAR 25CB
ENCODING 9675
SWIDTH 23 0
DWIDTH 2 0
BBX 0 0 0 0
BITMAP
ENDCHAR
STARTCHAR 25D8
ENCODING 9688
SWIDTH 23 0
DWIDTH 2 0
BBX 0 0 0 0
BITMAP
ENDCHAR
STARTCHAR 25D9
ENCODING 9689
SWIDTH 23 0
DWIDTH 2 0
BBX 0 0 0 0
BITMAP
ENDCHAR
STARTCHAR 263A
ENCODING 9786
SWIDTH 23 0
DWIDTH 2 0
BBX 0 0 0 0
BITMAP
ENDCHAR
STARTCHAR 263B
ENCODING 9787
SWIDTH 23 0
DWIDTH 2 0
BBX 0 0 0 0
BITMAP
ENDCHAR
STARTCHAR 263C
ENCODING 9788
SWIDTH 23 0
DWIDTH 2 0
BBX 0 0 0 0
BITMAP
ENDCHAR
STARTCHAR 2640
ENCODING 9792
SWIDTH 23 0
DWIDTH 2 0
BBX 0 0 0 0
BITMAP
ENDCHAR
STARTCHAR 2642
ENCODING 9794
SWIDTH 23 0
DWIDTH 2 0
BBX 0 0 0 0
BITMAP
ENDCHAR
STARTCHAR 2660
ENCODING 9824
SWIDTH 23 0
DWIDTH 2 0
BBX 0 0 0 0
BITMAP
ENDCHAR
STARTCHAR 2663
ENCODING 9827
SWIDTH 23 0
DWIDTH 2 0
BBX 0 0 0 0
BITMAP
ENDCHAR
STARTCHAR 2665
ENCODING 9829
SWIDTH 23 0
DWIDTH 2 0
BBX 0 0 0 0
BITMAP
ENDCHAR
STARTCHAR 2666
ENCODING 9830
SWIDTH 23 0
DWIDTH 2 0
BBX 0 0 0 0
BITMAP
ENDCHAR
STARTCHAR 266A
ENCODING 9834
SWIDTH 23 0
DWIDTH 2 0
BBX 0 0 0 0
BITMAP
ENDCHAR
STARTCHAR 266B
ENCODING 9835
SWIDTH 23 0
DWIDTH 2 0
BBX 0 0 0 0
BITMAP
ENDCHAR
STARTCHAR F000
ENCODING 61440
SWIDTH 23 0
DWIDTH 2 0
BBX 0 0 0 0
BITMAP
ENDCHAR
STARTCHAR F001
ENCODING 61441
SWIDTH 500 0
DWIDTH 42 0
BBX 0 0 0 0
BITMAP
ENDCHAR
STARTCHAR F002
ENCODING 61442
SWIDTH 500 0
DWIDTH 42 0
BBX 0 0 0 0
BITMAP
ENDCHAR
ENDFONT
